<?xml version="1.0" encoding="UTF-8" standalone="no"?>
<svg
   xmlns:dc="http://purl.org/dc/elements/1.1/"
   xmlns:cc="http://creativecommons.org/ns#"
   xmlns:rdf="http://www.w3.org/1999/02/22-rdf-syntax-ns#"
   xmlns:svg="http://www.w3.org/2000/svg"
   xmlns="http://www.w3.org/2000/svg"
   xmlns:sodipodi="http://sodipodi.sourceforge.net/DTD/sodipodi-0.dtd"
   xmlns:inkscape="http://www.inkscape.org/namespaces/inkscape"
   version="1.1"
   id="svg2"
   xml:space="preserve"
   width="1000"
   height="666.66669"
   viewBox="0 0 1000 666.66669"
   sodipodi:docname="5994425.ai"><metadata
     id="metadata8"><rdf:RDF><cc:Work
         rdf:about=""><dc:format>image/svg+xml</dc:format><dc:type
           rdf:resource="http://purl.org/dc/dcmitype/StillImage" /></cc:Work></rdf:RDF></metadata><defs
     id="defs6"><clipPath
       clipPathUnits="userSpaceOnUse"
       id="clipPath18"><path
         d="M 0,500 H 750 V 0 H 0 Z"
         id="path16" /></clipPath><clipPath
       clipPathUnits="userSpaceOnUse"
       id="clipPath30"><path
         d="M 23.3553,484.979 H 699.598 V 31.1376 H 23.3553 Z"
         id="path28" /></clipPath><clipPath
       clipPathUnits="userSpaceOnUse"
       id="clipPath46"><path
         d="M 0,500 H 750 V 0 H 0 Z"
         id="path44" /></clipPath><clipPath
       clipPathUnits="userSpaceOnUse"
       id="clipPath82"><path
         d="M 0,500 H 750 V 0 H 0 Z"
         id="path80" /></clipPath><clipPath
       clipPathUnits="userSpaceOnUse"
       id="clipPath90"><path
         d="M 52.4846,468.943 H 238.087 V 344.938 H 52.4846 Z"
         id="path88" /></clipPath><clipPath
       clipPathUnits="userSpaceOnUse"
       id="clipPath110"><path
         d="M 0,500 H 750 V 0 H 0 Z"
         id="path108" /></clipPath><clipPath
       clipPathUnits="userSpaceOnUse"
       id="clipPath164"><path
         d="M 0,500 H 750 V 0 H 0 Z"
         id="path162" /></clipPath><clipPath
       clipPathUnits="userSpaceOnUse"
       id="clipPath186"><path
         d="M 0,500 H 750 V 0 H 0 Z"
         id="path184" /></clipPath><clipPath
       clipPathUnits="userSpaceOnUse"
       id="clipPath266"><path
         d="M 0,500 H 750 V 0 H 0 Z"
         id="path264" /></clipPath><clipPath
       clipPathUnits="userSpaceOnUse"
       id="clipPath294"><path
         d="M 0,500 H 750 V 0 H 0 Z"
         id="path292" /></clipPath><clipPath
       clipPathUnits="userSpaceOnUse"
       id="clipPath322"><path
         d="M 0,500 H 750 V 0 H 0 Z"
         id="path320" /></clipPath><clipPath
       clipPathUnits="userSpaceOnUse"
       id="clipPath350"><path
         d="M 0,500 H 750 V 0 H 0 Z"
         id="path348" /></clipPath><clipPath
       clipPathUnits="userSpaceOnUse"
       id="clipPath376"><path
         d="M 0,500 H 750 V 0 H 0 Z"
         id="path374" /></clipPath></defs><sodipodi:namedview
     pagecolor="#ffffff"
     bordercolor="#666666"
     borderopacity="1"
     objecttolerance="10"
     gridtolerance="10"
     guidetolerance="10"
     inkscape:pageopacity="0"
     inkscape:pageshadow="2"
     inkscape:window-width="640"
     inkscape:window-height="480"
     id="namedview4" /><g
     id="g10"
     inkscape:groupmode="layer"
     inkscape:label="5994425"
     transform="matrix(1.3333333,0,0,-1.3333333,0,666.66667)"><g
       id="g12"><g
         id="g14"
         clip-path="url(#clipPath18)"><g
           id="g20"
           transform="translate(699.4609,234.5293)"><path
             d="m 0,0 c 0,0 10,178 -141,227 -151,49 -227,13 -275,-33 -48,-46 -64,-76 -119,-82 -55,-6 -106,-16 -132,-83 -26,-67 7,-120 57,-153 50,-33 108,2 154,-19 46,-21 75,-56 169,-60 94,-4 97,23 145,65 48,42 133,-2 142,138"
             style="fill:#5ae4a7;fill-opacity:1;fill-rule:nonzero;stroke:none"
             id="path22" /></g><g
           id="g24"><g
             id="g26" /><g
             id="g38"><g
               clip-path="url(#clipPath30)"
               opacity="0.699997"
               id="g36"><g
                 transform="translate(699.4609,234.5293)"
                 id="g34"><path
                   d="m 0,0 c 0,0 10,178 -141,227 -151,49 -227,13 -275,-33 -48,-46 -64,-76 -119,-82 -55,-6 -106,-16 -132,-83 -26,-67 7,-120 57,-153 50,-33 108,2 154,-19 46,-21 75,-56 169,-60 94,-4 97,23 145,65 48,42 133,-2 142,138"
                   style="fill:#ffffff;fill-opacity:1;fill-rule:nonzero;stroke:none"
                   id="path32" /></g></g></g></g></g></g><g
       id="g40"><g
         id="g42"
         clip-path="url(#clipPath46)"><g
           id="g48"
           transform="translate(590.9883,271.8965)"><path
             d="M 0,0 C 4.073,-1.779 14.034,-1.554 14.042,-1.554 14.146,-1.552 11.9,4.967 11.712,5.362 9.526,9.934 2.615,17.483 -3.009,16.723 -7.06,16.176 -9.313,12.121 -8.399,8.307 -7.465,4.41 -3.468,1.516 0,0"
             style="fill:#1a2e35;fill-opacity:1;fill-rule:nonzero;stroke:none"
             id="path50" /></g><g
           id="g52"
           transform="translate(594.4268,243.043)"><path
             d="m 0,0 c 4.225,-0.616 13.114,1.962 13.821,2.171 1.404,-4.978 3.247,-9.97 5.392,-14.919 1.223,-2.832 2.543,-5.646 3.9,-8.449 -0.809,1.187 -1.544,2.243 -1.662,2.381 -3.316,3.833 -11.976,9.288 -17.199,7.069 -3.764,-1.598 -4.864,-6.103 -2.976,-9.54 1.929,-3.512 6.55,-5.248 10.294,-5.793 3.802,-0.555 11.424,1.491 13.436,2.059 0.532,-1.07 1.052,-2.144 1.589,-3.212 2.573,-5.126 5.165,-10.23 7.552,-15.315 0.843,-1.79 1.607,-3.586 2.378,-5.379 -0.721,1.055 -1.337,1.937 -1.446,2.062 -3.316,3.832 -11.975,9.288 -17.199,7.069 -3.763,-1.598 -4.865,-6.103 -2.976,-9.541 1.931,-3.511 6.549,-5.247 10.295,-5.792 3.627,-0.529 10.68,1.296 13.072,1.96 0.734,-1.86 1.473,-3.723 2.1,-5.558 0.4,-1.263 0.874,-2.451 1.203,-3.742 0.356,-1.271 0.706,-2.53 1.054,-3.776 0.582,-2.424 1.197,-4.923 1.705,-7.303 0.366,-1.652 0.685,-3.233 1.009,-4.826 -0.818,1.793 -2.492,5.27 -2.665,5.544 -2.696,4.29 -10.43,10.994 -15.929,9.594 -3.963,-1.01 -5.734,-5.296 -4.387,-8.981 1.375,-3.762 5.678,-6.178 9.298,-7.285 3.986,-1.218 12.809,-0.104 13.91,0.041 0.529,-2.636 1.019,-5.205 1.441,-7.638 0.946,-5.366 1.66,-10.176 2.203,-14.249 h 3.72 c -0.649,4.213 -1.496,9.232 -2.619,14.868 -0.525,2.678 -1.14,5.531 -1.8,8.454 0.663,0.263 4.426,1.786 7.76,3.649 2.905,-3.145 10.348,-6.826 11.311,-7.295 -1.012,-2.491 -2.022,-4.903 -3.011,-7.165 -2.058,-4.736 -4.012,-8.936 -5.739,-12.511 h 4.023 c 1.484,3.294 3.114,7.045 4.814,11.202 1.039,2.526 2.1,5.246 3.162,8.046 1.067,-0.223 9.802,-1.997 13.873,-1.078 3.69,0.834 8.163,2.923 9.816,6.574 1.618,3.572 0.169,7.979 -3.708,9.281 -5.377,1.807 -13.589,-4.302 -16.598,-8.38 -0.179,-0.24 -1.813,-3.066 -2.814,-4.865 0.428,1.147 0.856,2.256 1.283,3.442 0.859,2.34 1.646,4.701 2.502,7.237 0.372,1.241 0.746,2.493 1.125,3.757 0.401,1.246 0.666,2.613 1.01,3.931 0.733,3.072 1.323,6.221 1.849,9.405 2.052,-0.746 9.373,-3.294 13.166,-3.027 3.776,0.265 8.512,1.652 10.698,5.01 2.141,3.287 1.377,7.862 -2.257,9.737 -5.044,2.601 -14.087,-2.195 -17.677,-5.77 -0.225,-0.222 -2.513,-3.077 -3.741,-4.67 0.301,1.917 0.612,3.829 0.853,5.779 0.698,5.627 1.229,11.343 1.786,17.045 0.169,1.747 0.359,3.485 0.543,5.225 0.727,-0.273 9.363,-3.489 13.612,-3.19 3.776,0.264 8.512,1.652 10.699,5.01 2.139,3.286 1.375,7.862 -2.257,9.735 -5.044,2.601 -14.086,-2.193 -17.678,-5.769 -0.271,-0.268 -3.559,-4.381 -4.344,-5.468 0.405,3.834 0.845,7.65 1.431,11.395 0.8,5.168 1.873,10.193 3.27,14.987 0.338,-0.129 9.338,-3.525 13.689,-3.219 3.776,0.265 8.514,1.652 10.699,5.009 2.14,3.287 1.377,7.862 -2.258,9.737 C 104.362,17.361 95.321,12.565 91.729,8.991 91.448,8.71 87.912,4.284 87.328,3.436 c 0.085,0.284 0.14,0.588 0.228,0.872 1.557,5.097 3.707,9.84 5.936,14.182 1.291,2.526 2.666,4.867 4.055,7.115 1.611,-0.805 9.016,-4.399 12.962,-4.558 3.782,-0.151 8.642,0.708 11.183,3.805 2.49,3.032 2.233,7.664 -1.173,9.925 -4.728,3.14 -14.242,-0.634 -18.205,-3.792 -0.214,-0.172 -2.211,-2.161 -3.646,-3.63 0.642,1.006 1.286,2.055 1.921,3.005 2.374,3.576 4.767,6.703 6.91,9.456 1.231,1.555 2.375,2.937 3.46,4.22 1.992,0.034 10.022,0.278 13.533,1.926 3.425,1.609 7.344,4.61 8.173,8.53 0.811,3.839 -1.552,7.831 -5.615,8.268 -5.643,0.608 -12.348,-7.125 -14.41,-11.754 -0.177,-0.401 -2.244,-6.978 -2.141,-6.977 0,0 0.097,10e-4 0.12,0.002 -1.068,-1.213 -2.199,-2.525 -3.405,-3.984 -2.208,-2.712 -4.677,-5.795 -7.137,-9.333 -2.469,-3.528 -5.051,-7.432 -7.4,-11.789 C 90.315,14.561 88.056,9.85 86.355,4.694 86.335,4.637 86.323,4.573 86.304,4.515 86.333,6.177 86.26,10.829 86.213,11.184 85.562,16.21 81.351,25.538 75.769,26.57 71.748,27.312 68.344,24.163 68.022,20.253 67.696,16.26 70.591,12.265 73.414,9.742 76.598,6.898 85.435,4.146 86.139,3.927 84.563,-0.997 83.348,-6.178 82.405,-11.489 c -0.542,-3.036 -0.993,-6.111 -1.407,-9.2 -0.02,1.438 -0.05,2.724 -0.073,2.903 -0.653,5.026 -4.864,14.353 -10.446,15.386 -4.02,0.743 -7.424,-2.408 -7.745,-6.317 -0.327,-3.993 2.568,-7.989 5.391,-10.511 2.865,-2.558 10.351,-5.058 12.341,-5.692 -0.147,-1.186 -0.306,-2.371 -0.446,-3.558 -0.681,-5.695 -1.335,-11.381 -2.149,-16.939 -0.285,-1.959 -0.638,-3.877 -0.984,-5.797 -0.021,1.276 -0.048,2.353 -0.07,2.516 -0.651,5.025 -4.863,14.353 -10.443,15.385 -4.021,0.743 -7.427,-2.407 -7.747,-6.318 -0.327,-3.991 2.569,-7.988 5.392,-10.51 2.732,-2.441 9.623,-4.81 11.984,-5.576 -0.414,-1.956 -0.825,-3.917 -1.315,-5.794 -0.364,-1.274 -0.625,-2.525 -1.06,-3.785 -0.405,-1.256 -0.807,-2.5 -1.204,-3.73 -0.854,-2.344 -1.718,-4.767 -2.607,-7.033 -0.606,-1.58 -1.213,-3.074 -1.82,-4.581 0.306,1.947 0.827,5.77 0.835,6.094 0.077,3.365 -1.118,8.839 -3.498,12.686 0.015,0.498 -0.014,0.993 -0.092,1.485 -0.623,3.873 -4.262,6.75 -8.213,5.697 -5.484,-1.46 -8.962,-11.086 -9.22,-16.146 -0.017,-0.299 0.179,-3.557 0.337,-5.611 -0.278,1.194 -0.532,2.355 -0.831,3.58 -0.575,2.425 -1.22,4.828 -1.905,7.417 -0.374,1.239 -0.753,2.489 -1.135,3.753 -0.352,1.26 -0.884,2.547 -1.326,3.836 -1.084,2.965 -2.327,5.918 -3.645,8.865 2.123,0.508 9.634,2.423 12.65,4.738 3.004,2.304 6.188,6.074 6.16,10.079 -0.028,3.924 -3.188,7.318 -7.254,6.877 -5.641,-0.612 -10.539,-9.601 -11.562,-14.564 -0.064,-0.309 -0.398,-3.953 -0.543,-5.959 -0.807,1.765 -1.603,3.532 -2.477,5.291 -2.521,5.079 -5.231,10.14 -7.913,15.202 -0.823,1.55 -1.623,3.104 -2.43,4.657 0.757,0.174 9.735,2.257 13.114,4.849 3.003,2.303 6.187,6.074 6.159,10.08 -0.028,3.921 -3.188,7.317 -7.253,6.876 -5.642,-0.614 -10.538,-9.601 -11.562,-14.565 -0.078,-0.373 -0.551,-5.617 -0.606,-6.956 -1.777,3.42 -3.516,6.846 -5.094,10.293 -2.182,4.752 -4.062,9.535 -5.539,14.304 0.353,0.08 9.733,2.213 13.194,4.867 3.003,2.304 6.187,6.074 6.158,10.08 -0.027,3.923 -3.188,7.317 -7.253,6.876 C 21.61,23.428 16.715,14.44 15.691,9.477 15.61,9.087 15.104,3.445 15.086,2.417 14.998,2.7 14.876,2.984 14.793,3.268 13.28,8.38 12.456,13.521 11.921,18.373 c -0.317,2.818 -0.46,5.529 -0.542,8.17 1.787,0.219 9.946,1.305 13.325,3.351 3.238,1.96 6.817,5.357 7.23,9.341 0.402,3.903 -2.368,7.624 -6.455,7.632 -5.675,0.01 -11.529,-8.386 -13.092,-13.206 -0.085,-0.263 -0.655,-3.023 -1.04,-5.039 -0.018,1.192 -0.06,2.423 -0.055,3.566 0.008,4.291 0.278,8.221 0.547,11.699 0.169,1.977 0.361,3.761 0.558,5.427 1.643,1.13 8.206,5.763 10.225,9.074 1.97,3.233 3.581,7.896 2.11,11.623 -1.44,3.649 -5.612,5.675 -9.244,3.799 C 10.446,71.203 9.12,61.054 9.954,56.056 c 0.073,-0.431 1.977,-7.058 2.063,-7 0,0 0.081,0.055 0.098,0.068 -0.221,-1.6 -0.44,-3.319 -0.641,-5.202 C 11.128,40.443 10.771,36.509 10.67,32.201 10.558,27.896 10.557,23.215 11.001,18.285 11.44,13.344 12.153,8.167 13.579,2.929 13.596,2.87 13.62,2.81 13.637,2.751 12.743,4.154 10.115,7.992 9.88,8.264 6.564,12.097 -2.095,17.552 -7.318,15.335 -11.081,13.736 -12.185,9.23 -10.294,5.793 -8.363,2.282 -3.745,0.546 0,0"
             style="fill:#1a2e35;fill-opacity:1;fill-rule:nonzero;stroke:none"
             id="path54" /></g><g
           id="g56"
           transform="translate(691.7441,269.7056)"><path
             d="M 0,0 C 0.088,-0.055 1.812,6.62 1.873,7.054 2.57,12.073 0.971,22.182 -4.14,24.651 -7.82,26.429 -11.937,24.29 -13.276,20.603 -14.647,16.839 -12.91,12.22 -10.854,9.043 -8.439,5.312 -0.007,0.004 0,0"
             style="fill:#1a2e35;fill-opacity:1;fill-rule:nonzero;stroke:none"
             id="path58" /></g><g
           id="g60"
           transform="translate(678.8428,87.8438)"><path
             d="m 0,0 h -54.447 l -6.806,60.469 h 68.06 z"
             style="fill:#ffffff;fill-opacity:1;fill-rule:nonzero;stroke:none"
             id="path62" /></g><g
           id="g64"
           transform="translate(678.8428,87.8438)"><path
             d="m 0,0 h -54.447 l -6.806,60.469 h 68.06 z"
             style="fill:none;stroke:#1a2e35;stroke-width:1;stroke-linecap:round;stroke-linejoin:round;stroke-miterlimit:10;stroke-dasharray:none;stroke-opacity:1"
             id="path66" /></g><g
           id="g68"
           transform="translate(618.8359,137.2354)"><path
             d="M 0,0 0.659,-5.859 H 64.907 L 65.566,0 Z"
             style="fill:#1a2e35;fill-opacity:1;fill-rule:nonzero;stroke:none"
             id="path70" /></g><g
           id="g72"
           transform="translate(682.292,118.4873)"><path
             d="M 0,0 0.659,5.858 H -62.005 L -61.346,0 Z"
             style="fill:#1a2e35;fill-opacity:1;fill-rule:nonzero;stroke:none"
             id="path74" /></g></g></g><g
       id="g76"><g
         id="g78"
         clip-path="url(#clipPath82)"><g
           id="g84"><g
             id="g86" /><g
             id="g102"><g
               clip-path="url(#clipPath90)"
               opacity="0.300003"
               id="g100"><g
                 transform="translate(110.9351,382.5439)"
                 id="g94"><path
                   d="m 0,0 c -11.512,0 -20.845,9.332 -20.845,20.845 0,11.511 9.333,20.844 20.845,20.844 11.512,0 20.844,-9.333 20.844,-20.844 C 20.844,9.332 11.512,0 0,0 Z M 57.95,11.974 V 29.44 l -17.441,1.94 c -0.957,3.689 -2.413,7.175 -4.277,10.394 L 47.25,55.549 34.899,67.899 21.185,56.93 C 17.978,58.817 14.5,60.29 10.819,61.272 L 8.871,78.795 H -8.596 l -1.94,-17.442 c -3.689,-0.957 -7.174,-2.412 -10.394,-4.276 l -13.775,11.017 -12.35,-12.35 10.969,-13.715 c -1.887,-3.207 -3.36,-6.685 -4.342,-10.365 L -57.951,29.715 V 12.249 l 17.442,-1.94 c 0.957,-3.689 2.413,-7.175 4.277,-10.395 l -11.018,-13.774 12.351,-12.351 13.714,10.969 c 3.207,-1.886 6.685,-3.36 10.366,-4.342 L -8.87,-37.106 H 8.596 l 1.94,17.442 c 3.689,0.956 7.174,2.412 10.394,4.276 l 13.775,-11.017 12.35,12.35 -10.969,13.715 c 1.887,3.207 3.359,6.685 4.342,10.365 z"
                   style="fill:none;stroke:#000000;stroke-width:1;stroke-linecap:butt;stroke-linejoin:miter;stroke-miterlimit:10;stroke-dasharray:none;stroke-opacity:1"
                   id="path92" /></g><g
                 transform="translate(200.4819,415.2275)"
                 id="g98"><path
                   d="m 0,0 c -7.622,-1.275 -14.834,3.869 -16.11,11.49 -1.276,7.622 3.869,14.834 11.49,16.11 C 3.001,28.876 10.214,23.731 11.49,16.11 12.766,8.488 7.621,1.276 0,0 Z M 37.039,14.349 35.103,25.913 23.341,25.264 c -1.042,2.336 -2.392,4.483 -3.983,6.408 l 5.767,10.34 -9.544,6.808 -7.865,-8.782 c -2.332,0.894 -4.798,1.483 -7.343,1.726 l -3.232,11.384 -11.563,-1.935 0.648,-11.762 c -2.336,-1.042 -4.482,-2.392 -6.408,-3.983 l -10.34,5.767 -6.808,-9.545 8.782,-7.863 c -0.894,-2.333 -1.484,-4.799 -1.726,-7.344 l -11.385,-3.232 1.936,-11.563 11.762,0.648 c 1.042,-2.336 2.392,-4.482 3.983,-6.408 l -5.768,-10.34 9.546,-6.808 7.864,8.782 c 2.332,-0.894 4.797,-1.483 7.343,-1.726 l 3.232,-11.384 11.563,1.935 -0.648,11.762 c 2.336,1.042 4.482,2.392 6.408,3.983 l 10.34,-5.767 6.807,9.545 -8.781,7.864 c 0.894,2.332 1.483,4.798 1.726,7.343 z"
                   style="fill:none;stroke:#000000;stroke-width:1;stroke-linecap:butt;stroke-linejoin:miter;stroke-miterlimit:10;stroke-dasharray:none;stroke-opacity:1"
                   id="path96" /></g></g></g></g></g></g><g
       id="g104"><g
         id="g106"
         clip-path="url(#clipPath110)"><g
           id="g112"
           transform="translate(620.6338,110.5586)"><path
             d="m 0,0 h -475.584 v 298.24 c 0,5.775 4.681,10.456 10.456,10.456 H -10.456 C -4.682,308.696 0,304.015 0,298.24 Z"
             style="fill:#5ae4a7;fill-opacity:1;fill-rule:nonzero;stroke:none"
             id="path114" /></g><g
           id="g116"
           transform="translate(620.6338,110.5586)"><path
             d="m 0,0 h -475.584 v 298.24 c 0,5.775 4.681,10.456 10.456,10.456 H -10.456 C -4.682,308.696 0,304.015 0,298.24 Z"
             style="fill:none;stroke:#1a2e35;stroke-width:1;stroke-linecap:round;stroke-linejoin:round;stroke-miterlimit:10;stroke-dasharray:none;stroke-opacity:1"
             id="path118" /></g><path
           d="M 547.354,109.315 H 220.508 v 16.104 h 326.846 z"
           style="fill:#1a2e35;fill-opacity:1;fill-rule:nonzero;stroke:#1a2e35;stroke-width:1;stroke-linecap:round;stroke-linejoin:round;stroke-miterlimit:10;stroke-dasharray:none;stroke-opacity:1"
           id="path120" /><path
           d="M 547.354,109.315 H 220.508 v 8.351 h 326.846 z"
           style="fill:#ffffff;fill-opacity:1;fill-rule:nonzero;stroke:#1a2e35;stroke-width:1;stroke-linecap:round;stroke-linejoin:round;stroke-miterlimit:10;stroke-dasharray:none;stroke-opacity:1"
           id="path122" /><g
           id="g124"
           transform="translate(106.5898,99.7725)"><path
             d="m 0,0 c 0,0 5.368,-6.561 21.472,-11.929 h 511.741 c 0,0 11.929,2.983 17.296,11.333 z"
             style="fill:#1a2e35;fill-opacity:1;fill-rule:nonzero;stroke:none"
             id="path126" /></g><g
           id="g128"
           transform="translate(106.5898,99.7725)"><path
             d="m 0,0 c 0,0 5.368,-6.561 21.472,-11.929 h 511.741 c 0,0 11.929,2.983 17.296,11.333 z"
             style="fill:none;stroke:#1a2e35;stroke-width:1;stroke-linecap:round;stroke-linejoin:round;stroke-miterlimit:10;stroke-dasharray:none;stroke-opacity:1"
             id="path130" /></g><g
           id="g132"
           transform="translate(656.3604,98.9824)"><path
             d="m 0,0 h -548.967 c -1.047,0 -1.895,0.849 -1.895,1.896 v 8.75 c 0,1.047 0.848,1.895 1.894,1.895 H 0.001 c 1.046,0 1.895,-0.848 1.895,-1.895 V 1.896 C 1.896,0.849 1.047,0 0,0"
             style="fill:#5ae4a7;fill-opacity:1;fill-rule:nonzero;stroke:none"
             id="path134" /></g><g
           id="g136"
           transform="translate(656.3604,98.9824)"><path
             d="m 0,0 h -548.967 c -1.047,0 -1.895,0.849 -1.895,1.896 v 8.75 c 0,1.047 0.848,1.895 1.894,1.895 H 0.001 c 1.046,0 1.895,-0.848 1.895,-1.895 V 1.896 C 1.896,0.849 1.047,0 0,0 Z"
             style="fill:none;stroke:#1a2e35;stroke-width:1;stroke-linecap:round;stroke-linejoin:round;stroke-miterlimit:10;stroke-dasharray:none;stroke-opacity:1"
             id="path138" /></g><g
           id="g140"
           transform="translate(386.9141,409.9189)"><path
             d="M 0,0 C 0,2.306 -1.869,4.175 -4.175,4.175 -6.48,4.175 -8.35,2.306 -8.35,0 c 0,-2.306 1.87,-4.175 4.175,-4.175 C -1.869,-4.175 0,-2.306 0,0"
             style="fill:#1a2e35;fill-opacity:1;fill-rule:nonzero;stroke:none"
             id="path142" /></g><path
           d="M 601.34,148.181 H 164.343 V 395.138 H 601.34 Z"
           style="fill:#ffffff;fill-opacity:1;fill-rule:nonzero;stroke:#1a2e35;stroke-width:1;stroke-linecap:round;stroke-linejoin:round;stroke-miterlimit:10;stroke-dasharray:none;stroke-opacity:1"
           id="path144" /><path
           d="M 601.34,380.192 H 164.343 v 14.945 H 601.34 Z"
           style="fill:#cacaca;fill-opacity:1;fill-rule:nonzero;stroke:#1a2e35;stroke-width:1;stroke-linecap:round;stroke-linejoin:round;stroke-miterlimit:10;stroke-dasharray:none;stroke-opacity:1"
           id="path146" /></g></g><g
       id="g148"
       transform="translate(23.2227,87.8438)"><path
         d="M 0,0 H 696.095"
         style="fill:none;stroke:#1a2e35;stroke-width:1;stroke-linecap:round;stroke-linejoin:round;stroke-miterlimit:10;stroke-dasharray:none;stroke-opacity:1"
         id="path150" /></g><path
       d="M 566.349,164.778 H 385.861 v 101.979 h 180.488 z"
       style="fill:none;stroke:#1a2e35;stroke-width:1;stroke-linecap:round;stroke-linejoin:round;stroke-miterlimit:10;stroke-dasharray:none;stroke-opacity:1"
       id="path152" /><path
       d="M 566.349,164.778 H 385.861 v 12.259 h 180.488 z"
       style="fill:none;stroke:#1a2e35;stroke-width:1;stroke-linecap:round;stroke-linejoin:round;stroke-miterlimit:10;stroke-dasharray:none;stroke-opacity:1"
       id="path154" /><path
       d="M 566.349,169.266 H 385.861 v 3.284 h 180.488 z"
       style="fill:none;stroke:#1a2e35;stroke-width:1;stroke-linecap:round;stroke-linejoin:round;stroke-miterlimit:10;stroke-dasharray:none;stroke-opacity:1"
       id="path156" /><g
       id="g158"><g
         id="g160"
         clip-path="url(#clipPath164)"><g
           id="g166"
           transform="translate(496.1484,221.0273)"><path
             d="m 0,0 c 0,10.535 -8.54,19.076 -19.076,19.076 -10.535,0 -19.075,-8.541 -19.075,-19.076 0,-10.535 8.54,-19.076 19.075,-19.076 C -8.54,-19.076 0,-10.535 0,0 Z"
             style="fill:none;stroke:#1a2e35;stroke-width:1;stroke-linecap:round;stroke-linejoin:round;stroke-miterlimit:10;stroke-dasharray:none;stroke-opacity:1"
             id="path168" /></g><g
           id="g170"
           transform="translate(491.7334,220.9463)"><path
             d="M 0,0 -24.553,14.176 V -14.176 Z"
             style="fill:none;stroke:#1a2e35;stroke-width:1;stroke-linecap:round;stroke-linejoin:round;stroke-miterlimit:10;stroke-dasharray:none;stroke-opacity:1"
             id="path172" /></g></g></g><path
       d="M 566.193,277.062 H 386.164 v 85.201 h 180.029 z"
       style="fill:none;stroke:#1a2e35;stroke-width:1;stroke-linecap:round;stroke-linejoin:round;stroke-miterlimit:10;stroke-dasharray:none;stroke-opacity:1"
       id="path174" /><g
       id="g176"
       transform="translate(386.1641,277.0625)"><path
         d="m 0,0 64.978,50.67 35.17,-19.671 41.729,36.959 38.152,-24.441"
         style="fill:none;stroke:#1a2e35;stroke-width:1;stroke-linecap:round;stroke-linejoin:round;stroke-miterlimit:10;stroke-dasharray:none;stroke-opacity:1"
         id="path178" /></g><g
       id="g180"><g
         id="g182"
         clip-path="url(#clipPath186)"><g
           id="g188"
           transform="translate(423.124,338.4634)"><path
             d="m 0,0 c 0,7.243 -5.872,13.115 -13.115,13.115 -7.243,0 -13.114,-5.872 -13.114,-13.115 0,-7.243 5.871,-13.115 13.114,-13.115 C -5.872,-13.115 0,-7.243 0,0 Z"
             style="fill:none;stroke:#1a2e35;stroke-width:1;stroke-linecap:round;stroke-linejoin:round;stroke-miterlimit:10;stroke-dasharray:none;stroke-opacity:1"
             id="path190" /></g></g></g><path
       d="M 213.885,262.756 H 200.77 v -95.38 h 13.115 z"
       style="fill:none;stroke:#1a2e35;stroke-width:1;stroke-linecap:round;stroke-linejoin:round;stroke-miterlimit:10;stroke-dasharray:none;stroke-opacity:1"
       id="path192" /><path
       d="M 232.96,219.835 H 219.845 V 167.376 H 232.96 Z"
       style="fill:none;stroke:#1a2e35;stroke-width:1;stroke-linecap:round;stroke-linejoin:round;stroke-miterlimit:10;stroke-dasharray:none;stroke-opacity:1"
       id="path194" /><path
       d="m 252.037,204.932 h -13.115 v -37.556 h 13.115 z"
       style="fill:none;stroke:#1a2e35;stroke-width:1;stroke-linecap:round;stroke-linejoin:round;stroke-miterlimit:10;stroke-dasharray:none;stroke-opacity:1"
       id="path196" /><path
       d="m 271.112,234.738 h -13.115 v -67.362 h 13.115 z"
       style="fill:none;stroke:#1a2e35;stroke-width:1;stroke-linecap:round;stroke-linejoin:round;stroke-miterlimit:10;stroke-dasharray:none;stroke-opacity:1"
       id="path198" /><path
       d="m 290.188,228.181 h -13.115 v -60.805 h 13.115 z"
       style="fill:none;stroke:#1a2e35;stroke-width:1;stroke-linecap:round;stroke-linejoin:round;stroke-miterlimit:10;stroke-dasharray:none;stroke-opacity:1"
       id="path200" /><path
       d="m 309.264,180.491 h -13.115 v -13.115 h 13.115 z"
       style="fill:none;stroke:#1a2e35;stroke-width:1;stroke-linecap:round;stroke-linejoin:round;stroke-miterlimit:10;stroke-dasharray:none;stroke-opacity:1"
       id="path202" /><g
       id="g204"
       transform="translate(317.6099,255.6025)"><path
         d="M 0,0 H 37.556"
         style="fill:none;stroke:#1a2e35;stroke-width:1;stroke-linecap:round;stroke-linejoin:round;stroke-miterlimit:10;stroke-dasharray:none;stroke-opacity:1"
         id="path206" /></g><g
       id="g208"
       transform="translate(317.6099,243.084)"><path
         d="M 0,0 H 37.556"
         style="fill:none;stroke:#1a2e35;stroke-width:1;stroke-linecap:round;stroke-linejoin:round;stroke-miterlimit:10;stroke-dasharray:none;stroke-opacity:1"
         id="path210" /></g><g
       id="g212"
       transform="translate(317.6099,230.5654)"><path
         d="M 0,0 H 37.556"
         style="fill:none;stroke:#1a2e35;stroke-width:1;stroke-linecap:round;stroke-linejoin:round;stroke-miterlimit:10;stroke-dasharray:none;stroke-opacity:1"
         id="path214" /></g><g
       id="g216"
       transform="translate(317.6099,218.0469)"><path
         d="M 0,0 H 37.556"
         style="fill:none;stroke:#1a2e35;stroke-width:1;stroke-linecap:round;stroke-linejoin:round;stroke-miterlimit:10;stroke-dasharray:none;stroke-opacity:1"
         id="path218" /></g><g
       id="g220"
       transform="translate(317.6099,205.5283)"><path
         d="M 0,0 H 37.556"
         style="fill:none;stroke:#1a2e35;stroke-width:1;stroke-linecap:round;stroke-linejoin:round;stroke-miterlimit:10;stroke-dasharray:none;stroke-opacity:1"
         id="path222" /></g><g
       id="g224"
       transform="translate(317.6099,193.0098)"><path
         d="M 0,0 H 37.556"
         style="fill:none;stroke:#1a2e35;stroke-width:1;stroke-linecap:round;stroke-linejoin:round;stroke-miterlimit:10;stroke-dasharray:none;stroke-opacity:1"
         id="path226" /></g><g
       id="g228"
       transform="translate(317.6099,180.4912)"><path
         d="M 0,0 H 37.556"
         style="fill:none;stroke:#1a2e35;stroke-width:1;stroke-linecap:round;stroke-linejoin:round;stroke-miterlimit:10;stroke-dasharray:none;stroke-opacity:1"
         id="path230" /></g><g
       id="g232"
       transform="translate(317.6099,167.9727)"><path
         d="M 0,0 H 37.556"
         style="fill:none;stroke:#1a2e35;stroke-width:1;stroke-linecap:round;stroke-linejoin:round;stroke-miterlimit:10;stroke-dasharray:none;stroke-opacity:1"
         id="path234" /></g><g
       id="g236"
       transform="translate(207.5088,306.3169)"><path
         d="m 0,0 -8.182,50.209 h 5.827 l 5.393,-36.076 6.756,35.89 h 4.959 l 6.819,-36.076 5.268,36.262 h 5.703 L 24.485,0 H 19.402 L 12.397,37.192 5.331,0 Z"
         style="fill:#1a2e35;fill-opacity:1;fill-rule:nonzero;stroke:none"
         id="path238" /></g><g
       id="g240"
       transform="translate(253.8237,353.9155)"><path
         d="M 0,0 H 103.994"
         style="fill:none;stroke:#1a2e35;stroke-width:1;stroke-linecap:round;stroke-linejoin:round;stroke-miterlimit:10;stroke-dasharray:none;stroke-opacity:1"
         id="path242" /></g><g
       id="g244"
       transform="translate(253.8237,342.8857)"><path
         d="M 0,0 H 103.994"
         style="fill:none;stroke:#1a2e35;stroke-width:1;stroke-linecap:round;stroke-linejoin:round;stroke-miterlimit:10;stroke-dasharray:none;stroke-opacity:1"
         id="path246" /></g><g
       id="g248"
       transform="translate(253.8237,331.856)"><path
         d="M 0,0 H 103.994"
         style="fill:none;stroke:#1a2e35;stroke-width:1;stroke-linecap:round;stroke-linejoin:round;stroke-miterlimit:10;stroke-dasharray:none;stroke-opacity:1"
         id="path250" /></g><g
       id="g252"
       transform="translate(253.8237,320.8267)"><path
         d="M 0,0 H 103.994"
         style="fill:none;stroke:#1a2e35;stroke-width:1;stroke-linecap:round;stroke-linejoin:round;stroke-miterlimit:10;stroke-dasharray:none;stroke-opacity:1"
         id="path254" /></g><g
       id="g256"
       transform="translate(253.8237,309.7969)"><path
         d="M 0,0 H 103.994"
         style="fill:none;stroke:#1a2e35;stroke-width:1;stroke-linecap:round;stroke-linejoin:round;stroke-miterlimit:10;stroke-dasharray:none;stroke-opacity:1"
         id="path258" /></g><g
       id="g260"><g
         id="g262"
         clip-path="url(#clipPath266)"><g
           id="g268"
           transform="translate(580.3164,288.9854)"><path
             d="m 0,0 h -60.438 c -3.379,0 -6.144,-3.399 -6.144,-7.555 v -40.33 c 0,-4.155 2.765,-7.554 6.144,-7.554 h 14.479 l -9.472,-20.865 25.257,20.865 H 0 c 3.38,0 6.145,3.399 6.145,7.554 v 40.33 C 6.145,-3.399 3.38,0 0,0"
             style="fill:#1a2e35;fill-opacity:1;fill-rule:nonzero;stroke:none"
             id="path270" /></g><g
           id="g272"
           transform="translate(580.3164,288.9854)"><path
             d="m 0,0 h -60.438 c -3.379,0 -6.144,-3.399 -6.144,-7.555 v -40.33 c 0,-4.155 2.765,-7.554 6.144,-7.554 h 14.479 l -9.472,-20.865 25.257,20.865 H 0 c 3.38,0 6.145,3.399 6.145,7.554 v 40.33 C 6.145,-3.399 3.38,0 0,0 Z"
             style="fill:none;stroke:#1a2e35;stroke-width:1;stroke-linecap:round;stroke-linejoin:round;stroke-miterlimit:10;stroke-dasharray:none;stroke-opacity:1"
             id="path274" /></g><g
           id="g276"
           transform="translate(539.6221,248.4785)"><path
             d="m 0,0 -12.715,8.98 v 4.757 L 0,22.807 V 18.005 L -9.113,11.381 0,4.757 Z"
             style="fill:#5ae4a7;fill-opacity:1;fill-rule:nonzero;stroke:none"
             id="path278" /></g><g
           id="g280"
           transform="translate(543.4883,246.8779)"><path
             d="m 0,0 9.692,36.011 h 4.134 L 4.091,0 Z"
             style="fill:#5ae4a7;fill-opacity:1;fill-rule:nonzero;stroke:none"
             id="path282" /></g><g
           id="g284"
           transform="translate(561.1836,248.4785)"><path
             d="M 0,0 V 4.757 L 9.157,11.425 0,18.005 v 4.802 L 12.759,13.782 V 9.025 Z"
             style="fill:#5ae4a7;fill-opacity:1;fill-rule:nonzero;stroke:none"
             id="path286" /></g></g></g><g
       id="g288"><g
         id="g290"
         clip-path="url(#clipPath294)"><g
           id="g296"
           transform="translate(576.3848,424.1538)"><path
             d="m 0,0 h -60.438 c -3.38,0 -6.145,-3.399 -6.145,-7.554 v -40.331 c 0,-4.155 2.765,-7.554 6.145,-7.554 h 14.478 l -9.472,-20.865 25.258,20.865 H 0 c 3.379,0 6.144,3.399 6.144,7.554 V -7.554 C 6.144,-3.399 3.379,0 0,0"
             style="fill:#1a2e35;fill-opacity:1;fill-rule:nonzero;stroke:none"
             id="path298" /></g><g
           id="g300"
           transform="translate(576.3848,424.1538)"><path
             d="m 0,0 h -60.438 c -3.38,0 -6.145,-3.399 -6.145,-7.554 v -40.331 c 0,-4.155 2.765,-7.554 6.145,-7.554 h 14.478 l -9.472,-20.865 25.258,20.865 H 0 c 3.379,0 6.144,3.399 6.144,7.554 V -7.554 C 6.144,-3.399 3.379,0 0,0 Z"
             style="fill:none;stroke:#1a2e35;stroke-width:1;stroke-linecap:round;stroke-linejoin:round;stroke-miterlimit:10;stroke-dasharray:none;stroke-opacity:1"
             id="path302" /></g><g
           id="g304"
           transform="translate(535.6895,383.647)"><path
             d="m 0,0 -12.715,8.98 v 4.758 L 0,22.807 V 18.005 L -9.113,11.381 0,4.757 Z"
             style="fill:#5ae4a7;fill-opacity:1;fill-rule:nonzero;stroke:none"
             id="path306" /></g><g
           id="g308"
           transform="translate(539.5557,382.0464)"><path
             d="m 0,0 9.692,36.011 h 4.134 L 4.091,0 Z"
             style="fill:#5ae4a7;fill-opacity:1;fill-rule:nonzero;stroke:none"
             id="path310" /></g><g
           id="g312"
           transform="translate(557.251,383.647)"><path
             d="M 0,0 V 4.757 L 9.157,11.425 0,18.005 v 4.802 L 12.759,13.782 V 9.025 Z"
             style="fill:#5ae4a7;fill-opacity:1;fill-rule:nonzero;stroke:none"
             id="path314" /></g></g></g><g
       id="g316"><g
         id="g318"
         clip-path="url(#clipPath322)"><g
           id="g324"
           transform="translate(338.8872,319.9834)"><path
             d="m 0,0 h -60.438 c -3.379,0 -6.145,-3.399 -6.145,-7.554 v -40.331 c 0,-4.155 2.766,-7.554 6.145,-7.554 h 14.479 l -9.472,-20.865 25.257,20.865 H 0 c 3.379,0 6.145,3.399 6.145,7.554 V -7.554 C 6.145,-3.399 3.379,0 0,0"
             style="fill:#1a2e35;fill-opacity:1;fill-rule:nonzero;stroke:none"
             id="path326" /></g><g
           id="g328"
           transform="translate(338.8872,319.9834)"><path
             d="m 0,0 h -60.438 c -3.379,0 -6.145,-3.399 -6.145,-7.554 v -40.331 c 0,-4.155 2.766,-7.554 6.145,-7.554 h 14.479 l -9.472,-20.865 25.257,20.865 H 0 c 3.379,0 6.145,3.399 6.145,7.554 V -7.554 C 6.145,-3.399 3.379,0 0,0 Z"
             style="fill:none;stroke:#1a2e35;stroke-width:1;stroke-linecap:round;stroke-linejoin:round;stroke-miterlimit:10;stroke-dasharray:none;stroke-opacity:1"
             id="path330" /></g><g
           id="g332"
           transform="translate(298.1919,279.4766)"><path
             d="m 0,0 -12.714,8.98 v 4.757 L 0,22.807 V 18.005 L -9.113,11.381 0,4.757 Z"
             style="fill:#5ae4a7;fill-opacity:1;fill-rule:nonzero;stroke:none"
             id="path334" /></g><g
           id="g336"
           transform="translate(302.0586,277.876)"><path
             d="m 0,0 9.692,36.011 h 4.134 L 4.091,0 Z"
             style="fill:#5ae4a7;fill-opacity:1;fill-rule:nonzero;stroke:none"
             id="path338" /></g><g
           id="g340"
           transform="translate(319.7539,279.4766)"><path
             d="M 0,0 V 4.757 L 9.158,11.425 0,18.005 v 4.802 L 12.759,13.782 V 9.025 Z"
             style="fill:#5ae4a7;fill-opacity:1;fill-rule:nonzero;stroke:none"
             id="path342" /></g></g></g><g
       id="g344"><g
         id="g346"
         clip-path="url(#clipPath350)"><g
           id="g352"
           transform="translate(189.9399,114.9209)"><path
             d="m 0,0 c -0.045,0 -0.091,0.002 -0.137,0.006 -0.58,0.053 -5.698,0.612 -6.828,4.003 -0.876,2.628 -0.899,9.995 1.146,12.332 1.866,2.132 4.748,1.1 6.01,0.26 0.69,-0.46 0.876,-1.391 0.416,-2.08 C 0.149,13.834 -0.777,13.646 -1.466,14.1 -1.5,14.122 -2.978,15.027 -3.561,14.365 -4.536,13.251 -4.891,7.272 -4.12,4.958 -3.753,3.858 -1.363,3.136 0.137,2.993 0.96,2.916 1.567,2.186 1.491,1.361 1.418,0.584 0.766,0 0,0"
             style="fill:#1a2e35;fill-opacity:1;fill-rule:nonzero;stroke:none"
             id="path354" /></g><path
           d="m 207.087,133.955 h -18.001 v -22.106 h 18.001 z"
           style="fill:#1a2e35;fill-opacity:1;fill-rule:nonzero;stroke:#1a2e35;stroke-width:1;stroke-linecap:round;stroke-linejoin:round;stroke-miterlimit:10;stroke-dasharray:none;stroke-opacity:1"
           id="path356" /><g
           id="g358"
           transform="translate(193.5371,137.0078)"><path
             d="m 0,0 c 0,0 -1.068,3.632 1.068,7.05 2.137,3.419 6.41,4.059 6.196,10.042"
             style="fill:none;stroke:#1a2e35;stroke-width:1;stroke-linecap:round;stroke-linejoin:round;stroke-miterlimit:10;stroke-dasharray:none;stroke-opacity:1"
             id="path360" /></g><g
           id="g362"
           transform="translate(204.647,146.1943)"><path
             d="m 0,0 c 0,0 -1.068,-1.923 -2.777,-4.06 -1.71,-2.135 -1.496,-5.127 -1.496,-5.127"
             style="fill:none;stroke:#1a2e35;stroke-width:1;stroke-linecap:round;stroke-linejoin:round;stroke-miterlimit:10;stroke-dasharray:none;stroke-opacity:1"
             id="path364" /></g><g
           id="g366"
           transform="translate(206.5698,150.04)"><path
             d="M 0,0 C 0,0 1.282,2.777 0.854,6.623"
             style="fill:none;stroke:#1a2e35;stroke-width:1;stroke-linecap:round;stroke-linejoin:round;stroke-miterlimit:10;stroke-dasharray:none;stroke-opacity:1"
             id="path368" /></g></g></g><g
       id="g370"><g
         id="g372"
         clip-path="url(#clipPath376)"><g
           id="g378"
           transform="translate(145.7163,269.1191)"><path
             d="M 0,0 C 0,0 -0.875,3.831 -3.122,3.56 -5.368,3.29 -4.657,2.547 -6.797,3.118 c -2.14,0.571 -2.565,2.384 -3.619,0.808 -1.053,-1.577 0.933,-2.581 -0.954,-2.394 -1.887,0.187 -2.647,1.339 -3.39,0.628 -0.743,-0.711 -1.078,-1.372 -1.078,-1.372 l -0.31,-0.867 c 0,0 1.004,1.986 3.014,0.777 2.009,-1.208 3.488,-1.444 3.773,-0.374 0.286,1.07 2.785,0.956 2.859,0.344 0.074,-0.613 0.785,-1.356 0.785,-1.356 0,0 -5.538,-0.459 -7.172,-0.656 -1.633,-0.196 -2.826,1.111 -5.178,-10e-4 -2.352,-1.112 -4.296,-2.174 -5.169,-3.522 -0.874,-1.348 1.185,-2.965 0.9,-4.035 -0.286,-1.07 -4.476,-2.402 -4.304,-3.832 0.172,-1.429 2.059,-1.616 0.14,-2.883 -1.919,-1.266 -3.609,-2.713 -3.054,-3.889 0.556,-1.176 1.953,-2.458 1.692,-3.732 -0.261,-1.275 -2.466,-3.611 -1.297,-4.713 1.168,-1.103 1.887,-0.188 1.675,-1.87 -0.212,-1.683 -1.248,-5.121 0.05,-5.587 1.299,-0.465 2.827,-1.11 2.819,-2.768 -0.008,-1.658 -0.268,-2.932 0.875,-3.831 1.144,-0.897 3.823,-0.782 4.118,-3.232 0.295,-2.45 0.597,-3.243 1.692,-3.733 1.095,-0.49 2.809,0.752 3.668,-1.216 0.858,-1.968 3.333,-1.877 4.509,-1.322 1.176,0.556 2.098,1.496 3.186,-0.652 1.087,-2.148 2.36,-2.409 3.945,-1.804 1.584,0.605 3.904,0.263 4.869,-0.864 0.963,-1.127 3.21,-0.857 4.336,0.107 1.127,0.964 1.927,2.925 2.94,1.39 1.014,-1.535 3.456,-2.898 4.33,-1.551 0.874,1.348 1.444,3.488 2.817,2.41 1.372,-1.077 3.365,-0.423 4.059,0.696 0.694,1.119 2.205,2.337 3.888,2.125 1.682,-0.212 3.749,-0.17 3.707,1.896 -0.041,2.067 -0.213,3.495 1.469,3.284 1.683,-0.212 4.231,-0.734 4.19,1.332 -0.042,2.067 -0.189,3.292 1.037,3.44 1.225,0.147 3.094,1.822 2.743,3.022 -0.352,1.201 -1.276,5.44 -0.663,5.514 0.612,0.073 1.437,1.83 0.578,3.798 -0.858,1.968 -1.054,3.601 -0.467,3.88 0.589,0.277 1.135,2.622 -0.287,4.108 -1.421,1.486 -1.977,2.662 -0.85,3.626 1.127,0.964 1.314,2.851 -0.083,4.133 -1.397,1.282 -2.133,2.229 -2.256,3.25 -0.122,1.021 -2.867,3.177 -3.758,3.691 -0.89,0.514 -1.879,1.845 -2.149,4.091 -0.27,2.246 -0.703,2.401 -4.575,3.593 C 19.381,4.196 18.441,5.119 16.864,6.172 15.288,7.225 11.408,6.758 9.873,5.745 8.338,4.732 2.293,5.04 0,0"
             style="fill:#1a2e35;fill-opacity:1;fill-rule:nonzero;stroke:none"
             id="path380" /></g><g
           id="g382"
           transform="translate(145.7163,269.1191)"><path
             d="M 0,0 C 0,0 -0.875,3.831 -3.122,3.56 -5.368,3.29 -4.657,2.547 -6.797,3.118 c -2.14,0.571 -2.565,2.384 -3.619,0.808 -1.053,-1.577 0.933,-2.581 -0.954,-2.394 -1.887,0.187 -2.647,1.339 -3.39,0.628 -0.743,-0.711 -1.078,-1.372 -1.078,-1.372 l -0.31,-0.867 c 0,0 1.004,1.986 3.014,0.777 2.009,-1.208 3.488,-1.444 3.773,-0.374 0.286,1.07 2.785,0.956 2.859,0.344 0.074,-0.613 0.785,-1.356 0.785,-1.356 0,0 -5.538,-0.459 -7.172,-0.656 -1.633,-0.196 -2.826,1.111 -5.178,-10e-4 -2.352,-1.112 -4.296,-2.174 -5.169,-3.522 -0.874,-1.348 1.185,-2.965 0.9,-4.035 -0.286,-1.07 -4.476,-2.402 -4.304,-3.832 0.172,-1.429 2.059,-1.616 0.14,-2.883 -1.919,-1.266 -3.609,-2.713 -3.054,-3.889 0.556,-1.176 1.953,-2.458 1.692,-3.732 -0.261,-1.275 -2.466,-3.611 -1.297,-4.713 1.168,-1.103 1.887,-0.188 1.675,-1.87 -0.212,-1.683 -1.248,-5.121 0.05,-5.587 1.299,-0.465 2.827,-1.11 2.819,-2.768 -0.008,-1.658 -0.268,-2.932 0.875,-3.831 1.144,-0.897 3.823,-0.782 4.118,-3.232 0.295,-2.45 0.597,-3.243 1.692,-3.733 1.095,-0.49 2.809,0.752 3.668,-1.216 0.858,-1.968 3.333,-1.877 4.509,-1.322 1.176,0.556 2.098,1.496 3.186,-0.652 1.087,-2.148 2.36,-2.409 3.945,-1.804 1.584,0.605 3.904,0.263 4.869,-0.864 0.963,-1.127 3.21,-0.857 4.336,0.107 1.127,0.964 1.927,2.925 2.94,1.39 1.014,-1.535 3.456,-2.898 4.33,-1.551 0.874,1.348 1.444,3.488 2.817,2.41 1.372,-1.077 3.365,-0.423 4.059,0.696 0.694,1.119 2.205,2.337 3.888,2.125 1.682,-0.212 3.749,-0.17 3.707,1.896 -0.041,2.067 -0.213,3.495 1.469,3.284 1.683,-0.212 4.231,-0.734 4.19,1.332 -0.042,2.067 -0.189,3.292 1.037,3.44 1.225,0.147 3.094,1.822 2.743,3.022 -0.352,1.201 -1.276,5.44 -0.663,5.514 0.612,0.073 1.437,1.83 0.578,3.798 -0.858,1.968 -1.054,3.601 -0.467,3.88 0.589,0.277 1.135,2.622 -0.287,4.108 -1.421,1.486 -1.977,2.662 -0.85,3.626 1.127,0.964 1.314,2.851 -0.083,4.133 -1.397,1.282 -2.133,2.229 -2.256,3.25 -0.122,1.021 -2.867,3.177 -3.758,3.691 -0.89,0.514 -1.879,1.845 -2.149,4.091 -0.27,2.246 -0.703,2.401 -4.575,3.593 C 19.381,4.196 18.441,5.119 16.864,6.172 15.288,7.225 11.408,6.758 9.873,5.745 8.338,4.732 2.293,5.04 0,0 Z"
             style="fill:none;stroke:#1a2e35;stroke-width:1;stroke-linecap:round;stroke-linejoin:round;stroke-miterlimit:10;stroke-dasharray:none;stroke-opacity:1"
             id="path384" /></g><g
           id="g386"
           transform="translate(104.4858,164.5039)"><path
             d="m 0,0 c 6.609,5.121 20.589,28.33 20.589,28.33 0,0 1.687,-11.852 3.649,-17.512 1.962,-5.658 4.626,-9.368 3.958,-15.87 -0.002,-0.023 -0.057,1.004 -0.061,0.982 l 35.847,-1.052 c -1.096,1.977 -1.798,2.343 -1.962,3.205 -0.582,3.058 2.545,9.822 2.58,12.914 0.034,3.092 2.385,8.989 2.385,8.989 0,0 10.337,-22.913 12.71,-24.841 2.373,-1.928 9.023,-3.001 8.625,4.186 -0.399,7.187 -12.447,34.948 -14.568,39.774 -2.122,4.827 -4.779,8.18 -9.901,7.691 -5.123,-0.49 -6.309,-1.38 -9.8,-1.573 -3.491,-0.195 -1.949,16.576 -1.949,16.576 0,0 -5.499,-4.837 -12.664,-1.939 0,0 0.901,-8.807 -0.594,-11.567 -1.495,-2.761 -2.27,-3.628 -5.841,-2.384 -3.57,1.243 -9.16,5.465 -12.571,3.834 C 17.021,48.112 -6.929,8.267 -8.8,4.867 -10.038,2.62 -13.377,-3.146 -12.378,-4.684 Z"
             style="fill:#ffffff;fill-opacity:1;fill-rule:nonzero;stroke:none"
             id="path388" /></g><g
           id="g390"
           transform="translate(104.4858,164.5039)"><path
             d="m 0,0 c 6.609,5.121 20.589,28.33 20.589,28.33 0,0 1.687,-11.852 3.649,-17.512 1.962,-5.658 4.626,-9.368 3.958,-15.87 -0.002,-0.023 -0.057,1.004 -0.061,0.982 l 35.847,-1.052 c -1.096,1.977 -1.798,2.343 -1.962,3.205 -0.582,3.058 2.545,9.822 2.58,12.914 0.034,3.092 2.385,8.989 2.385,8.989 0,0 10.337,-22.913 12.71,-24.841 2.373,-1.928 9.023,-3.001 8.625,4.186 -0.399,7.187 -12.447,34.948 -14.568,39.774 -2.122,4.827 -4.779,8.18 -9.901,7.691 -5.123,-0.49 -6.309,-1.38 -9.8,-1.573 -3.491,-0.195 -1.949,16.576 -1.949,16.576 0,0 -5.499,-4.837 -12.664,-1.939 0,0 0.901,-8.807 -0.594,-11.567 -1.495,-2.761 -2.27,-3.628 -5.841,-2.384 -3.57,1.243 -9.16,5.465 -12.571,3.834 C 17.021,48.112 -6.929,8.267 -8.8,4.867 -10.038,2.62 -13.377,-3.146 -12.378,-4.684 Z"
             style="fill:none;stroke:#1a2e35;stroke-width:1;stroke-linecap:round;stroke-linejoin:round;stroke-miterlimit:10;stroke-dasharray:none;stroke-opacity:1"
             id="path392" /></g><g
           id="g394"
           transform="translate(132.6816,159.4521)"><path
             d="M 0,0 C 0.035,0.334 0.055,0.657 0.072,0.978 L -0.061,0.981 C -0.057,1.004 -0.002,-0.023 0,0"
             style="fill:#5ae4a7;fill-opacity:1;fill-rule:nonzero;stroke:none"
             id="path396" /></g><g
           id="g398"
           transform="translate(132.6816,159.4521)"><path
             d="M 0,0 C 0.035,0.334 0.055,0.657 0.072,0.978 L -0.061,0.981 C -0.057,1.004 -0.002,-0.023 0,0 Z"
             style="fill:none;stroke:#1a2e35;stroke-width:1;stroke-linecap:round;stroke-linejoin:round;stroke-miterlimit:10;stroke-dasharray:none;stroke-opacity:1"
             id="path400" /></g><g
           id="g402"
           transform="translate(124.9175,214.2471)"><path
             d="m 0,0 c -3.411,-1.631 -27.361,-41.477 -29.232,-44.876 -1.237,-2.247 -4.577,-8.014 -3.578,-9.551 l 12.378,4.684 c 6.61,5.121 20.59,28.33 20.59,28.33 0,0 1.687,-11.853 3.648,-17.512 1.861,-5.367 4.348,-8.986 4.03,-14.892 l 35.715,-1.048 c -1.097,1.977 -1.799,2.343 -1.963,3.205 -0.581,3.057 2.545,9.822 2.58,12.914 0.035,3.092 2.385,8.989 2.385,8.989 0,0 10.338,-22.913 12.71,-24.841 2.373,-1.928 9.024,-3.002 8.625,4.186 -0.398,7.186 -12.447,34.948 -14.568,39.774 -2.121,4.826 -4.779,8.181 -9.901,7.691 -2.515,-0.241 -4.079,-0.577 -5.435,-0.881 L 23.138,-21.902 12.571,-3.834 C 9.001,-2.591 3.411,1.631 0,0"
             style="fill:#1a2e35;fill-opacity:1;fill-rule:nonzero;stroke:none"
             id="path404" /></g><g
           id="g406"
           transform="translate(124.9175,214.2471)"><path
             d="m 0,0 c -3.411,-1.631 -27.361,-41.477 -29.232,-44.876 -1.237,-2.247 -4.577,-8.014 -3.578,-9.551 l 12.378,4.684 c 6.61,5.121 20.59,28.33 20.59,28.33 0,0 1.687,-11.853 3.648,-17.512 1.861,-5.367 4.348,-8.986 4.03,-14.892 l 35.715,-1.048 c -1.097,1.977 -1.799,2.343 -1.963,3.205 -0.581,3.057 2.545,9.822 2.58,12.914 0.035,3.092 2.385,8.989 2.385,8.989 0,0 10.338,-22.913 12.71,-24.841 2.373,-1.928 9.024,-3.002 8.625,4.186 -0.398,7.186 -12.447,34.948 -14.568,39.774 -2.121,4.826 -4.779,8.181 -9.901,7.691 -2.515,-0.241 -4.079,-0.577 -5.435,-0.881 L 23.138,-21.902 12.571,-3.834 C 9.001,-2.591 3.411,1.631 0,0 Z"
             style="fill:none;stroke:#1a2e35;stroke-width:1;stroke-linecap:round;stroke-linejoin:round;stroke-miterlimit:10;stroke-dasharray:none;stroke-opacity:1"
             id="path408" /></g><g
           id="g410"
           transform="translate(133.0806,162.209)"><path
             d="m 0,0 c 0,0 -18.915,-16.346 -19.343,-31.742 -0.149,-5.339 0.874,-17.268 9.985,-18.525 9.111,-1.256 49.571,0 49.571,0 0,0 3.141,0.943 5.027,11.624 1.885,10.682 -11.939,38.014 -11.939,38.014 z"
             style="fill:#1a2e35;fill-opacity:1;fill-rule:nonzero;stroke:none"
             id="path412" /></g><g
           id="g414"
           transform="translate(133.0806,162.209)"><path
             d="m 0,0 c 0,0 -18.915,-16.346 -19.343,-31.742 -0.149,-5.339 0.874,-17.268 9.985,-18.525 9.111,-1.256 49.571,0 49.571,0 0,0 3.141,0.943 5.027,11.624 1.885,10.682 -11.939,38.014 -11.939,38.014 z"
             style="fill:none;stroke:#1a2e35;stroke-width:1;stroke-linecap:round;stroke-linejoin:round;stroke-miterlimit:10;stroke-dasharray:none;stroke-opacity:1"
             id="path416" /></g><g
           id="g418"
           transform="translate(146.9697,155.7021)"><path
             d="m 0,0 c 0,0 -3.446,-4.281 -3.968,-4.49 -0.522,-0.209 -1.149,-1.88 -2.298,-4.386 -1.149,-2.507 -0.835,-2.716 0.522,-2.089 1.358,0.627 2.716,3.446 2.716,3.446 l 2.611,1.671 c 0,0 2.61,6.579 0.417,5.848"
             style="fill:#ffffff;fill-opacity:1;fill-rule:nonzero;stroke:none"
             id="path420" /></g><g
           id="g422"
           transform="translate(146.9697,155.7021)"><path
             d="m 0,0 c 0,0 -3.446,-4.281 -3.968,-4.49 -0.522,-0.209 -1.149,-1.88 -2.298,-4.386 -1.149,-2.507 -0.835,-2.716 0.522,-2.089 1.358,0.627 2.716,3.446 2.716,3.446 l 2.611,1.671 c 0,0 2.61,6.579 0.417,5.848 z"
             style="fill:none;stroke:#1a2e35;stroke-width:1;stroke-linecap:round;stroke-linejoin:round;stroke-miterlimit:10;stroke-dasharray:none;stroke-opacity:1"
             id="path424" /></g><g
           id="g426"
           transform="translate(182.3774,167.1748)"><path
             d="m 0,0 c 0,0 -3.232,-4.372 -10.742,-7.711 -7.509,-3.34 -14.8,-2.347 -18.909,-2.529 -4.109,-0.183 -4.726,0.737 -6.474,-2.552 -1.748,-3.289 -0.194,-12.319 0.656,-12.899 0.849,-0.58 0.952,3.583 0.952,3.583 0,0 0.754,-4.001 1.952,-4.072 1.196,-0.07 1.577,3.406 1.577,3.406 0,0 1.057,-2.465 2.03,-2.134 0.974,0.332 0.774,2.958 0.774,2.958 0,0 1.181,-1.553 1.761,-0.704 0.58,0.849 -0.817,6.013 -0.817,6.013 0,0 5.323,-0.872 7.27,-0.21 1.947,0.664 2.991,2.193 2.991,2.193 0,0 9.686,-0.036 15.572,0.926 5.886,0.961 14.054,7.088 12.157,10.875 C 8.852,0.929 2.616,1.781 2.616,1.781"
             style="fill:#ffffff;fill-opacity:1;fill-rule:nonzero;stroke:#1a2e35;stroke-width:1;stroke-linecap:round;stroke-linejoin:round;stroke-miterlimit:10;stroke-dasharray:none;stroke-opacity:1"
             id="path428" /></g><g
           id="g430"
           transform="translate(154.1938,145.2246)"><path
             d="M 0,0 C 0,0 -1.935,5.555 -1.169,7.771"
             style="fill:none;stroke:#1a2e35;stroke-width:1;stroke-linecap:round;stroke-linejoin:round;stroke-miterlimit:10;stroke-dasharray:none;stroke-opacity:1"
             id="path432" /></g><g
           id="g434"
           transform="translate(151.3896,144.4004)"><path
             d="M 0,0 C 0,0 -1.31,5.376 -1.045,8.682"
             style="fill:none;stroke:#1a2e35;stroke-width:1;stroke-linecap:round;stroke-linejoin:round;stroke-miterlimit:10;stroke-dasharray:none;stroke-opacity:1"
             id="path436" /></g><g
           id="g438"
           transform="translate(147.8604,145.0664)"><path
             d="M 0,0 C 0,0 -0.961,5.887 -0.32,7.191"
             style="fill:none;stroke:#1a2e35;stroke-width:1;stroke-linecap:round;stroke-linejoin:round;stroke-miterlimit:10;stroke-dasharray:none;stroke-opacity:1"
             id="path440" /></g><g
           id="g442"
           transform="translate(182.3774,167.1748)"><path
             d="m 0,0 c 0,0 -1.705,-2.293 -5.49,-4.824 2.005,-1.508 4.079,-4.152 4.782,-8.77 5.81,1.3 13.281,7.098 11.458,10.737 C 8.852,0.929 2.616,1.781 2.616,1.781"
             style="fill:#1a2e35;fill-opacity:1;fill-rule:nonzero;stroke:#1a2e35;stroke-width:1;stroke-linecap:round;stroke-linejoin:round;stroke-miterlimit:10;stroke-dasharray:none;stroke-opacity:1"
             id="path444" /></g><g
           id="g446"
           transform="translate(123.3604,179.417)"><path
             d="M 0,0 C 0,0 2.108,0.48 4.333,1.508 6.558,2.534 8.098,4.76 8.783,3.903 9.467,3.048 8.972,1.484 7.679,0.384 6.387,-0.718 2.622,-2.6 2.622,-2.6 2.622,-2.6 -1.439,-1.813 0,0"
             style="fill:#ffffff;fill-opacity:1;fill-rule:nonzero;stroke:none"
             id="path448" /></g><g
           id="g450"
           transform="translate(123.3604,179.417)"><path
             d="M 0,0 C 0,0 2.108,0.48 4.333,1.508 6.558,2.534 8.098,4.76 8.783,3.903 9.467,3.048 8.972,1.484 7.679,0.384 6.387,-0.718 2.622,-2.6 2.622,-2.6 2.622,-2.6 -1.439,-1.813 0,0 Z"
             style="fill:none;stroke:#1a2e35;stroke-width:1;stroke-linecap:round;stroke-linejoin:round;stroke-miterlimit:10;stroke-dasharray:none;stroke-opacity:1"
             id="path452" /></g><g
           id="g454"
           transform="translate(113.9824,170.6152)"><path
             d="M 0,0 C 0,0 5.093,13.532 7.421,13.578 9.75,13.623 20.736,11.664 20.214,10.567 19.692,9.47 18.378,9.134 17.057,9.186 c -1.321,0.051 -6.239,1.43 -6.239,1.43 L 9.378,8.802 c 0,0 5.076,-1.453 5.859,-1.826 0.784,-0.373 3.793,-3.342 3.039,-4.522 -0.753,-1.18 -1.074,-0.642 -1.074,-0.642 0,0 0.411,-1.157 -0.037,-2.097 -0.447,-0.941 -0.917,-0.717 -0.917,-0.717 -0.1,-1.041 -1.164,-1.702 -2.14,-1.326 -1.143,0.441 -1.159,2.611 -2.565,2.436 -1.588,-0.198 -1.841,0.081 -1.841,0.081 0,0 -2.82,-2.694 -4.812,-4.053 -1.993,-1.36 -4.477,-1.33 -4.477,-1.33 0,0 -9.368,-7.89 -17.297,-8.88 -8.828,-1.103 -5.829,8.395 -1.413,12.83 C -13.88,3.19 0,0 0,0"
             style="fill:#ffffff;fill-opacity:1;fill-rule:nonzero;stroke:none"
             id="path456" /></g><g
           id="g458"
           transform="translate(113.9824,170.6152)"><path
             d="M 0,0 C 0,0 5.093,13.532 7.421,13.578 9.75,13.623 20.736,11.664 20.214,10.567 19.692,9.47 18.378,9.134 17.057,9.186 c -1.321,0.051 -6.239,1.43 -6.239,1.43 L 9.378,8.802 c 0,0 5.076,-1.453 5.859,-1.826 0.784,-0.373 3.793,-3.342 3.039,-4.522 -0.753,-1.18 -1.074,-0.642 -1.074,-0.642 0,0 0.411,-1.157 -0.037,-2.097 -0.447,-0.941 -0.917,-0.717 -0.917,-0.717 -0.1,-1.041 -1.164,-1.702 -2.14,-1.326 -1.143,0.441 -1.159,2.611 -2.565,2.436 -1.588,-0.198 -1.841,0.081 -1.841,0.081 0,0 -2.82,-2.694 -4.812,-4.053 -1.993,-1.36 -4.477,-1.33 -4.477,-1.33 0,0 -9.368,-7.89 -17.297,-8.88 -8.828,-1.103 -5.829,8.395 -1.413,12.83 C -13.88,3.19 0,0 0,0 Z"
             style="fill:none;stroke:#1a2e35;stroke-width:1;stroke-linecap:round;stroke-linejoin:round;stroke-miterlimit:10;stroke-dasharray:none;stroke-opacity:1"
             id="path460" /></g><g
           id="g462"
           transform="translate(131.1841,172.4268)"><path
             d="M 0,0 C 0,0 -1.687,2.771 -2.78,3.292 -3.872,3.812 -7.468,4.35 -7.468,4.35"
             style="fill:none;stroke:#1a2e35;stroke-width:1;stroke-linecap:round;stroke-linejoin:round;stroke-miterlimit:10;stroke-dasharray:none;stroke-opacity:1"
             id="path464" /></g><g
           id="g466"
           transform="translate(130.23,169.6133)"><path
             d="m 0,0 c 0,0 -2.592,3.79 -3.405,3.842 -0.813,0.052 -3.46,0.473 -3.46,0.473"
             style="fill:none;stroke:#1a2e35;stroke-width:1;stroke-linecap:round;stroke-linejoin:round;stroke-miterlimit:10;stroke-dasharray:none;stroke-opacity:1"
             id="path468" /></g><g
           id="g470"
           transform="translate(99.2515,164.3477)"><path
             d="M 0,0 C 0.356,3.082 2.269,5.685 3.843,7.352 0.872,7.232 -1.967,6.629 -3.566,5.023 -7.982,0.589 -10.981,-8.909 -2.153,-7.807 -0.419,-7.59 1.38,-7.033 3.138,-6.312 1.383,-4.86 -0.314,-2.722 0,0"
             style="fill:#1a2e35;fill-opacity:1;fill-rule:nonzero;stroke:none"
             id="path472" /></g><g
           id="g474"
           transform="translate(99.2515,164.3477)"><path
             d="M 0,0 C 0.356,3.082 2.269,5.685 3.843,7.352 0.872,7.232 -1.967,6.629 -3.566,5.023 -7.982,0.589 -10.981,-8.909 -2.153,-7.807 -0.419,-7.59 1.38,-7.033 3.138,-6.312 1.383,-4.86 -0.314,-2.722 0,0 Z"
             style="fill:none;stroke:#1a2e35;stroke-width:1;stroke-linecap:round;stroke-linejoin:round;stroke-miterlimit:10;stroke-dasharray:none;stroke-opacity:1"
             id="path476" /></g><g
           id="g478"
           transform="translate(166.6006,226.623)"><path
             d="m 0,0 c 0.687,-2.999 0.169,-5.676 -1.155,-5.979 -1.324,-0.303 -2.954,1.882 -3.641,4.881 -0.687,2.999 -0.17,5.677 1.154,5.98 C -2.317,5.186 -0.687,3 0,0 Z"
             style="fill:none;stroke:#ffffff;stroke-width:1;stroke-linecap:round;stroke-linejoin:round;stroke-miterlimit:10;stroke-dasharray:none;stroke-opacity:1"
             id="path480" /></g><g
           id="g482"
           transform="translate(139.2388,224.7109)"><path
             d="m 0,0 c -0.031,-2.9 -1.104,-5.241 -2.396,-5.228 -1.292,0.014 -2.315,2.377 -2.284,5.279 0.031,2.901 1.103,5.242 2.396,5.227 C -0.992,5.265 0.031,2.902 0,0 Z"
             style="fill:none;stroke:#ffffff;stroke-width:1;stroke-linecap:round;stroke-linejoin:round;stroke-miterlimit:10;stroke-dasharray:none;stroke-opacity:1"
             id="path484" /></g><g
           id="g486"
           transform="translate(148.4663,251.2114)"><path
             d="m 0,0 c 0,0 -3.008,-0.716 -3.037,-3.015 -0.029,-2.299 0.31,-3.076 -1.446,-3.79 -1.757,-0.713 -2.703,-1.29 -2.429,-2.912 0.274,-1.622 0.985,-2.128 -1.246,-2.505 -2.231,-0.376 -2.065,1.112 -2.534,-1.053 -0.469,-2.165 -0.569,-2.808 -1.38,-2.944 -0.811,-0.137 0.183,-7.269 2.153,-11.526 1.969,-4.255 6.58,-10.569 9.353,-10.935 2.774,-0.366 6.331,2.976 8.813,5.866 2.23,2.597 5.524,10.526 5.524,10.526 l 0.709,0.746 c 0,0 1.25,0.002 1.585,1.727 0,0 -0.241,2.671 -1.595,3.276 -1.354,0.607 -2.744,2.666 -2.847,3.275 -0.102,0.608 0.572,1.556 -0.342,2.027 -0.914,0.472 -2.436,0.841 -2.878,2.227 -0.443,1.385 1.075,3.517 -0.718,4.258 -1.794,0.74 -2.74,0.164 -2.979,1.584 -0.24,1.419 0.535,3.009 -0.819,3.615 C 2.534,1.053 0,0 0,0"
             style="fill:#ffffff;fill-opacity:1;fill-rule:nonzero;stroke:none"
             id="path488" /></g><g
           id="g490"
           transform="translate(148.4663,251.2114)"><path
             d="m 0,0 c 0,0 -3.008,-0.716 -3.037,-3.015 -0.029,-2.299 0.31,-3.076 -1.446,-3.79 -1.757,-0.713 -2.703,-1.29 -2.429,-2.912 0.274,-1.622 0.985,-2.128 -1.246,-2.505 -2.231,-0.376 -2.065,1.112 -2.534,-1.053 -0.469,-2.165 -0.569,-2.808 -1.38,-2.944 -0.811,-0.137 0.183,-7.269 2.153,-11.526 1.969,-4.255 6.58,-10.569 9.353,-10.935 2.774,-0.366 6.331,2.976 8.813,5.866 2.23,2.597 5.524,10.526 5.524,10.526 l 0.709,0.746 c 0,0 1.25,0.002 1.585,1.727 0,0 -0.241,2.671 -1.595,3.276 -1.354,0.607 -2.744,2.666 -2.847,3.275 -0.102,0.608 0.572,1.556 -0.342,2.027 -0.914,0.472 -2.436,0.841 -2.878,2.227 -0.443,1.385 1.075,3.517 -0.718,4.258 -1.794,0.74 -2.74,0.164 -2.979,1.584 -0.24,1.419 0.535,3.009 -0.819,3.615 C 2.534,1.053 0,0 0,0 Z"
             style="fill:none;stroke:#1a2e35;stroke-width:1;stroke-linecap:round;stroke-linejoin:round;stroke-miterlimit:10;stroke-dasharray:none;stroke-opacity:1"
             id="path492" /></g><g
           id="g494"
           transform="translate(144.498,232.4121)"><path
             d="m 0,0 c 0.213,-1.265 -0.036,-2.362 -0.557,-2.45 -0.521,-0.088 -1.116,0.867 -1.33,2.132 -0.214,1.265 0.036,2.363 0.557,2.451 C -0.809,2.221 -0.213,1.266 0,0"
             style="fill:#1a2e35;fill-opacity:1;fill-rule:nonzero;stroke:none"
             id="path496" /></g><g
           id="g498"
           transform="translate(153.792,232.2842)"><path
             d="M 0,0 C -0.014,-1.283 -0.454,-2.319 -0.982,-2.313 -1.51,-2.308 -1.928,-1.263 -1.914,0.021 -1.9,1.304 -1.46,2.339 -0.932,2.334 -0.404,2.328 0.014,1.283 0,0"
             style="fill:#1a2e35;fill-opacity:1;fill-rule:nonzero;stroke:none"
             id="path500" /></g><g
           id="g502"
           transform="translate(145.0342,222.6611)"><path
             d="M 0,0 C 0,0 1.974,-2.637 7.631,-0.019"
             style="fill:none;stroke:#1a2e35;stroke-width:1;stroke-linecap:round;stroke-linejoin:round;stroke-miterlimit:10;stroke-dasharray:none;stroke-opacity:1"
             id="path504" /></g><g
           id="g506"
           transform="translate(139.2104,235.8174)"><path
             d="M 0,0 C 0,0 2.826,2.972 6.2,1.046"
             style="fill:none;stroke:#1a2e35;stroke-width:1;stroke-linecap:round;stroke-linejoin:round;stroke-miterlimit:10;stroke-dasharray:none;stroke-opacity:1"
             id="path508" /></g><g
           id="g510"
           transform="translate(149.8145,237.0518)"><path
             d="M 0,0 C 0,0 3.725,2.569 7.778,-1.737"
             style="fill:none;stroke:#1a2e35;stroke-width:1;stroke-linecap:round;stroke-linejoin:round;stroke-miterlimit:10;stroke-dasharray:none;stroke-opacity:1"
             id="path512" /></g><g
           id="g514"
           transform="translate(146.0806,228.9502)"><path
             d="M 0,0 C 0,0 -0.362,-0.924 -0.277,-1.427 -0.192,-1.931 0.594,-3.522 2.272,-3.24 3.949,-2.957 4.562,-1.474 4,-0.188"
             style="fill:none;stroke:#1a2e35;stroke-width:1;stroke-linecap:round;stroke-linejoin:round;stroke-miterlimit:10;stroke-dasharray:none;stroke-opacity:1"
             id="path516" /></g><g
           id="g518"
           transform="translate(153.1475,138.4014)"><path
             d="m 0,0 c -1.527,-0.233 -3.01,-0.81 -4.346,-1.787 -5.857,-4.29 -4.35,-13.975 -4.552,-20.389 -0.254,-8.063 -0.512,-16.126 -0.778,-24.188 -0.392,-11.854 -0.569,-23.749 -1.331,-35.587 -0.585,-9.077 -3.139,-23.223 -1.19,-32.876 1.95,-9.653 7.024,-7.534 9.735,1.377 2.711,8.911 -1.028,26.255 -1.35,30.18 -0.25,3.054 13.779,49.34 17.544,70.298 C 15.125,-5.218 7.089,1.084 0,0"
             style="fill:#ffffff;fill-opacity:1;fill-rule:nonzero;stroke:none"
             id="path520" /></g><g
           id="g522"
           transform="translate(153.1475,138.4014)"><path
             d="m 0,0 c -1.527,-0.233 -3.01,-0.81 -4.346,-1.787 -5.857,-4.29 -4.35,-13.975 -4.552,-20.389 -0.254,-8.063 -0.512,-16.126 -0.778,-24.188 -0.392,-11.854 -0.569,-23.749 -1.331,-35.587 -0.585,-9.077 -3.139,-23.223 -1.19,-32.876 1.95,-9.653 7.024,-7.534 9.735,1.377 2.711,8.911 -1.028,26.255 -1.35,30.18 -0.25,3.054 13.779,49.34 17.544,70.298 C 15.125,-5.218 7.089,1.084 0,0 Z"
             style="fill:none;stroke:#1a2e35;stroke-width:1;stroke-linecap:round;stroke-linejoin:round;stroke-miterlimit:10;stroke-dasharray:none;stroke-opacity:1"
             id="path524" /></g><g
           id="g526"
           transform="translate(146.0361,34.6904)"><path
             d="M 0,0 C -2.578,0.585 -4.281,3.77 -5.336,6.759 -5.88,0.49 -6.128,-5.954 -5.085,-11.116 -3.136,-20.77 1.938,-18.65 4.649,-9.739 5.671,-6.379 5.775,-1.82 5.493,2.766 4.139,0.922 2.308,-0.525 0,0"
             style="fill:#1a2e35;fill-opacity:1;fill-rule:nonzero;stroke:none"
             id="path528" /></g><g
           id="g530"
           transform="translate(146.0361,34.6904)"><path
             d="M 0,0 C -2.578,0.585 -4.281,3.77 -5.336,6.759 -5.88,0.49 -6.128,-5.954 -5.085,-11.116 -3.136,-20.77 1.938,-18.65 4.649,-9.739 5.671,-6.379 5.775,-1.82 5.493,2.766 4.139,0.922 2.308,-0.525 0,0 Z"
             style="fill:none;stroke:#1a2e35;stroke-width:1;stroke-linecap:round;stroke-linejoin:round;stroke-miterlimit:10;stroke-dasharray:none;stroke-opacity:1"
             id="path532" /></g><g
           id="g534"
           transform="translate(129.4258,139.123)"><path
             d="m 0,0 c 1.544,0.053 3.108,-0.24 4.601,-0.955 6.548,-3.136 6.855,-12.931 8.237,-19.198 1.737,-7.878 3.479,-15.754 5.228,-23.629 2.572,-11.578 4.941,-23.238 7.875,-34.731 2.25,-8.813 7.371,-22.245 7.236,-32.091 -0.135,-9.848 -5.513,-8.701 -9.822,-0.444 -4.308,8.258 -3.834,25.994 -4.242,29.912 -0.318,3.048 -22.648,45.949 -30.216,65.853 C -13.902,-7.92 -7.167,-0.243 0,0"
             style="fill:#ffffff;fill-opacity:1;fill-rule:nonzero;stroke:none"
             id="path536" /></g><g
           id="g538"
           transform="translate(129.4258,139.123)"><path
             d="m 0,0 c 1.544,0.053 3.108,-0.24 4.601,-0.955 6.548,-3.136 6.855,-12.931 8.237,-19.198 1.737,-7.878 3.479,-15.754 5.228,-23.629 2.572,-11.578 4.941,-23.238 7.875,-34.731 2.25,-8.813 7.371,-22.245 7.236,-32.091 -0.135,-9.848 -5.513,-8.701 -9.822,-0.444 -4.308,8.258 -3.834,25.994 -4.242,29.912 -0.318,3.048 -22.648,45.949 -30.216,65.853 C -13.902,-7.92 -7.167,-0.243 0,0 Z"
             style="fill:none;stroke:#1a2e35;stroke-width:1;stroke-linecap:round;stroke-linejoin:round;stroke-miterlimit:10;stroke-dasharray:none;stroke-opacity:1"
             id="path540" /></g><g
           id="g542"
           transform="translate(155.5527,38.5049)"><path
             d="M 0,0 C 2.425,1.052 3.512,4.495 3.998,7.628 5.688,1.567 7.122,-4.721 7.05,-9.986 6.915,-19.834 1.537,-18.687 -2.771,-10.43 -4.396,-7.315 -5.34,-2.854 -5.908,1.705 -4.237,0.144 -2.171,-0.941 0,0"
             style="fill:#1a2e35;fill-opacity:1;fill-rule:nonzero;stroke:none"
             id="path544" /></g><g
           id="g546"
           transform="translate(155.5527,38.5049)"><path
             d="M 0,0 C 2.425,1.052 3.512,4.495 3.998,7.628 5.688,1.567 7.122,-4.721 7.05,-9.986 6.915,-19.834 1.537,-18.687 -2.771,-10.43 -4.396,-7.315 -5.34,-2.854 -5.908,1.705 -4.237,0.144 -2.171,-0.941 0,0 Z"
             style="fill:none;stroke:#1a2e35;stroke-width:1;stroke-linecap:round;stroke-linejoin:round;stroke-miterlimit:10;stroke-dasharray:none;stroke-opacity:1"
             id="path548" /></g><path
           d="m 172.733,139.078 h -61.557 v 38.241 h 61.557 z"
           style="fill:#cacaca;fill-opacity:1;fill-rule:nonzero;stroke:#1a2e35;stroke-width:1;stroke-linecap:round;stroke-linejoin:round;stroke-miterlimit:10;stroke-dasharray:none;stroke-opacity:1"
           id="path550" /><path
           d="m 172.733,137.74 h -61.557 v 2.212 h 61.557 z"
           style="fill:#cacaca;fill-opacity:1;fill-rule:nonzero;stroke:#1a2e35;stroke-width:1;stroke-linecap:round;stroke-linejoin:round;stroke-miterlimit:10;stroke-dasharray:none;stroke-opacity:1"
           id="path552" /></g></g></g></svg>
