<svg width="667" height="667" viewBox="0 0 667 667" fill="none" xmlns="http://www.w3.org/2000/svg">
<path d="M609.333 304.245C609.333 304.245 601.333 172.063 496 107.825C446.755 77.7928 386.1 58.8328 326.148 58.6675C266.665 58.5035 204.111 79.5155 174.733 130.341C155.831 163.046 152.964 199.599 143.317 234.837C120.339 318.779 -0.0519667 370.746 30.6054 468.755C39.6467 497.661 62.708 521.507 89.8054 538.103C151.192 575.698 230.083 586.85 302.116 589.303C359.739 591.267 421.876 583.846 474.733 561.827C526.009 540.466 564.989 500.319 587.636 453.109C611.048 404.302 612.447 356.406 609.333 304.245Z" fill="#5AE4A7"/>
<g opacity="0.699997">
<g opacity="0.699997">
<path opacity="0.699997" d="M609.333 304.245C609.333 304.245 601.333 172.063 496 107.825C446.755 77.7928 386.1 58.8328 326.148 58.6675C266.665 58.5035 204.111 79.5155 174.733 130.341C155.831 163.046 152.964 199.599 143.317 234.837C120.339 318.779 -0.0519667 370.746 30.6054 468.755C39.6467 497.661 62.708 521.507 89.8054 538.103C151.192 575.698 230.083 586.85 302.116 589.303C359.739 591.267 421.876 583.846 474.733 561.827C526.009 540.466 564.989 500.319 587.636 453.109C611.048 404.302 612.447 356.406 609.333 304.245Z" fill="white"/>
</g>
</g>
<path d="M597.346 119.172C595.374 109.224 585.15 105.418 577.556 102.086C568.05 97.9164 562.721 94.155 557.854 87.4644C555.562 84.3137 553.373 80.515 550.898 75.7177C543.018 60.4377 529.645 49.2217 514.792 45.4337C502.782 42.3724 488.729 44.867 480.97 56.0684C474.484 65.435 471.644 80.851 461.465 82.495C456.541 83.291 451.845 80.1817 447.524 77.3004C441.408 73.223 435.048 69.3284 428.126 67.8897C421.204 66.451 413.544 67.7924 408.241 73.219C400.413 81.2284 397.941 97.247 387.748 99.5324C379.006 101.491 370.673 91.1537 361.994 93.4657C354.816 95.379 351.365 104.671 346.588 111.256C344.221 114.516 341.352 117.171 338.184 119.172H597.346Z" stroke="#1A2E35" stroke-width="1.33333" stroke-miterlimit="10" stroke-linecap="round" stroke-linejoin="round"/>
<path d="M588.671 163.612C587.891 159.68 583.849 158.174 580.848 156.857C577.089 155.209 574.983 153.722 573.059 151.077C572.152 149.832 571.288 148.33 570.309 146.434C567.195 140.393 561.908 135.96 556.036 134.462C551.289 133.252 545.735 134.238 542.667 138.666C540.101 142.369 538.979 148.464 534.956 149.113C533.011 149.428 531.153 148.198 529.445 147.058C527.028 145.448 524.513 143.908 521.777 143.34C519.04 142.77 516.013 143.301 513.917 145.445C510.821 148.612 509.845 154.945 505.815 155.848C502.36 156.622 499.067 152.536 495.636 153.449C492.797 154.206 491.433 157.88 489.544 160.482C488.609 161.772 487.476 162.82 486.223 163.612H588.671Z" stroke="#1A2E35" stroke-width="1.33333" stroke-miterlimit="10" stroke-linecap="round" stroke-linejoin="round"/>
<path d="M242.361 157.178C241.582 153.246 237.539 151.74 234.538 150.423C230.779 148.775 228.673 147.288 226.75 144.643C225.843 143.398 224.978 141.896 223.999 140C220.885 133.959 215.598 129.526 209.726 128.028C204.979 126.818 199.425 127.804 196.357 132.232C193.793 135.935 192.67 142.03 188.646 142.679C186.701 142.994 184.843 141.764 183.135 140.624C180.718 139.014 178.203 137.474 175.467 136.906C172.731 136.336 169.703 136.867 167.607 139.011C164.513 142.178 163.535 148.511 159.506 149.414C156.05 150.188 152.757 146.102 149.326 147.015C146.487 147.772 145.123 151.446 143.235 154.048C142.299 155.338 141.166 156.386 139.914 157.178H242.361Z" stroke="#1A2E35" stroke-width="1.33333" stroke-miterlimit="10" stroke-linecap="round" stroke-linejoin="round"/>
<path d="M214.079 341.514C212.759 334.857 205.916 332.309 200.833 330.078C194.471 327.287 190.904 324.77 187.647 320.291C186.112 318.183 184.648 315.641 182.992 312.43C177.717 302.203 168.765 294.695 158.824 292.161C150.788 290.111 141.381 291.781 136.188 299.278C131.845 305.547 129.944 315.866 123.132 316.966C119.837 317.498 116.695 315.418 113.801 313.489C109.708 310.761 105.452 308.153 100.819 307.19C96.1854 306.227 91.0588 307.125 87.5094 310.757C82.2708 316.118 80.6161 326.839 73.7934 328.369C67.9428 329.681 62.3654 322.762 56.5561 324.309C51.7508 325.59 49.4414 331.809 46.2441 336.215C44.6614 338.398 42.7401 340.174 40.6201 341.514H214.079Z" stroke="#1A2E35" stroke-width="1.33333" stroke-miterlimit="10" stroke-linecap="round" stroke-linejoin="round"/>
<path d="M226.193 382.51C225.672 379.878 222.967 378.872 220.957 377.989C218.443 376.886 217.032 375.892 215.745 374.121C215.137 373.288 214.559 372.282 213.904 371.014C211.82 366.972 208.281 364.004 204.351 363.001C201.173 362.192 197.456 362.852 195.403 365.816C193.687 368.293 192.935 372.372 190.243 372.808C188.94 373.017 187.697 372.196 186.553 371.432C184.936 370.354 183.252 369.322 181.421 368.942C179.589 368.562 177.563 368.917 176.16 370.353C174.089 372.472 173.436 376.709 170.739 377.314C168.425 377.833 166.221 375.097 163.924 375.709C162.025 376.216 161.112 378.674 159.848 380.417C159.221 381.278 158.463 381.982 157.624 382.51H226.193Z" stroke="#1A2E35" stroke-width="1.33333" stroke-miterlimit="10" stroke-linecap="round" stroke-linejoin="round"/>
</svg>
