<svg width="247" height="366" viewBox="0 0 247 366" fill="none" xmlns="http://www.w3.org/2000/svg">
<path d="M13.8518 354.699C13.8518 354.699 59.2958 359.876 65.6238 359.876C71.9505 359.876 84.6051 360.451 87.4825 359.302C90.3585 358.151 99.5625 351.248 99.5625 351.248L115.093 348.948C115.093 348.948 120.27 346.071 122.572 345.496C124.872 344.92 138.678 346.646 138.678 346.646L162.837 348.948C162.837 348.948 182.97 332.84 185.848 329.39C188.724 325.938 181.82 284.52 181.82 281.644C181.82 278.768 187.573 260.936 188.724 256.335C189.873 251.732 191.024 242.528 191.024 242.528L139.828 248.856C139.828 248.856 127.748 268.99 125.448 274.167C123.146 279.343 123.146 282.22 123.146 285.096C123.146 287.972 122.572 293.15 121.996 297.175C121.421 301.203 115.668 305.804 113.368 306.955C111.066 308.106 99.5625 312.707 99.5625 312.707C99.5625 312.707 97.2611 322.487 97.2611 325.363C97.2611 328.238 98.4105 331.69 98.4105 331.69C98.4105 331.69 88.6318 336.867 85.7558 338.594C82.8798 340.319 72.5251 343.195 65.0478 344.344C57.5705 345.496 40.3131 346.646 33.9851 348.372C27.6571 350.098 13.8518 354.699 13.8518 354.699Z" fill="#1A2E35"/>
<path d="M73.8121 27.8417C73.8121 27.8417 68.2108 33.443 65.9188 41.5923C63.6268 49.739 68.4655 53.3043 72.2841 56.359C76.1041 59.415 75.5948 61.1977 73.5575 64.5083C71.5201 67.8177 73.8121 70.8723 75.8495 71.6363C77.8868 72.4003 80.9415 72.147 79.9228 76.2203C78.9041 80.2937 78.1415 82.5857 80.6868 83.3497C83.2335 84.1137 88.0708 85.6417 86.7975 88.6963C85.5255 91.7523 86.2881 95.8257 88.0708 96.0803C89.8535 96.335 92.1455 94.2977 92.1455 97.099C92.1455 99.899 88.5801 102.191 92.3988 104.483C96.2188 106.775 98.5108 106.266 98.2561 107.538C98.0015 108.812 96.4735 110.339 97.2375 112.376C98.0015 114.414 100.803 114.159 101.057 115.431C101.312 116.704 99.7841 117.723 100.293 120.27C100.803 122.815 101.82 123.07 104.367 123.58C106.913 124.09 106.913 124.09 106.913 126.126C106.913 128.163 106.404 128.418 109.204 128.672C112.005 128.927 114.807 128.163 118.371 125.362C121.936 122.562 125.756 108.812 127.028 103.21C128.301 97.6083 130.847 89.715 127.284 79.7857C123.719 69.855 107.423 38.2817 102.329 32.4257C97.2375 26.5683 89.0895 24.023 83.9975 24.023C78.9041 24.023 73.8121 27.8417 73.8121 27.8417Z" fill="#1A2E35"/>
<path d="M73.8121 27.8417C73.8121 27.8417 68.2108 33.443 65.9188 41.5923C63.6268 49.739 68.4655 53.3043 72.2841 56.359C76.1041 59.415 75.5948 61.1977 73.5575 64.5083C71.5201 67.8177 73.8121 70.8723 75.8495 71.6363C77.8868 72.4003 80.9415 72.147 79.9228 76.2203C78.9041 80.2937 78.1415 82.5857 80.6868 83.3497C83.2335 84.1137 88.0708 85.6417 86.7975 88.6963C85.5255 91.7523 86.2881 95.8257 88.0708 96.0803C89.8535 96.335 92.1455 94.2977 92.1455 97.099C92.1455 99.899 88.5801 102.191 92.3988 104.483C96.2188 106.775 98.5108 106.266 98.2561 107.538C98.0015 108.812 96.4735 110.339 97.2375 112.376C98.0015 114.414 100.803 114.159 101.057 115.431C101.312 116.704 99.7841 117.723 100.293 120.27C100.803 122.815 101.82 123.07 104.367 123.58C106.913 124.09 106.913 124.09 106.913 126.126C106.913 128.163 106.404 128.418 109.204 128.672C112.005 128.927 114.807 128.163 118.371 125.362C121.936 122.562 125.756 108.812 127.028 103.21C128.301 97.6083 130.847 89.715 127.284 79.7857C123.719 69.855 107.423 38.2817 102.329 32.4257C97.2375 26.5683 89.0895 24.023 83.9975 24.023C78.9041 24.023 73.8121 27.8417 73.8121 27.8417Z" stroke="#1A2E35" stroke-width="1.33333" stroke-miterlimit="10"/>
<path d="M111.656 158.865C111.656 158.865 112.085 160.581 108.867 162.511C105.649 164.443 104.576 163.37 104.361 166.159C104.147 168.949 104.147 169.807 103.717 170.45C103.288 171.094 97.9239 173.883 95.5639 174.742C93.2039 175.601 91.2732 177.317 91.2732 177.317L90.8439 185.898C90.8439 185.898 97.0665 185.898 101.143 184.611C105.219 183.325 110.155 182.681 110.155 182.681C110.155 182.681 112.3 184.182 114.66 174.313C117.02 164.443 114.875 156.505 111.656 158.865Z" fill="#818181"/>
<path d="M111.656 158.865C111.656 158.865 112.085 160.581 108.867 162.511C105.649 164.443 104.576 163.37 104.361 166.159C104.147 168.949 104.147 169.807 103.717 170.45C103.288 171.094 97.9239 173.883 95.5639 174.742C93.2039 175.601 91.2732 177.317 91.2732 177.317L90.8439 185.898C90.8439 185.898 97.0665 185.898 101.143 184.611C105.219 183.325 110.155 182.681 110.155 182.681C110.155 182.681 112.3 184.182 114.66 174.313C117.02 164.443 114.875 156.505 111.656 158.865Z" stroke="#1A2E35" stroke-width="1.33333" stroke-miterlimit="10" stroke-linecap="round" stroke-linejoin="round"/>
<path d="M101.357 179.247C101.629 175.445 100.097 173.881 98.9344 173.242C97.6691 173.866 96.4184 174.431 95.5638 174.742C93.2038 175.599 91.2731 177.317 91.2731 177.317L90.8438 185.898C90.8438 185.898 96.1744 185.897 100.201 184.875C100.698 183.587 101.178 181.759 101.357 179.247Z" fill="#AAAAAA"/>
<path d="M101.357 179.247C101.629 175.445 100.097 173.881 98.9344 173.242C97.6691 173.866 96.4184 174.431 95.5638 174.742C93.2038 175.599 91.2731 177.317 91.2731 177.317L90.8438 185.898C90.8438 185.898 96.1744 185.897 100.201 184.875C100.698 183.587 101.178 181.759 101.357 179.247Z" stroke="#1A2E35" stroke-width="1.33333" stroke-miterlimit="10" stroke-linejoin="round"/>
<path d="M109.205 148.023C109.205 148.023 112.006 163.555 107.677 170.939C103.349 178.323 105.641 187.49 107.931 190.546C110.223 193.602 113.025 193.091 114.551 191.054C116.079 189.018 119.899 178.323 119.135 163.81C118.371 149.297 110.733 143.439 109.205 148.023Z" fill="#818181"/>
<path d="M109.205 148.023C109.205 148.023 112.006 163.555 107.677 170.939C103.349 178.323 105.641 187.49 107.931 190.546C110.223 193.602 113.025 193.091 114.551 191.054C116.079 189.018 119.899 178.323 119.135 163.81C118.371 149.297 110.733 143.439 109.205 148.023Z" stroke="#1A2E35" stroke-width="1.33333" stroke-miterlimit="10" stroke-linecap="round" stroke-linejoin="round"/>
<path d="M119.899 94.2979C119.899 94.2979 106.149 131.473 106.404 141.403C106.659 151.333 115.571 160.499 116.08 162.282C116.589 164.065 115.571 177.305 114.043 181.633C112.515 185.962 109.459 194.11 109.459 194.11C109.459 194.11 118.88 200.73 130.593 201.239C142.305 201.749 151.981 198.438 151.981 198.438L157.073 195.129C157.073 195.129 149.689 176.286 145.107 160.754C140.523 145.222 138.487 111.613 138.996 99.8992C139.505 88.1872 140.013 84.1125 135.685 83.8579C131.356 83.6032 121.936 90.7339 119.899 94.2979Z" fill="#5AE4A7"/>
<path d="M119.899 94.2979C119.899 94.2979 106.149 131.473 106.404 141.403C106.659 151.333 115.571 160.499 116.08 162.282C116.589 164.065 115.571 177.305 114.043 181.633C112.515 185.962 109.459 194.11 109.459 194.11C109.459 194.11 118.88 200.73 130.593 201.239C142.305 201.749 151.981 198.438 151.981 198.438L157.073 195.129C157.073 195.129 149.689 176.286 145.107 160.754C140.523 145.222 138.487 111.613 138.996 99.8992C139.505 88.1872 140.013 84.1125 135.685 83.8579C131.356 83.6032 121.936 90.7339 119.899 94.2979Z" stroke="#1A2E35" stroke-width="1.33333" stroke-miterlimit="10"/>
<path d="M112.38 195.206C112.38 195.206 84.5839 196.39 65.3639 203.486C46.1439 210.582 36.3852 213.835 36.0892 224.184C35.7946 234.534 50.8746 272.384 50.8746 272.384C50.8746 272.384 66.8426 316.147 67.4346 318.808C68.0252 321.47 67.7292 324.13 67.1386 325.018C66.5466 325.904 69.2079 332.41 75.4172 332.41C81.6279 332.41 86.0626 327.679 86.9506 321.174C87.8372 314.668 83.6972 309.346 81.6279 298.7C79.5932 288.235 75.7132 264.104 75.7132 255.528C75.7132 246.954 72.7559 236.012 72.7559 236.012C72.7559 236.012 95.5252 243.7 107.944 247.544C120.364 251.39 157.031 250.502 163.832 249.319C170.632 248.136 170.041 239.266 164.128 226.254C158.213 213.243 139.584 204.372 133.079 201.415C126.575 198.458 112.38 195.206 112.38 195.206Z" fill="#AAAAAA"/>
<path d="M112.38 195.206C112.38 195.206 84.5839 196.39 65.3639 203.486C46.1439 210.582 36.3852 213.835 36.0892 224.184C35.7946 234.534 50.8746 272.384 50.8746 272.384C50.8746 272.384 66.8426 316.147 67.4346 318.808C68.0252 321.47 67.7292 324.13 67.1386 325.018C66.5466 325.904 69.2079 332.41 75.4172 332.41C81.6279 332.41 86.0626 327.679 86.9506 321.174C87.8372 314.668 83.6972 309.346 81.6279 298.7C79.5932 288.235 75.7132 264.104 75.7132 255.528C75.7132 246.954 72.7559 236.012 72.7559 236.012C72.7559 236.012 95.5252 243.7 107.944 247.544C120.364 251.39 157.031 250.502 163.832 249.319C170.632 248.136 170.041 239.266 164.128 226.254C158.213 213.243 139.584 204.372 133.079 201.415C126.575 198.458 112.38 195.206 112.38 195.206Z" stroke="#1A2E35" stroke-width="1.33333" stroke-miterlimit="10" stroke-linecap="round" stroke-linejoin="round"/>
<path d="M133.079 201.415C126.574 198.458 112.38 195.206 112.38 195.206C112.38 195.206 84.5844 196.388 65.3644 203.486C46.1431 210.582 36.3858 213.834 36.0898 224.184C35.7938 234.534 50.8751 272.384 50.8751 272.384C50.8751 272.384 59.1031 294.936 63.9657 308.646C68.7044 307.848 75.4604 305.506 81.6884 298.986C81.6684 298.887 81.6457 298.798 81.6271 298.7C79.5924 288.235 75.7137 264.104 75.7137 255.528C75.7137 246.952 72.7564 236.012 72.7564 236.012C72.7564 236.012 95.5244 243.7 107.944 247.544C120.364 251.388 157.031 250.5 163.831 249.319C170.632 248.136 170.042 239.266 164.127 226.254C158.214 213.243 139.584 204.372 133.079 201.415Z" fill="#1A2E35"/>
<path d="M133.079 201.415C126.574 198.458 112.38 195.206 112.38 195.206C112.38 195.206 84.5844 196.388 65.3644 203.486C46.1431 210.582 36.3858 213.834 36.0898 224.184C35.7938 234.534 50.8751 272.384 50.8751 272.384C50.8751 272.384 59.1031 294.936 63.9657 308.646C68.7044 307.848 75.4604 305.506 81.6884 298.986C81.6684 298.887 81.6457 298.798 81.6271 298.7C79.5924 288.235 75.7137 264.104 75.7137 255.528C75.7137 246.952 72.7564 236.012 72.7564 236.012C72.7564 236.012 95.5244 243.7 107.944 247.544C120.364 251.388 157.031 250.5 163.831 249.319C170.632 248.136 170.042 239.266 164.127 226.254C158.214 213.243 139.584 204.372 133.079 201.415Z" stroke="#1A2E35" stroke-width="1.33333" stroke-miterlimit="10"/>
<path d="M68.0179 325.462C68.0179 325.462 67.2113 322.771 65.8659 324.925C64.5206 327.077 64.5206 330.574 63.4446 331.65C62.3686 332.725 59.9473 337.567 54.0286 340.527C48.1113 343.486 42.7313 345.101 42.1926 347.253C41.6553 349.405 45.4206 351.287 51.3393 351.555C57.2579 351.825 69.0939 352.095 74.2046 350.75C79.3166 349.405 82.2753 346.175 87.9246 344.293C93.5739 342.41 97.3392 342.141 98.4152 339.719C99.4912 337.299 94.6499 324.655 92.4979 322.234C90.3459 319.814 89.2686 316.317 87.1179 316.317C84.9646 316.317 84.4273 319.006 84.1579 321.158C83.8886 323.31 83.6206 326.269 78.2406 327.614C72.8593 328.959 68.0179 325.462 68.0179 325.462Z" fill="white"/>
<path d="M68.0179 325.462C68.0179 325.462 67.2113 322.771 65.8659 324.925C64.5206 327.077 64.5206 330.574 63.4446 331.65C62.3686 332.725 59.9473 337.567 54.0286 340.527C48.1113 343.486 42.7313 345.101 42.1926 347.253C41.6553 349.405 45.4206 351.287 51.3393 351.555C57.2579 351.825 69.0939 352.095 74.2046 350.75C79.3166 349.405 82.2753 346.175 87.9246 344.293C93.5739 342.41 97.3392 342.141 98.4152 339.719C99.4912 337.299 94.6499 324.655 92.4979 322.234C90.3459 319.814 89.2686 316.317 87.1179 316.317C84.9646 316.317 84.4273 319.006 84.1579 321.158C83.8886 323.31 83.6206 326.269 78.2406 327.614C72.8593 328.959 68.0179 325.462 68.0179 325.462Z" stroke="#1A2E35" stroke-width="1.33333" stroke-miterlimit="10" stroke-linejoin="round"/>
<path d="M67.7482 348.598C59.2616 350.556 46.7282 348.115 42.2482 347.11C42.2322 347.158 42.2042 347.204 42.1922 347.252C41.6549 349.404 45.4202 351.288 51.3389 351.556C57.2576 351.826 69.0936 352.095 74.2042 350.75C79.3162 349.404 82.2749 346.176 87.9242 344.292C93.5736 342.41 97.3389 342.14 98.4149 339.72C98.7735 338.916 98.4709 336.979 97.8389 334.671C96.4016 335.252 94.5989 336.028 92.4976 337.03C86.8482 339.72 78.2402 346.176 67.7482 348.598Z" fill="#5AE4A7"/>
<path d="M67.7482 348.598C59.2616 350.556 46.7282 348.115 42.2482 347.11C42.2322 347.158 42.2042 347.204 42.1922 347.252C41.6549 349.404 45.4202 351.288 51.3389 351.556C57.2576 351.826 69.0936 352.095 74.2042 350.75C79.3162 349.404 82.2749 346.176 87.9242 344.292C93.5736 342.41 97.3389 342.14 98.4149 339.72C98.7735 338.916 98.4709 336.979 97.8389 334.671C96.4016 335.252 94.5989 336.028 92.4976 337.03C86.8482 339.72 78.2402 346.176 67.7482 348.598Z" stroke="#1A2E35" stroke-width="1.33333" stroke-miterlimit="10"/>
<path d="M120.955 195.501C120.955 195.501 96.7073 201.711 82.2193 205.26C67.73 208.808 57.9714 211.765 57.0847 222.115C56.198 232.464 46.1434 304.615 44.37 309.641C42.5954 314.668 39.046 328.863 39.046 332.411C39.046 335.959 41.4127 340.099 47.0314 340.691C52.6487 341.281 55.606 338.62 56.4927 335.959C57.3794 333.297 60.0407 325.905 63.294 315.26C66.546 304.615 79.262 285.985 82.514 270.609C85.7673 255.233 84.2887 240.744 84.2887 240.744C84.2887 240.744 96.1167 242.519 108.241 246.363C120.365 250.205 154.074 251.093 172.998 249.615C191.923 248.137 197.246 237.491 197.541 228.916C197.837 220.34 189.261 205.556 184.235 200.529C179.207 195.501 170.041 194.319 153.187 194.024C136.331 193.728 120.955 195.501 120.955 195.501Z" fill="#AAAAAA"/>
<path d="M120.955 195.501C120.955 195.501 96.7073 201.711 82.2193 205.26C67.73 208.808 57.9714 211.765 57.0847 222.115C56.198 232.464 46.1434 304.615 44.37 309.641C42.5954 314.668 39.046 328.863 39.046 332.411C39.046 335.959 41.4127 340.099 47.0314 340.691C52.6487 341.281 55.606 338.62 56.4927 335.959C57.3794 333.297 60.0407 325.905 63.294 315.26C66.546 304.615 79.262 285.985 82.514 270.609C85.7673 255.233 84.2887 240.744 84.2887 240.744C84.2887 240.744 96.1167 242.519 108.241 246.363C120.365 250.205 154.074 251.093 172.998 249.615C191.923 248.137 197.246 237.491 197.541 228.916C197.837 220.34 189.261 205.556 184.235 200.529C179.207 195.501 170.041 194.319 153.187 194.024C136.331 193.728 120.955 195.501 120.955 195.501Z" stroke="#1A2E35" stroke-width="1.33333" stroke-miterlimit="10" stroke-linecap="round" stroke-linejoin="round"/>
<path d="M197.541 228.915C197.837 220.339 189.261 205.555 184.236 200.529C179.208 195.501 170.041 194.319 153.187 194.023C136.332 193.727 120.956 195.501 120.956 195.501C120.956 195.501 96.708 201.711 82.2187 205.261C67.7293 208.809 57.972 211.766 57.084 222.114C56.1973 232.463 46.144 304.614 44.3693 309.642C44.016 310.643 43.5907 312.018 43.1387 313.591C47.128 315.931 53.5 318.583 62.1573 318.925C62.5267 317.75 62.9053 316.53 63.2933 315.261C66.5467 304.614 79.2627 285.986 82.5147 270.61C85.7667 255.233 84.2893 240.743 84.2893 240.743C84.2893 240.743 96.1173 242.518 108.24 246.362C120.364 250.206 154.073 251.094 172.999 249.614C191.923 248.137 197.245 237.491 197.541 228.915Z" fill="#1A2E35"/>
<path d="M197.541 228.915C197.837 220.339 189.261 205.555 184.236 200.529C179.208 195.501 170.041 194.319 153.187 194.023C136.332 193.727 120.956 195.501 120.956 195.501C120.956 195.501 96.708 201.711 82.2187 205.261C67.7293 208.809 57.972 211.766 57.084 222.114C56.1973 232.463 46.144 304.614 44.3693 309.642C44.016 310.643 43.5907 312.018 43.1387 313.591C47.128 315.931 53.5 318.583 62.1573 318.925C62.5267 317.75 62.9053 316.53 63.2933 315.261C66.5467 304.614 79.2627 285.986 82.5147 270.61C85.7667 255.233 84.2893 240.743 84.2893 240.743C84.2893 240.743 96.1173 242.518 108.24 246.362C120.364 250.206 154.073 251.094 172.999 249.614C191.923 248.137 197.245 237.491 197.541 228.915Z" stroke="#1A2E35" stroke-width="1.33333" stroke-miterlimit="10"/>
<path d="M38.6663 327.094C38.6663 327.094 38.0409 326.172 35.5436 328.936C33.0449 331.699 27.4223 336.919 19.9276 339.99C12.4316 343.06 4.3116 343.982 2.12627 346.438C-0.0603988 348.895 1.50093 352.272 2.12627 353.192C2.75027 354.115 23.9876 356.263 34.6063 356.263C45.2236 356.263 58.0289 355.955 60.2156 355.035C62.4009 354.115 62.7143 348.28 62.4009 344.595C62.0889 340.91 60.5276 338.762 60.5276 336.919C60.5276 335.076 61.4649 332.007 60.5276 330.778C59.5903 329.55 55.5303 333.234 53.3449 334.77C51.1583 336.304 43.3503 335.998 41.7889 334.462C40.2276 332.927 39.9156 327.094 38.6663 327.094Z" fill="white"/>
<path d="M38.6663 327.094C38.6663 327.094 38.0409 326.172 35.5436 328.936C33.0449 331.699 27.4223 336.919 19.9276 339.99C12.4316 343.06 4.3116 343.982 2.12627 346.438C-0.0603988 348.895 1.50093 352.272 2.12627 353.192C2.75027 354.115 23.9876 356.263 34.6063 356.263C45.2236 356.263 58.0289 355.955 60.2156 355.035C62.4009 354.115 62.7143 348.28 62.4009 344.595C62.0889 340.91 60.5276 338.762 60.5276 336.919C60.5276 335.076 61.4649 332.007 60.5276 330.778C59.5903 329.55 55.5303 333.234 53.3449 334.77C51.1583 336.304 43.3503 335.998 41.7889 334.462C40.2276 332.927 39.9156 327.094 38.6663 327.094Z" stroke="#1A2E35" stroke-width="1.33333" stroke-miterlimit="10" stroke-linejoin="round"/>
<path d="M36.792 352.272C23.896 352.272 7.59065 350.595 1.01465 349.853C1.11332 351.348 1.77065 352.668 2.12532 353.192C2.75065 354.115 23.9866 356.263 34.6053 356.263C45.224 356.263 58.0293 355.956 60.2147 355.035C61.4027 354.535 62.0346 352.581 62.316 350.315C56.9026 351.131 47.4307 352.272 36.792 352.272Z" fill="#5AE4A7"/>
<path d="M36.792 352.272C23.896 352.272 7.59065 350.595 1.01465 349.853C1.11332 351.348 1.77065 352.668 2.12532 353.192C2.75065 354.115 23.9866 356.263 34.6053 356.263C45.224 356.263 58.0293 355.956 60.2147 355.035C61.4027 354.535 62.0346 352.581 62.316 350.315C56.9026 351.131 47.4307 352.272 36.792 352.272Z" stroke="#1A2E35" stroke-width="1.33333" stroke-miterlimit="10"/>
<path d="M82.2151 35.7349C82.2151 35.7349 76.8671 43.3736 77.3778 49.2309C77.8858 55.0869 79.9231 56.6149 81.4511 58.3962C82.9791 60.1789 84.7604 62.9802 83.9964 67.3082C83.2338 71.6362 81.9604 72.4016 82.7244 74.1829C83.4884 75.9656 88.5804 76.4749 88.5804 76.4749C88.5804 76.4749 94.6911 83.3496 97.4924 85.6416C100.294 87.9322 102.839 89.2056 105.64 87.4242C108.44 85.6416 111.242 83.6042 112.006 82.8402C112.77 82.0762 118.626 90.4789 119.644 95.8256C120.663 101.174 116.588 107.03 118.88 107.792C121.172 108.558 124.991 101.936 127.538 95.3176C130.084 88.6962 132.63 87.4242 132.63 87.4242C132.63 87.4242 118.116 57.6322 108.695 45.1562C99.2738 32.6789 89.8538 31.1522 86.5431 32.1709C83.2338 33.1882 82.2151 35.7349 82.2151 35.7349Z" fill="#AAAAAA"/>
<path d="M82.2151 35.7349C82.2151 35.7349 76.8671 43.3736 77.3778 49.2309C77.8858 55.0869 79.9231 56.6149 81.4511 58.3962C82.9791 60.1789 84.7604 62.9802 83.9964 67.3082C83.2338 71.6362 81.9604 72.4016 82.7244 74.1829C83.4884 75.9656 88.5804 76.4749 88.5804 76.4749C88.5804 76.4749 94.6911 83.3496 97.4924 85.6416C100.294 87.9322 102.839 89.2056 105.64 87.4242C108.44 85.6416 111.242 83.6042 112.006 82.8402C112.77 82.0762 118.626 90.4789 119.644 95.8256C120.663 101.174 116.588 107.03 118.88 107.792C121.172 108.558 124.991 101.936 127.538 95.3176C130.084 88.6962 132.63 87.4242 132.63 87.4242C132.63 87.4242 118.116 57.6322 108.695 45.1562C99.2738 32.6789 89.8538 31.1522 86.5431 32.1709C83.2338 33.1882 82.2151 35.7349 82.2151 35.7349Z" stroke="#1A2E35" stroke-width="1.33333" stroke-miterlimit="10" stroke-linecap="round" stroke-linejoin="round"/>
<path d="M95.7098 75.9653C95.7098 75.9653 100.547 74.692 101.057 70.8733" stroke="#1A2E35" stroke-width="1.33333" stroke-miterlimit="10" stroke-linecap="round" stroke-linejoin="round"/>
<path d="M83.7424 58.3964C83.7424 58.3964 87.0518 63.7431 89.5984 64.2524C92.1451 64.7617 96.4731 63.2337 97.2371 59.6697C98.0011 56.1044 95.7104 52.2857 95.7104 52.2857C95.7104 52.2857 88.0718 53.8124 83.7424 58.3964Z" stroke="#1A2E35" stroke-width="1.33333" stroke-miterlimit="10" stroke-linecap="round" stroke-linejoin="round"/>
<path d="M83.7424 58.3964L79.6691 61.4524C79.6691 61.4524 80.4331 63.9977 83.4877 65.0164" stroke="#1A2E35" stroke-width="1.33333" stroke-miterlimit="10" stroke-linecap="round" stroke-linejoin="round"/>
<path d="M95.7098 52.2856L109.459 46.939" stroke="#1A2E35" stroke-width="1.33333" stroke-miterlimit="10" stroke-linecap="round" stroke-linejoin="round"/>
<path d="M92.3193 60.1835C92.978 61.4515 93.1246 62.6808 92.646 62.9302C92.166 63.1782 91.2446 62.3515 90.586 61.0848C89.9273 59.8168 89.7806 58.5862 90.2593 58.3382C90.738 58.0888 91.6606 58.9155 92.3193 60.1835Z" fill="#1A2E35"/>
<path d="M84.2516 54.8318C84.2516 54.8318 85.5249 51.5225 90.1089 51.5225" stroke="#1A2E35" stroke-width="1.33333" stroke-miterlimit="10" stroke-linecap="round" stroke-linejoin="round"/>
<path d="M82.2151 33.6984C82.2151 33.6984 81.4511 36.7544 84.7604 37.7717C88.0711 38.7904 91.6351 37.517 91.1271 41.337C90.6178 45.1557 88.3258 46.9384 92.9098 47.7024C97.4924 48.4664 99.2738 47.7024 99.2738 52.7944C99.2738 57.8877 95.9644 59.6704 101.311 60.9424C106.659 62.2157 109.459 61.4517 108.695 67.0544C107.932 72.6557 104.876 74.693 108.95 76.2197C113.024 77.7477 116.079 75.4557 116.079 79.785C116.079 84.113 116.079 86.6597 118.626 87.169C121.172 87.6784 123.21 84.3677 123.718 87.933C124.227 91.497 124.482 93.2797 126.519 93.5344C128.555 93.789 129.064 91.497 131.866 92.261C134.666 93.025 145.615 87.6784 148.926 84.113C152.235 80.549 157.838 81.3117 162.166 87.169C166.494 93.025 175.406 112.121 175.916 115.941C176.426 119.76 177.188 120.524 180.244 116.196C183.299 111.866 185.846 107.538 183.299 103.21C180.754 98.881 178.971 99.645 180.754 94.8077C182.536 89.9704 186.102 87.933 182.536 83.6037C178.971 79.2757 177.952 80.2944 178.716 74.437C179.48 68.581 180.754 67.817 176.935 65.5264C173.115 63.2344 171.842 62.9797 171.842 59.161C171.842 55.341 173.624 52.7944 170.059 50.757C166.494 48.721 165.476 49.2304 165.476 45.9197C165.476 42.6104 166.24 41.337 163.694 39.5544C161.148 37.7717 158.856 36.4997 158.856 33.189C158.856 29.8784 158.856 29.6237 156.564 27.841C154.272 26.0597 152.746 23.7677 152.491 21.4757C152.235 19.185 150.963 16.893 149.18 16.3837C147.398 15.8744 146.124 17.4024 144.851 14.3464C143.579 11.2917 142.815 9.76371 140.523 9.50904C138.231 9.25437 135.686 7.98103 134.158 5.94503C132.63 3.9077 131.611 2.88903 129.574 3.65303C127.538 4.41703 122.699 4.67037 120.663 2.88903C118.626 1.10637 115.315 0.0877038 112.77 2.12504C110.223 4.16237 107.676 4.67037 105.386 3.9077C103.094 3.1437 100.802 3.1437 99.2738 4.67037C97.7471 6.19837 98.0018 7.21704 94.9458 6.45304C91.8898 5.69037 89.0898 5.69037 87.5618 7.98104C86.0338 10.273 84.2511 11.2917 82.7244 12.0557C81.1964 12.8184 77.6311 13.5837 77.1231 16.3837C76.6124 19.185 76.8671 20.457 75.5951 21.4757C74.3218 22.4944 72.2844 25.041 72.2844 26.8237C72.2844 28.6064 75.3404 31.9157 78.3951 32.425" fill="#1A2E35"/>
<path d="M82.2151 33.6984C82.2151 33.6984 81.4511 36.7544 84.7604 37.7717C88.0711 38.7904 91.6351 37.517 91.1271 41.337C90.6178 45.1557 88.3258 46.9384 92.9098 47.7024C97.4924 48.4664 99.2738 47.7024 99.2738 52.7944C99.2738 57.8877 95.9644 59.6704 101.311 60.9424C106.659 62.2157 109.459 61.4517 108.695 67.0544C107.932 72.6557 104.876 74.693 108.95 76.2197C113.024 77.7477 116.079 75.4557 116.079 79.785C116.079 84.113 116.079 86.6597 118.626 87.169C121.172 87.6784 123.21 84.3677 123.718 87.933C124.227 91.497 124.482 93.2797 126.519 93.5344C128.555 93.789 129.064 91.497 131.866 92.261C134.666 93.025 145.615 87.6784 148.926 84.113C152.235 80.549 157.838 81.3117 162.166 87.169C166.494 93.025 175.406 112.121 175.916 115.941C176.426 119.76 177.188 120.524 180.244 116.196C183.299 111.866 185.846 107.538 183.299 103.21C180.754 98.881 178.971 99.645 180.754 94.8077C182.536 89.9704 186.102 87.933 182.536 83.6037C178.971 79.2757 177.952 80.2944 178.716 74.437C179.48 68.581 180.754 67.817 176.935 65.5264C173.115 63.2344 171.842 62.9797 171.842 59.161C171.842 55.341 173.624 52.7944 170.059 50.757C166.494 48.721 165.476 49.2304 165.476 45.9197C165.476 42.6104 166.24 41.337 163.694 39.5544C161.148 37.7717 158.856 36.4997 158.856 33.189C158.856 29.8784 158.856 29.6237 156.564 27.841C154.272 26.0597 152.746 23.7677 152.491 21.4757C152.235 19.185 150.963 16.893 149.18 16.3837C147.398 15.8744 146.124 17.4024 144.851 14.3464C143.579 11.2917 142.815 9.76371 140.523 9.50904C138.231 9.25437 135.686 7.98103 134.158 5.94503C132.63 3.9077 131.611 2.88903 129.574 3.65303C127.538 4.41703 122.699 4.67037 120.663 2.88903C118.626 1.10637 115.315 0.0877038 112.77 2.12504C110.223 4.16237 107.676 4.67037 105.386 3.9077C103.094 3.1437 100.802 3.1437 99.2738 4.67037C97.7471 6.19837 98.0018 7.21704 94.9458 6.45304C91.8898 5.69037 89.0898 5.69037 87.5618 7.98104C86.0338 10.273 84.2511 11.2917 82.7244 12.0557C81.1964 12.8184 77.6311 13.5837 77.1231 16.3837C76.6124 19.185 76.8671 20.457 75.5951 21.4757C74.3218 22.4944 72.2844 25.041 72.2844 26.8237C72.2844 28.6064 75.3404 31.9157 78.3951 32.425" stroke="#1A2E35" stroke-width="1.33333" stroke-miterlimit="10"/>
<path d="M130.338 94.5526C130.338 94.5526 129.065 129.437 128.046 147.005C127.029 164.574 132.375 170.939 135.686 175.269C138.995 179.597 170.059 220.591 171.842 224.919C173.625 229.247 175.406 236.886 176.17 237.651C176.934 238.414 184.573 237.395 190.174 235.869C195.775 234.339 199.087 228.738 199.087 228.738C199.087 228.738 200.614 221.865 196.795 210.915C192.975 199.966 188.138 192.837 187.629 185.198C187.119 177.559 183.299 151.333 182.027 139.111C180.754 126.89 176.934 111.613 174.643 103.719C172.351 95.826 170.059 90.2246 166.241 86.6593C162.421 83.0953 157.583 80.8033 157.583 80.8033L130.338 94.5526Z" fill="#818181"/>
<path d="M130.338 94.5526C130.338 94.5526 129.065 129.437 128.046 147.005C127.029 164.574 132.375 170.939 135.686 175.269C138.995 179.597 170.059 220.591 171.842 224.919C173.625 229.247 175.406 236.886 176.17 237.651C176.934 238.414 184.573 237.395 190.174 235.869C195.775 234.339 199.087 228.738 199.087 228.738C199.087 228.738 200.614 221.865 196.795 210.915C192.975 199.966 188.138 192.837 187.629 185.198C187.119 177.559 183.299 151.333 182.027 139.111C180.754 126.89 176.934 111.613 174.643 103.719C172.351 95.826 170.059 90.2246 166.241 86.6593C162.421 83.0953 157.583 80.8033 157.583 80.8033L130.338 94.5526Z" stroke="#1A2E35" stroke-width="1.33333" stroke-miterlimit="10" stroke-linecap="round" stroke-linejoin="round"/>
<path d="M180.244 211.169L176.17 237.65L168.786 222.373C168.786 222.373 177.952 211.424 180.244 211.169" fill="#565656"/>
<path d="M180.244 211.169L176.17 237.65L168.786 222.373C168.786 222.373 177.952 211.424 180.244 211.169V211.169Z" stroke="#1A2E35" stroke-width="1.33333" stroke-miterlimit="10" stroke-linecap="round" stroke-linejoin="round"/>
<path d="M134.922 174.249C134.922 174.249 158.602 194.873 168.532 202.004C178.462 209.133 180.244 211.169 180.244 211.169C180.244 211.169 166.75 231.285 165.986 231.285C165.222 231.285 160.639 220.336 155.547 211.933C150.454 203.53 135.431 178.324 134.922 174.249Z" fill="#818181"/>
<path d="M134.922 174.249C134.922 174.249 158.602 194.873 168.532 202.004C178.462 209.133 180.244 211.169 180.244 211.169C180.244 211.169 166.75 231.285 165.986 231.285C165.222 231.285 160.639 220.336 155.547 211.933C150.454 203.53 135.431 178.324 134.922 174.249Z" stroke="#1A2E35" stroke-width="1.33333" stroke-miterlimit="10" stroke-linecap="round" stroke-linejoin="round"/>
<path d="M155.291 72.9099L127.538 90.2245L131.102 99.6445L160.893 80.0392L155.291 72.9099Z" fill="#818181"/>
<path d="M155.291 72.9099L127.538 90.2245L131.102 99.6445L160.893 80.0392L155.291 72.9099Z" stroke="#1A2E35" stroke-width="1.33333" stroke-miterlimit="10" stroke-linecap="round" stroke-linejoin="round"/>
<path d="M51.5797 202.206L81.189 212.719L124.958 195.34L97.2224 187.03L51.5797 202.206Z" fill="white"/>
<path d="M51.5797 202.206L81.189 212.719L124.958 195.34L97.2224 187.03L51.5797 202.206Z" stroke="#1A2E35" stroke-width="1.33333" stroke-miterlimit="10" stroke-linejoin="round"/>
<path d="M94.6794 201.85L90.838 200.617L86.238 202.479L90.2714 203.775L94.6794 201.85Z" fill="white"/>
<path d="M94.6794 201.85L90.838 200.617L86.238 202.479L90.2714 203.775L94.6794 201.85Z" stroke="#1A2E35" stroke-width="0.666667" stroke-miterlimit="10" stroke-linejoin="round"/>
<path d="M85.902 197.633L93.066 194.971L90.9394 194.355L83.7727 196.949L85.902 197.633Z" fill="white"/>
<path d="M85.902 197.633L93.066 194.971L90.9394 194.355L83.7727 196.949L85.902 197.633Z" stroke="#1A2E35" stroke-width="0.666667" stroke-miterlimit="10" stroke-linejoin="round"/>
<path d="M76.8389 199.458L79.0615 200.173L83.8815 198.382L81.7242 197.69L76.8389 199.458Z" fill="white"/>
<path d="M76.8389 199.458L79.0615 200.173L83.8815 198.382L81.7242 197.69L76.8389 199.458Z" stroke="#1A2E35" stroke-width="0.666667" stroke-miterlimit="10" stroke-linejoin="round"/>
<path d="M72.4553 198.049L74.7647 198.792L79.6487 197.023L77.3727 196.293L72.4553 198.049Z" fill="white"/>
<path d="M72.4553 198.049L74.7647 198.792L79.6487 197.023L77.3727 196.293L72.4553 198.049Z" stroke="#1A2E35" stroke-width="0.666667" stroke-miterlimit="10" stroke-linejoin="round"/>
<path d="M72.717 199.533L70.1344 198.702L66.4064 199.727L69.4117 200.729L72.717 199.533Z" fill="white"/>
<path d="M72.717 199.533L70.1344 198.702L66.4064 199.727L69.4117 200.729L72.717 199.533Z" stroke="#1A2E35" stroke-width="0.666667" stroke-miterlimit="10" stroke-linejoin="round"/>
<path d="M90.7848 199.2L97.8221 196.35L95.2168 195.595L87.9568 198.291L90.7848 199.2Z" fill="white"/>
<path d="M90.7848 199.2L97.8221 196.35L95.2168 195.595L87.9568 198.291L90.7848 199.2Z" stroke="#1A2E35" stroke-width="0.666667" stroke-miterlimit="10" stroke-linejoin="round"/>
<path d="M82.3315 202.624L79.0969 201.584L75.7275 202.834L79.0649 203.946L82.3315 202.624Z" fill="white"/>
<path d="M82.3315 202.624L79.0969 201.584L75.7275 202.834L79.0649 203.946L82.3315 202.624Z" stroke="#1A2E35" stroke-width="0.666667" stroke-miterlimit="10" stroke-linejoin="round"/>
<path d="M67.0712 204.626L71.7139 202.902L69.4272 202.141L64.7379 203.837L67.0712 204.626Z" fill="white"/>
<path d="M67.0712 204.626L71.7139 202.902L69.4272 202.141L64.7379 203.837L67.0712 204.626Z" stroke="#1A2E35" stroke-width="0.666667" stroke-miterlimit="10" stroke-linejoin="round"/>
<path d="M88.8578 199.98L85.9365 199.043L81.1165 200.834L84.2578 201.843L88.8578 199.98Z" fill="white"/>
<path d="M88.8578 199.98L85.9365 199.043L81.1165 200.834L84.2578 201.843L88.8578 199.98Z" stroke="#1A2E35" stroke-width="0.666667" stroke-miterlimit="10" stroke-linejoin="round"/>
<path d="M71.4502 201.409L73.7089 202.161L77.0422 200.923L74.7915 200.199L71.4502 201.409Z" fill="white"/>
<path d="M71.4502 201.409L73.7089 202.161L77.0422 200.923L74.7915 200.199L71.4502 201.409Z" stroke="#1A2E35" stroke-width="0.666667" stroke-miterlimit="10" stroke-linejoin="round"/>
<path d="M67.3896 201.461L64.0949 200.363L58.7803 201.823L62.7136 203.154L67.3896 201.461Z" fill="white"/>
<path d="M67.3896 201.461L64.0949 200.363L58.7803 201.823L62.7136 203.154L67.3896 201.461Z" stroke="#1A2E35" stroke-width="0.666667" stroke-miterlimit="10" stroke-linejoin="round"/>
<path d="M85.264 207.419L80.932 209.312L82.7347 209.92L87.4573 208.15L85.264 207.419Z" fill="white"/>
<path d="M85.264 207.419L80.932 209.312L82.7347 209.92L87.4573 208.15L85.264 207.419Z" stroke="#1A2E35" stroke-width="0.666667" stroke-miterlimit="10" stroke-linejoin="round"/>
<path d="M99.8916 196.95L92.7649 199.836L96.5249 201.042L103.5 197.996L99.8916 196.95Z" fill="white"/>
<path d="M99.8916 196.95L92.7649 199.836L96.5249 201.042L103.5 197.996L99.8916 196.95Z" stroke="#1A2E35" stroke-width="0.666667" stroke-miterlimit="10" stroke-linejoin="round"/>
<path d="M81.6976 196.282L88.7643 193.725L86.4456 193.053L79.4363 195.556L81.6976 196.282Z" fill="white"/>
<path d="M81.6976 196.282L88.7643 193.725L86.4456 193.053L79.4363 195.556L81.6976 196.282Z" stroke="#1A2E35" stroke-width="0.666667" stroke-miterlimit="10" stroke-linejoin="round"/>
<path d="M98.4443 201.66L101.85 202.752L109.723 199.799L105.5 198.576L98.4443 201.66Z" fill="white"/>
<path d="M98.4443 201.66L101.85 202.752L109.723 199.799L105.5 198.576L98.4443 201.66Z" stroke="#1A2E35" stroke-width="0.666667" stroke-miterlimit="10" stroke-linejoin="round"/>
<path d="M83.3758 206.789L79.1078 205.368L74.6292 207.181L79.0545 208.677L83.3758 206.789Z" fill="white"/>
<path d="M83.3758 206.789L79.1078 205.368L74.6292 207.181L79.0545 208.677L83.3758 206.789Z" stroke="#1A2E35" stroke-width="0.666667" stroke-miterlimit="10" stroke-linejoin="round"/>
<path d="M88.4266 204.582L84.312 203.26L81.0133 204.596L85.2013 205.992L88.4266 204.582Z" fill="white"/>
<path d="M88.4266 204.582L84.312 203.26L81.0133 204.596L85.2013 205.992L88.4266 204.582Z" stroke="#1A2E35" stroke-width="0.666667" stroke-miterlimit="10" stroke-linejoin="round"/>
<path d="M73.7334 203.575L69.0774 205.305L72.6934 206.527L77.1601 204.717L73.7334 203.575Z" fill="white"/>
<path d="M73.7334 203.575L69.0774 205.305L72.6934 206.527L77.1601 204.717L73.7334 203.575Z" stroke="#1A2E35" stroke-width="0.666667" stroke-miterlimit="10" stroke-linejoin="round"/>
<path d="M93.0269 206.061L90.3443 205.2L87.0896 206.621L89.4429 207.405L93.0269 206.061Z" fill="white"/>
<path d="M93.0269 206.061L90.3443 205.2L87.0896 206.621L89.4429 207.405L93.0269 206.061Z" stroke="#1A2E35" stroke-width="0.666667" stroke-miterlimit="10" stroke-linejoin="round"/>
<path d="M92.1897 204.393L95.0364 205.308L99.839 203.506L96.599 202.466L92.1897 204.393Z" fill="white"/>
<path d="M92.1897 204.393L95.0364 205.308L99.839 203.506L96.599 202.466L92.1897 204.393Z" stroke="#1A2E35" stroke-width="0.666667" stroke-miterlimit="10" stroke-linejoin="round"/>
<path d="M81.1891 212.719L60.5917 165.516L27.9784 160.58L46.1891 201.263L81.1891 212.719Z" fill="white"/>
<path d="M81.1891 212.719L60.5917 165.516L27.9784 160.58L46.1891 201.263L81.1891 212.719Z" stroke="#1A2E35" stroke-width="1.33333" stroke-miterlimit="10" stroke-linejoin="round"/>
<path d="M141.541 110.084C141.541 110.084 137.468 120.524 138.232 128.927C138.996 137.33 146.125 155.152 147.143 160.246C148.163 165.338 146.889 168.392 146.889 168.392C146.889 168.392 145.616 166.866 144.597 169.667C143.579 172.467 140.523 180.106 140.523 180.106L137.977 181.379L148.416 200.984L151.727 206.587C151.727 206.587 159.365 202.767 162.167 200.222C164.967 197.674 172.351 195.638 175.405 191.818C178.461 187.999 176.425 187.999 178.717 182.398C181.009 176.795 182.281 164.064 180.753 160.246C179.227 156.426 177.697 155.407 177.697 151.588C177.697 147.768 181.263 141.148 178.461 130.964C175.661 120.779 173.624 104.738 169.041 100.41C164.457 96.0805 160.639 96.8445 158.092 96.8445" fill="#818181"/>
<path d="M141.541 110.084C141.541 110.084 137.468 120.524 138.232 128.927C138.996 137.33 146.125 155.152 147.143 160.246C148.163 165.338 146.889 168.392 146.889 168.392C146.889 168.392 145.616 166.866 144.597 169.667C143.579 172.467 140.523 180.106 140.523 180.106L137.977 181.379L148.416 200.984L151.727 206.587C151.727 206.587 159.365 202.767 162.167 200.222C164.967 197.674 172.351 195.638 175.405 191.818C178.461 187.999 176.425 187.999 178.717 182.398C181.009 176.795 182.281 164.064 180.753 160.246C179.227 156.426 177.697 155.407 177.697 151.588C177.697 147.768 181.263 141.148 178.461 130.964C175.661 120.779 173.624 104.738 169.041 100.41C164.457 96.0805 160.639 96.8445 158.092 96.8445" stroke="#1A2E35" stroke-width="1.33333" stroke-miterlimit="10" stroke-linecap="round" stroke-linejoin="round"/>
<path d="M162.896 182.947C164.43 184.01 165.653 184.767 166.241 184.945" stroke="#1A2E35" stroke-width="1.33333" stroke-miterlimit="10"/>
<path d="M149.181 172.467C149.181 172.467 155.142 177.278 160.094 180.934" stroke="#1A2E35" stroke-width="1.33333" stroke-miterlimit="10"/>
<path d="M155.036 172.722C155.036 172.722 170.568 177.306 169.804 178.833C169.041 180.361 162.42 177.306 161.148 176.795" stroke="#1A2E35" stroke-width="1.33333" stroke-miterlimit="10"/>
<path d="M129.065 190.036C129.065 190.036 105.13 203.786 103.349 203.786C101.566 203.786 95.9647 199.712 94.182 200.222C92.3993 200.731 89.598 202.258 87.3073 203.276C85.0153 204.295 80.6873 203.022 80.4327 204.804C80.178 206.587 82.2153 207.859 82.2153 207.859C82.2153 207.859 77.122 208.878 76.1033 208.878C75.086 208.878 73.8127 210.915 76.1033 212.698C78.3953 214.48 82.47 214.734 83.2327 214.99C83.9967 215.243 88.326 217.535 91.89 217.535C95.4553 217.535 102.839 213.716 107.677 212.443C112.514 211.17 137.469 204.295 137.469 204.295C137.469 204.295 132.885 190.036 129.065 190.036Z" fill="#AAAAAA"/>
<path d="M129.065 190.036C129.065 190.036 105.13 203.786 103.349 203.786C101.566 203.786 95.9647 199.712 94.182 200.222C92.3993 200.731 89.598 202.258 87.3073 203.276C85.0153 204.295 80.6873 203.022 80.4327 204.804C80.178 206.587 82.2153 207.859 82.2153 207.859C82.2153 207.859 77.122 208.878 76.1033 208.878C75.086 208.878 73.8127 210.915 76.1033 212.698C78.3953 214.48 82.47 214.734 83.2327 214.99C83.9967 215.243 88.326 217.535 91.89 217.535C95.4553 217.535 102.839 213.716 107.677 212.443C112.514 211.17 137.469 204.295 137.469 204.295C137.469 204.295 132.885 190.036 129.065 190.036Z" stroke="#1A2E35" stroke-width="1.33333" stroke-miterlimit="10"/>
<path d="M82.2151 207.859C82.2151 207.859 87.0524 208.878 91.3818 207.606Z" fill="white"/>
<path d="M82.2151 207.859C82.2151 207.859 87.0524 208.878 91.3818 207.606" stroke="#1A2E35" stroke-width="1.33333" stroke-miterlimit="10"/>
<path d="M141.032 178.578C141.032 178.578 148.925 190.801 153.508 198.947C158.092 207.097 156.564 207.606 155.291 208.878C154.017 210.151 144.597 211.679 141.541 212.189C138.487 212.698 135.431 210.661 135.431 207.606C135.431 204.55 131.612 196.657 130.084 193.855C128.556 191.054 126.264 191.563 126.264 189.273C126.264 186.981 131.356 183.925 133.648 181.887C135.94 179.851 139.249 178.323 141.032 178.578Z" fill="#818181"/>
<path d="M141.032 178.578C141.032 178.578 148.925 190.801 153.508 198.947C158.092 207.097 156.564 207.606 155.291 208.878C154.017 210.151 144.597 211.679 141.541 212.189C138.487 212.698 135.431 210.661 135.431 207.606C135.431 204.55 131.612 196.657 130.084 193.855C128.556 191.054 126.264 191.563 126.264 189.273C126.264 186.981 131.356 183.925 133.648 181.887C135.94 179.851 139.249 178.323 141.032 178.578Z" stroke="#1A2E35" stroke-width="1.33333" stroke-miterlimit="10" stroke-linecap="round" stroke-linejoin="round"/>
<path d="M83.1202 170.021C83.1202 170.021 90.2002 173.24 92.5602 174.741C94.9215 176.244 98.5682 177.745 98.3535 179.463C98.1389 181.179 93.6335 186.543 91.7028 186.971C89.7708 187.4 85.6949 184.397 83.1202 184.397C80.5455 184.397 78.1855 177.531 79.0429 175.171C79.9015 172.811 81.4029 170.236 83.1202 170.021Z" fill="#AAAAAA"/>
<path d="M83.1202 170.021C83.1202 170.021 90.2002 173.24 92.5602 174.741C94.9215 176.244 98.5682 177.745 98.3535 179.463C98.1389 181.179 93.6335 186.543 91.7028 186.971C89.7708 187.4 85.6949 184.397 83.1202 184.397C80.5455 184.397 78.1855 177.531 79.0429 175.171C79.9015 172.811 81.4029 170.236 83.1202 170.021Z" stroke="#1A2E35" stroke-width="1.33333" stroke-miterlimit="10" stroke-linejoin="round"/>
<path d="M73.8935 179.247C73.8935 179.247 71.7482 181.178 71.7482 182.895C71.7482 184.611 72.8215 189.761 74.1082 190.833C75.3948 191.906 76.0388 190.405 76.0388 189.117C76.0388 187.83 74.1082 186.757 74.9668 185.041C75.8255 183.325 76.8975 180.534 76.8975 180.534C76.8975 180.534 75.6108 178.389 73.8935 179.247" fill="#AAAAAA"/>
<path d="M73.8935 179.247C73.8935 179.247 71.7482 181.178 71.7482 182.895C71.7482 184.611 72.8215 189.761 74.1082 190.833C75.3948 191.906 76.0388 190.405 76.0388 189.117C76.0388 187.83 74.1082 186.757 74.9668 185.041C75.8255 183.325 76.8975 180.534 76.8975 180.534C76.8975 180.534 75.6108 178.389 73.8935 179.247V179.247Z" stroke="#1A2E35" stroke-width="1.33333" stroke-miterlimit="10" stroke-linejoin="round"/>
<path d="M78.1852 176.458C78.1852 176.458 75.3959 176.029 73.8933 178.174C72.3919 180.32 73.6799 182.681 74.9666 185.041C76.2546 187.401 78.3999 188.26 80.1159 188.473C81.8319 188.688 82.6906 188.044 81.1892 186.113C79.6866 184.182 78.6146 180.749 78.3999 180.105C78.1853 179.462 78.1852 176.458 78.1852 176.458Z" fill="#AAAAAA"/>
<path d="M78.1852 176.458C78.1852 176.458 75.3959 176.029 73.8933 178.174C72.3919 180.32 73.6799 182.681 74.9666 185.041C76.2546 187.401 78.3999 188.26 80.1159 188.473C81.8319 188.688 82.6906 188.044 81.1892 186.113C79.6866 184.182 78.6146 180.749 78.3999 180.105C78.1853 179.462 78.1852 176.458 78.1852 176.458Z" stroke="#1A2E35" stroke-width="1.33333" stroke-miterlimit="10" stroke-linejoin="round"/>
<path d="M81.189 171.094C81.189 171.094 77.1117 173.454 77.1117 175.385C77.1117 177.317 77.9704 181.822 79.0437 184.182C80.1157 186.542 83.3344 189.546 83.7637 188.473C84.1917 187.4 83.3344 184.612 82.905 182.465C82.4757 180.32 81.8317 172.381 81.8317 172.381C81.8317 172.381 82.4757 171.309 81.189 171.094" fill="#AAAAAA"/>
<path d="M81.189 171.094C81.189 171.094 77.1117 173.454 77.1117 175.385C77.1117 177.317 77.9704 181.822 79.0437 184.182C80.1157 186.542 83.3344 189.546 83.7637 188.473C84.1917 187.4 83.3344 184.612 82.905 182.465C82.4757 180.32 81.8317 172.381 81.8317 172.381C81.8317 172.381 82.4757 171.309 81.189 171.094V171.094Z" stroke="#1A2E35" stroke-width="1.33333" stroke-miterlimit="10" stroke-linejoin="round"/>
<path d="M85.909 173.025C85.909 173.025 83.9784 169.377 81.6184 169.377C79.2584 169.377 80.7597 171.952 80.9744 176.887C81.189 181.823 82.261 186.757 83.7637 188.473C85.265 190.191 86.1237 188.903 85.6944 185.899C85.265 182.895 85.0504 178.389 85.0504 177.745V176.244" fill="#AAAAAA"/>
<path d="M85.909 173.025C85.909 173.025 83.9784 169.377 81.6184 169.377C79.2584 169.377 80.7597 171.952 80.9744 176.887C81.189 181.823 82.261 186.757 83.7637 188.473C85.265 190.191 86.1237 188.903 85.6944 185.899C85.265 182.895 85.0504 178.389 85.0504 177.745V176.244" stroke="#1A2E35" stroke-width="1.33333" stroke-miterlimit="10" stroke-linejoin="round"/>
<path d="M91.917 179.247C91.917 179.247 91.4876 182.037 90.1996 183.538C88.913 185.041 87.4116 187.615 88.4836 188.259C89.5556 188.902 90.629 188.259 91.7023 186.971C92.7756 185.685 95.5636 183.325 96.8516 180.965C98.1396 178.603 96.4223 176.029 94.921 175.814C93.4183 175.601 92.3463 175.601 92.3463 175.601" fill="#AAAAAA"/>
<path d="M91.917 179.247C91.917 179.247 91.4876 182.037 90.1996 183.538C88.913 185.041 87.4116 187.615 88.4836 188.259C89.5556 188.902 90.629 188.259 91.7023 186.971C92.7756 185.685 95.5636 183.325 96.8516 180.965C98.1396 178.603 96.4223 176.029 94.921 175.814C93.4183 175.601 92.3463 175.601 92.3463 175.601" stroke="#1A2E35" stroke-width="1.33333" stroke-miterlimit="10" stroke-linejoin="round"/>
<path d="M142.246 347.195C142.246 347.195 156.208 364.847 169.643 364.847C183.076 364.847 195.391 362.609 204.347 362.609C213.303 362.609 235.694 359.25 242.411 355.89C249.127 352.533 245.77 349.174 240.171 345.815C234.574 342.457 206.587 329.023 206.587 329.023L142.246 347.195Z" fill="#1A2E35"/>
<path d="M142.246 347.195C142.246 347.195 156.208 364.847 169.643 364.847C183.076 364.847 195.391 362.609 204.347 362.609C213.303 362.609 235.694 359.25 242.411 355.89C249.127 352.533 245.77 349.174 240.171 345.815C234.574 342.457 206.587 329.023 206.587 329.023L142.246 347.195Z" stroke="#1A2E35" stroke-width="1.33333" stroke-miterlimit="10" stroke-linejoin="round"/>
<path d="M133.966 270.609C133.966 270.609 125.095 285.099 114.45 298.7C103.804 312.304 98.187 314.964 95.8217 321.173C93.455 327.384 94.6377 333.297 96.7084 334.776C98.7777 336.253 119.772 340.395 125.095 340.691C130.418 340.985 136.627 339.804 136.627 339.804L137.218 337.141C137.218 337.141 127.756 337.437 125.391 337.141C123.024 336.847 113.563 330.044 110.31 327.975C107.058 325.905 105.579 325.019 105.579 325.019C105.579 325.019 114.155 313.781 123.616 304.024C133.079 294.265 140.175 282.733 140.175 282.733C140.175 282.733 138.402 267.652 133.966 270.609" fill="#AAAAAA"/>
<path d="M133.966 270.609C133.966 270.609 125.095 285.099 114.45 298.7C103.804 312.304 98.187 314.964 95.8217 321.173C93.455 327.384 94.6377 333.297 96.7084 334.776C98.7777 336.253 119.772 340.395 125.095 340.691C130.418 340.985 136.627 339.804 136.627 339.804L137.218 337.141C137.218 337.141 127.756 337.437 125.391 337.141C123.024 336.847 113.563 330.044 110.31 327.975C107.058 325.905 105.579 325.019 105.579 325.019C105.579 325.019 114.155 313.781 123.616 304.024C133.079 294.265 140.175 282.733 140.175 282.733C140.175 282.733 138.402 267.652 133.966 270.609V270.609Z" stroke="#1A2E35" stroke-width="1.33333" stroke-miterlimit="10"/>
<path d="M105.579 325.018C105.579 325.018 101.735 330.339 101.735 332.41Z" fill="white"/>
<path d="M105.579 325.018C105.579 325.018 101.735 330.339 101.735 332.41" stroke="#1A2E35" stroke-width="1.33333" stroke-miterlimit="10" stroke-linejoin="round"/>
<path d="M181.278 240.743C181.278 240.743 154.369 246.066 148.16 247.249C141.95 248.433 139.289 250.206 136.036 257.599C132.784 264.991 131.009 267.947 132.488 275.045C133.966 282.142 134.557 307.571 134.557 318.513C134.557 329.453 132.193 336.846 133.966 340.394C135.741 343.942 140.766 346.013 142.246 347.195C143.724 348.378 155.552 352.518 159.1 353.405C162.649 354.291 167.676 358.137 172.112 358.137C176.546 358.137 186.6 354.587 193.402 351.63C200.202 348.673 210.256 349.266 215.284 346.899C220.309 344.534 222.676 342.761 221.493 336.55C220.309 330.339 215.58 326.201 214.693 319.105C213.805 312.006 214.397 301.362 212.917 296.039C211.44 290.717 207.89 284.506 207.004 275.339C206.117 266.173 207.594 254.05 204.342 249.614C201.089 245.179 202.273 246.066 196.654 243.995C191.036 241.927 186.305 238.082 181.278 240.743Z" fill="#AAAAAA"/>
<path d="M181.278 240.743C181.278 240.743 154.369 246.066 148.16 247.249C141.95 248.433 139.289 250.206 136.036 257.599C132.784 264.991 131.009 267.947 132.488 275.045C133.966 282.142 134.557 307.571 134.557 318.513C134.557 329.453 132.193 336.846 133.966 340.394C135.741 343.942 140.766 346.013 142.246 347.195C143.724 348.378 155.552 352.518 159.1 353.405C162.649 354.291 167.676 358.137 172.112 358.137C176.546 358.137 186.6 354.587 193.402 351.63C200.202 348.673 210.256 349.266 215.284 346.899C220.309 344.534 222.676 342.761 221.493 336.55C220.309 330.339 215.58 326.201 214.693 319.105C213.805 312.006 214.397 301.362 212.917 296.039C211.44 290.717 207.89 284.506 207.004 275.339C206.117 266.173 207.594 254.05 204.342 249.614C201.089 245.179 202.273 246.066 196.654 243.995C191.036 241.927 186.305 238.082 181.278 240.743Z" stroke="#1A2E35" stroke-width="1.33333" stroke-miterlimit="10"/>
<path d="M174.476 254.051C187.783 251.093 191.036 249.911 195.767 247.544C200.499 245.18 202.568 247.84 202.568 247.84L202.911 247.632C201.295 245.408 201.223 245.68 196.655 243.996C191.036 241.927 186.304 238.081 181.279 240.744C181.279 240.744 154.37 246.067 148.16 247.248C141.95 248.432 139.288 250.205 136.036 257.599C132.783 264.991 131.008 267.948 132.488 275.044C133.966 282.141 134.558 307.572 134.558 318.513C134.558 329.453 132.192 336.847 133.966 340.395C135.74 343.943 140.767 346.013 142.246 347.195C142.914 347.729 145.696 348.867 148.87 350.035C148.987 349.767 148.963 349.508 148.751 349.265C146.68 346.9 149.638 337.437 151.412 324.723C153.187 312.007 152.595 291.308 150.822 285.395C149.047 279.48 145.499 272.68 147.864 266.173C150.23 259.668 161.171 257.007 174.476 254.051Z" fill="white"/>
<path d="M174.476 254.051C187.783 251.093 191.036 249.911 195.767 247.544C200.499 245.18 202.568 247.84 202.568 247.84L202.911 247.632C201.295 245.408 201.223 245.68 196.655 243.996C191.036 241.927 186.304 238.081 181.279 240.744C181.279 240.744 154.37 246.067 148.16 247.248C141.95 248.432 139.288 250.205 136.036 257.599C132.783 264.991 131.008 267.948 132.488 275.044C133.966 282.141 134.558 307.572 134.558 318.513C134.558 329.453 132.192 336.847 133.966 340.395C135.74 343.943 140.767 346.013 142.246 347.195C142.914 347.729 145.696 348.867 148.87 350.035C148.987 349.767 148.963 349.508 148.751 349.265C146.68 346.9 149.638 337.437 151.412 324.723C153.187 312.007 152.595 291.308 150.822 285.395C149.047 279.48 145.499 272.68 147.864 266.173C150.23 259.668 161.171 257.007 174.476 254.051Z" stroke="#1A2E35" stroke-width="1.33333" stroke-miterlimit="10"/>
<path d="M160.284 301.362C160.284 301.362 159.1 335.367 158.213 342.76C157.326 350.152 156.144 351.334 157.032 352.814C157.918 354.291 167.085 357.839 170.337 357.839C173.589 357.839 174.773 358.136 175.069 354.291C175.365 350.447 172.408 322.947 172.702 316.443C172.998 309.938 174.773 303.432 171.224 301.362C167.676 299.291 163.832 294.266 160.284 301.362Z" fill="white"/>
<path d="M160.284 301.362C160.284 301.362 159.1 335.367 158.213 342.76C157.326 350.152 156.144 351.334 157.032 352.814C157.918 354.291 167.085 357.839 170.337 357.839C173.589 357.839 174.773 358.136 175.069 354.291C175.365 350.447 172.408 322.947 172.702 316.443C172.998 309.938 174.773 303.432 171.224 301.362C167.676 299.291 163.832 294.266 160.284 301.362Z" stroke="#1A2E35" stroke-width="1.33333" stroke-miterlimit="10"/>
<path d="M203.682 282.733C203.682 282.733 186.235 288.648 175.294 292.196C164.354 295.744 160.51 295.448 159.918 298.996C159.326 302.544 159.918 302.544 161.397 303.137C162.875 303.728 165.831 306.094 167.311 310.529C168.789 314.964 170.267 318.513 172.337 318.513C174.407 318.513 204.865 313.781 209.891 311.71C214.918 309.642 216.987 309.05 216.397 305.797C215.806 302.544 215.51 296.928 214.326 290.125C213.145 283.324 208.413 280.958 203.682 282.733Z" fill="white"/>
<path d="M203.682 282.733C203.682 282.733 186.235 288.648 175.294 292.196C164.354 295.744 160.51 295.448 159.918 298.996C159.326 302.544 159.918 302.544 161.397 303.137C162.875 303.728 165.831 306.094 167.311 310.529C168.789 314.964 170.267 318.513 172.337 318.513C174.407 318.513 204.865 313.781 209.891 311.71C214.918 309.642 216.987 309.05 216.397 305.797C215.806 302.544 215.51 296.928 214.326 290.125C213.145 283.324 208.413 280.958 203.682 282.733Z" stroke="#1A2E35" stroke-width="1.33333" stroke-miterlimit="10" stroke-linejoin="round"/>
<path d="M179.208 310.824L181.869 333.001L186.304 331.523L183.072 309.676L179.208 310.824Z" fill="#1A2E35"/>
<path d="M179.208 310.824L181.869 333.001L186.304 331.523L183.072 309.676L179.208 310.824Z" stroke="#1A2E35" stroke-width="1.33333" stroke-miterlimit="10" stroke-linejoin="round"/>
<path d="M206.204 305.709L210.256 326.496L214.1 325.313L210.256 304.319L206.204 305.709Z" fill="#1A2E35"/>
<path d="M206.204 305.709L210.256 326.496L214.1 325.313L210.256 304.319L206.204 305.709Z" stroke="#1A2E35" stroke-width="1.33333" stroke-miterlimit="10" stroke-linejoin="round"/>
<path d="M157.622 269.427C157.622 269.427 167.379 267.356 179.207 264.399C191.037 261.443 201.977 257.895 201.977 257.895V261.147C201.977 261.147 188.67 265.287 181.574 266.766C174.477 268.243 167.675 269.13 166.493 269.427C165.31 269.723 161.761 270.61 159.987 271.2L158.213 271.791L157.622 269.427Z" fill="white"/>
<path d="M157.622 269.427C157.622 269.427 167.379 267.356 179.207 264.399C191.037 261.443 201.977 257.895 201.977 257.895V261.147C201.977 261.147 188.67 265.287 181.574 266.766C174.477 268.243 167.675 269.13 166.493 269.427C165.31 269.723 161.761 270.61 159.987 271.2L158.213 271.791L157.622 269.427Z" stroke="#1A2E35" stroke-width="1.33333" stroke-miterlimit="10" stroke-linejoin="round"/>
</svg>
