<svg width="648" height="609" viewBox="0 0 648 609" fill="none" xmlns="http://www.w3.org/2000/svg">
<path d="M600.111 261.017C600.111 261.017 592.111 128.835 486.777 64.5967C437.532 34.5648 376.877 15.6048 316.925 15.4394C257.443 15.2754 194.888 36.2875 165.511 87.1128C146.608 119.818 143.741 156.371 134.095 191.609C111.116 275.551 -9.2745 327.518 21.3828 425.527C30.4242 454.433 53.4855 478.279 80.5828 494.875C141.969 532.47 220.86 543.622 292.893 546.075C350.516 548.039 412.653 540.618 465.511 518.599C516.787 497.238 555.767 457.091 578.413 409.881C601.825 361.074 603.224 313.178 600.111 261.017Z" fill="#5AE4A7"/>
<g opacity="0.699997">
<g opacity="0.699997">
<path opacity="0.699997" d="M600.111 261.017C600.111 261.017 592.111 128.835 486.777 64.5967C437.532 34.5648 376.877 15.6048 316.925 15.4394C257.443 15.2754 194.888 36.2875 165.511 87.1128C146.608 119.818 143.741 156.371 134.095 191.609C111.116 275.551 -9.2745 327.518 21.3828 425.527C30.4242 454.433 53.4855 478.279 80.5828 494.875C141.969 532.47 220.86 543.622 292.893 546.075C350.516 548.039 412.653 540.618 465.511 518.599C516.787 497.238 555.767 457.091 578.413 409.881C601.825 361.074 603.224 313.178 600.111 261.017Z" fill="white"/>
</g>
</g>
<path d="M95.2612 460.066C97.6078 461.092 103.346 460.962 103.352 460.962C103.41 460.961 102.117 457.205 102.009 456.978C100.75 454.342 96.7665 449.993 93.5265 450.43C91.1932 450.746 89.8945 453.084 90.4212 455.281C90.9598 457.526 93.2625 459.193 95.2612 460.066Z" fill="#1A2E35"/>
<path d="M97.2415 476.691C99.6761 477.047 104.797 475.561 105.205 475.442C106.015 478.309 107.076 481.185 108.312 484.038C109.016 485.667 109.776 487.289 110.56 488.905C110.092 488.221 109.669 487.613 109.601 487.534C107.691 485.326 102.701 482.182 99.6921 483.459C97.5228 484.381 96.8881 486.977 97.9775 488.957C99.0881 490.981 101.751 491.981 103.908 492.295C106.099 492.614 110.491 491.437 111.649 491.109C111.956 491.725 112.256 492.343 112.565 492.959C114.048 495.913 115.541 498.854 116.917 501.782C117.403 502.815 117.843 503.849 118.287 504.883C117.871 504.274 117.516 503.767 117.453 503.695C115.544 501.487 110.553 498.342 107.544 499.621C105.376 500.542 104.74 503.138 105.829 505.118C106.941 507.142 109.603 508.142 111.761 508.457C113.851 508.762 117.915 507.71 119.293 507.327C119.716 508.398 120.141 509.471 120.503 510.53C120.733 511.258 121.007 511.941 121.196 512.685C121.401 513.418 121.603 514.143 121.803 514.862C122.139 516.258 122.493 517.698 122.785 519.069C122.996 520.021 123.18 520.933 123.367 521.85C122.896 520.817 121.931 518.814 121.831 518.655C120.277 516.183 115.823 512.321 112.653 513.127C110.371 513.71 109.349 516.179 110.127 518.302C110.919 520.47 113.397 521.862 115.483 522.499C117.779 523.202 122.863 522.559 123.497 522.477C123.803 523.995 124.084 525.475 124.328 526.877C124.873 529.969 125.285 532.741 125.597 535.087H127.741C127.367 532.659 126.879 529.769 126.232 526.521C125.929 524.977 125.575 523.333 125.195 521.65C125.576 521.497 127.744 520.619 129.667 519.547C131.34 521.359 135.628 523.481 136.184 523.75C135.6 525.185 135.019 526.575 134.448 527.879C133.263 530.609 132.136 533.027 131.141 535.087H133.46C134.315 533.189 135.253 531.027 136.233 528.633C136.832 527.177 137.443 525.61 138.055 523.997C138.671 524.125 143.703 525.147 146.048 524.617C148.175 524.137 150.752 522.934 151.704 520.83C152.636 518.773 151.801 516.233 149.568 515.482C146.469 514.441 141.737 517.961 140.004 520.311C139.901 520.449 138.96 522.077 138.383 523.114C138.629 522.453 138.876 521.814 139.121 521.13C139.617 519.782 140.071 518.422 140.564 516.961C140.777 516.246 140.993 515.525 141.212 514.797C141.443 514.078 141.596 513.29 141.795 512.531C142.216 510.762 142.556 508.946 142.86 507.111C144.041 507.542 148.26 509.01 150.445 508.857C152.621 508.703 155.351 507.903 156.609 505.97C157.843 504.075 157.403 501.439 155.309 500.359C152.403 498.861 147.193 501.623 145.124 503.683C144.993 503.811 143.676 505.457 142.968 506.374C143.141 505.27 143.321 504.167 143.46 503.046C143.863 499.803 144.168 496.509 144.489 493.223C144.587 492.218 144.696 491.217 144.801 490.214C145.22 490.371 150.197 492.223 152.645 492.051C154.82 491.898 157.549 491.099 158.809 489.165C160.043 487.271 159.603 484.634 157.508 483.554C154.603 482.055 149.392 484.819 147.323 486.879C147.167 487.034 145.272 489.403 144.82 490.03C145.053 487.821 145.307 485.622 145.644 483.465C146.105 480.487 146.724 477.591 147.529 474.83C147.724 474.902 152.909 476.859 155.416 476.683C157.592 476.531 160.321 475.731 161.58 473.797C162.815 471.903 162.375 469.267 160.28 468.187C157.373 466.689 152.164 469.451 150.095 471.511C149.933 471.673 147.896 474.223 147.559 474.713C147.608 474.549 147.64 474.373 147.689 474.21C148.587 471.273 149.825 468.541 151.111 466.038C151.853 464.583 152.647 463.234 153.447 461.939C154.376 462.402 158.641 464.474 160.915 464.565C163.095 464.651 165.895 464.158 167.359 462.373C168.793 460.625 168.645 457.957 166.683 456.654C163.959 454.845 158.477 457.019 156.193 458.838C156.071 458.938 154.919 460.083 154.093 460.93C154.463 460.35 154.833 459.746 155.199 459.199C156.567 457.138 157.947 455.337 159.181 453.75C159.891 452.854 160.549 452.057 161.175 451.319C162.323 451.299 166.949 451.159 168.972 450.21C170.945 449.281 173.204 447.553 173.681 445.294C174.148 443.082 172.788 440.782 170.445 440.53C167.195 440.179 163.331 444.635 162.143 447.303C162.041 447.534 160.849 451.323 160.909 451.323C160.909 451.323 160.965 451.322 160.979 451.322C160.363 452.021 159.712 452.775 159.017 453.617C157.744 455.179 156.323 456.955 154.905 458.995C153.483 461.029 151.993 463.277 150.64 465.787C149.28 468.302 147.979 471.017 146.999 473.987C146.987 474.019 146.98 474.057 146.968 474.09C146.985 473.133 146.943 470.453 146.916 470.247C146.541 467.351 144.115 461.977 140.899 461.383C138.581 460.954 136.62 462.77 136.436 465.022C136.247 467.323 137.915 469.625 139.543 471.078C141.376 472.718 146.468 474.303 146.873 474.429C145.965 477.266 145.265 480.251 144.723 483.311C144.409 485.061 144.151 486.831 143.912 488.611C143.9 487.783 143.883 487.043 143.869 486.941C143.493 484.043 141.067 478.669 137.851 478.075C135.535 477.647 133.573 479.462 133.388 481.715C133.2 484.014 134.868 486.318 136.493 487.771C138.145 489.245 142.459 490.685 143.605 491.051C143.52 491.734 143.429 492.417 143.348 493.101C142.956 496.382 142.579 499.658 142.109 502.861C141.945 503.99 141.741 505.094 141.543 506.201C141.531 505.465 141.515 504.845 141.503 504.751C141.128 501.855 138.7 496.481 135.485 495.886C133.168 495.458 131.207 497.274 131.021 499.526C130.833 501.826 132.501 504.129 134.129 505.582C135.703 506.99 139.673 508.354 141.033 508.795C140.796 509.922 140.557 511.053 140.276 512.134C140.067 512.867 139.916 513.589 139.665 514.315C139.432 515.038 139.2 515.755 138.971 516.463C138.48 517.814 137.981 519.211 137.469 520.515C137.12 521.426 136.769 522.286 136.42 523.155C136.597 522.034 136.897 519.83 136.901 519.645C136.945 517.705 136.257 514.553 134.887 512.334C134.895 512.049 134.879 511.763 134.833 511.479C134.475 509.247 132.377 507.59 130.101 508.197C126.941 509.038 124.937 514.585 124.788 517.499C124.779 517.671 124.892 519.549 124.983 520.731C124.823 520.045 124.676 519.375 124.504 518.67C124.172 517.274 123.8 515.887 123.407 514.395C123.191 513.682 122.972 512.962 122.752 512.234C122.549 511.507 122.243 510.766 121.989 510.023C121.364 508.315 120.648 506.613 119.888 504.915C121.111 504.622 125.439 503.519 127.177 502.186C128.908 500.858 130.741 498.686 130.725 496.378C130.709 494.117 128.889 492.162 126.547 492.415C123.296 492.769 120.475 497.947 119.884 500.807C119.848 500.986 119.656 503.085 119.572 504.241C119.107 503.223 118.648 502.206 118.144 501.193C116.692 498.266 115.131 495.349 113.585 492.434C113.111 491.541 112.651 490.645 112.185 489.75C112.621 489.65 117.795 488.449 119.741 486.955C121.471 485.629 123.307 483.457 123.289 481.149C123.273 478.887 121.452 476.933 119.111 477.186C115.86 477.541 113.039 482.719 112.448 485.578C112.404 485.793 112.131 488.815 112.1 489.586C111.076 487.615 110.073 485.642 109.164 483.657C107.907 480.918 106.824 478.162 105.973 475.414C106.177 475.367 111.581 474.139 113.575 472.609C115.305 471.281 117.14 469.109 117.124 466.802C117.108 464.542 115.287 462.586 112.944 462.839C109.693 463.193 106.872 468.371 106.283 471.231C106.236 471.455 105.944 474.707 105.935 475.299C105.883 475.135 105.813 474.973 105.765 474.809C104.893 471.863 104.419 468.901 104.111 466.106C103.928 464.482 103.845 462.919 103.797 461.397C104.828 461.273 109.529 460.646 111.476 459.467C113.341 458.337 115.404 456.381 115.641 454.085C115.873 451.835 114.277 449.691 111.923 449.687C108.652 449.681 105.279 454.519 104.379 457.297C104.329 457.447 104.001 459.038 103.78 460.201C103.769 459.513 103.744 458.803 103.748 458.146C103.752 455.673 103.908 453.409 104.064 451.405C104.16 450.266 104.271 449.238 104.385 448.277C105.331 447.626 109.112 444.957 110.276 443.05C111.411 441.187 112.34 438.499 111.492 436.353C110.661 434.25 108.259 433.082 106.165 434.163C103.261 435.665 102.496 441.513 102.977 444.393C103.019 444.642 104.116 448.459 104.165 448.427C104.165 448.427 104.212 448.394 104.223 448.386C104.095 449.31 103.968 450.299 103.852 451.385C103.653 453.389 103.447 455.657 103.389 458.138C103.324 460.618 103.324 463.315 103.58 466.157C103.833 469.003 104.244 471.986 105.065 475.003C105.075 475.038 105.089 475.073 105.099 475.107C104.584 474.298 103.071 472.087 102.935 471.93C101.024 469.721 96.0348 466.578 93.0255 467.857C90.8561 468.777 90.2215 471.374 91.3108 473.354C92.4228 475.378 95.0841 476.378 97.2415 476.691Z" fill="#1A2E35"/>
<path d="M153.315 461.329C153.366 461.36 154.359 457.514 154.394 457.264C154.796 454.373 153.874 448.548 150.93 447.125C148.808 446.1 146.438 447.333 145.664 449.458C144.875 451.626 145.875 454.288 147.062 456.118C148.452 458.268 153.311 461.326 153.315 461.329Z" fill="#1A2E35"/>
<path d="M34.1902 517.68C35.5929 518.293 39.0235 518.214 39.0262 518.214C39.0622 518.214 38.2889 515.969 38.2235 515.833C37.4715 514.258 35.0902 511.657 33.1529 511.92C31.7582 512.108 30.9822 513.505 31.2969 514.818C31.6182 516.161 32.9955 517.157 34.1902 517.68Z" fill="#1A2E35"/>
<path d="M35.3744 527.618C36.8291 527.83 39.8918 526.942 40.1344 526.87C40.6184 528.585 41.2531 530.305 41.9918 532.01C42.4131 532.984 42.8678 533.954 43.3358 534.921C43.0571 534.51 42.8038 534.146 42.7638 534.1C41.6211 532.78 38.6384 530.901 36.8398 531.665C35.5424 532.214 35.1624 533.766 35.8144 534.952C36.4784 536.16 38.0691 536.758 39.3598 536.946C40.6691 537.138 43.2944 536.432 43.9864 536.237C44.1704 536.605 44.3491 536.976 44.5344 537.344C45.4211 539.109 46.3144 540.868 47.1358 542.618C47.4264 543.236 47.6891 543.854 47.9558 544.472C47.7064 544.108 47.4944 543.805 47.4571 543.761C46.3158 542.441 43.3318 540.562 41.5331 541.325C40.2371 541.876 39.8571 543.428 40.5078 544.612C41.1731 545.821 42.7638 546.421 44.0544 546.608C45.3038 546.79 47.7331 546.161 48.5571 545.932C48.8091 546.573 49.0638 547.214 49.2798 547.848C49.4184 548.282 49.5811 548.692 49.6944 549.136C49.8171 549.574 49.9371 550.008 50.0571 550.436C50.2584 551.272 50.4704 552.133 50.6451 552.952C50.7704 553.521 50.8798 554.066 50.9918 554.614C50.7104 553.997 50.1331 552.8 50.0744 552.704C49.1464 551.226 46.4824 548.918 44.5878 549.401C43.2224 549.749 42.6118 551.225 43.0771 552.493C43.5504 553.789 45.0331 554.622 46.2798 555.002C47.6518 555.424 50.6904 555.038 51.0704 554.988C51.2531 555.897 51.4211 556.782 51.5678 557.62C51.8931 559.469 52.1384 561.125 52.3251 562.528H53.6064C53.3838 561.077 53.0918 559.348 52.7051 557.406C52.5238 556.484 52.3118 555.501 52.0851 554.494C52.3131 554.404 53.6091 553.878 54.7584 553.238C55.7584 554.321 58.3224 555.59 58.6531 555.75C58.3051 556.608 57.9571 557.44 57.6171 558.218C56.9078 559.85 56.2344 561.297 55.6398 562.528H57.0251C57.5371 561.393 58.0984 560.101 58.6838 558.669C59.0411 557.8 59.4064 556.864 59.7731 555.898C60.1411 555.976 63.1491 556.586 64.5518 556.269C65.8224 555.981 67.3638 555.261 67.9318 554.005C68.4891 552.774 67.9904 551.257 66.6558 550.809C64.8024 550.185 61.9744 552.29 60.9384 553.696C60.8771 553.777 60.3144 554.75 59.9691 555.369C60.1171 554.976 60.2638 554.593 60.4104 554.185C60.7078 553.378 60.9784 552.565 61.2731 551.692C61.4011 551.264 61.5291 550.833 61.6598 550.398C61.7984 549.969 61.8904 549.497 62.0091 549.044C62.2611 547.985 62.4638 546.901 62.6451 545.805C63.3518 546.061 65.8744 546.938 67.1798 546.846C68.4811 546.756 70.1118 546.277 70.8651 545.121C71.6024 543.989 71.3398 542.413 70.0878 541.766C68.3504 540.87 65.2358 542.524 63.9984 543.756C63.9211 543.83 63.1331 544.814 62.7104 545.364C62.8144 544.702 62.9211 544.044 63.0038 543.372C63.2451 541.434 63.4278 539.465 63.6198 537.501C63.6771 536.9 63.7424 536.301 63.8064 535.701C64.0571 535.796 67.0318 536.904 68.4944 536.801C69.7958 536.709 71.4278 536.232 72.1798 535.076C72.9171 533.942 72.6544 532.368 71.4024 531.721C69.6651 530.825 66.5504 532.478 65.3131 533.708C65.2198 533.801 64.0878 535.217 63.8171 535.592C63.9571 534.272 64.1078 532.957 64.3104 531.666C64.5864 529.886 64.9558 528.156 65.4371 526.505C65.5531 526.549 68.6531 527.718 70.1518 527.614C71.4531 527.522 73.0838 527.044 73.8371 525.888C74.5744 524.757 74.3118 523.18 73.0598 522.534C71.3211 521.638 68.2078 523.29 66.9704 524.522C66.8731 524.618 65.6558 526.144 65.4544 526.434C65.4838 526.337 65.5024 526.232 65.5331 526.136C66.0691 524.378 66.8104 522.745 67.5771 521.25C68.0224 520.38 68.4958 519.573 68.9744 518.8C69.5291 519.076 72.0798 520.313 73.4384 520.369C74.7411 520.421 76.4158 520.125 77.2904 519.058C78.1491 518.014 78.0598 516.42 76.8864 515.64C75.2584 514.558 71.9811 515.858 70.6171 516.945C70.5424 517.005 69.8544 517.69 69.3611 518.197C69.5811 517.85 69.8038 517.488 70.0224 517.161C70.8398 515.929 71.6638 514.853 72.4024 513.904C72.8264 513.368 73.2198 512.892 73.5944 512.45C74.2798 512.438 77.0464 512.354 78.2558 511.786C79.4358 511.233 80.7851 510.2 81.0704 508.849C81.3491 507.528 80.5371 506.15 79.1371 506.001C77.1931 505.792 74.8838 508.454 74.1731 510.049C74.1118 510.188 73.3998 512.453 73.4358 512.453C73.4358 512.453 73.4691 512.452 73.4771 512.452C73.1091 512.869 72.7198 513.321 72.3038 513.824C71.5438 514.758 70.6931 515.82 69.8464 517.038C68.9958 518.256 68.1064 519.598 67.2971 521.1C66.4838 522.602 65.7051 524.225 65.1198 526.001C65.1131 526.021 65.1078 526.042 65.1011 526.064C65.1118 525.49 65.0864 523.889 65.0704 523.765C64.8464 522.036 63.3958 518.821 61.4731 518.466C60.0878 518.21 58.9158 519.296 58.8051 520.642C58.6918 522.018 59.6891 523.394 60.6611 524.262C61.7584 525.242 64.8024 526.192 65.0451 526.265C64.5024 527.962 64.0838 529.746 63.7584 531.576C63.5718 532.622 63.4171 533.681 63.2744 534.745C63.2664 534.25 63.2571 533.806 63.2491 533.745C63.0238 532.013 61.5731 528.801 59.6518 528.445C58.2664 528.189 57.0931 529.274 56.9838 530.621C56.8704 531.996 57.8678 533.372 58.8398 534.242C59.8264 535.122 62.4051 535.984 63.0904 536.201C63.0411 536.61 62.9851 537.02 62.9371 537.426C62.7024 539.389 62.4771 541.348 62.1971 543.262C62.0984 543.937 61.9771 544.597 61.8571 545.258C61.8504 544.818 61.8411 544.449 61.8344 544.393C61.6091 542.661 60.1584 539.449 58.2371 539.093C56.8518 538.837 55.6784 539.922 55.5691 541.269C55.4558 542.645 56.4531 544.021 57.4264 544.889C58.3664 545.73 60.7398 546.546 61.5531 546.81C61.4104 547.484 61.2691 548.158 61.0998 548.806C60.9758 549.245 60.8851 549.676 60.7358 550.109C60.5958 550.541 60.4571 550.972 60.3198 551.394C60.0264 552.201 59.7291 553.036 59.4224 553.816C59.2144 554.361 59.0051 554.876 58.7958 555.394C58.9011 554.724 59.0811 553.408 59.0838 553.296C59.1104 552.137 58.6984 550.252 57.8784 548.925C57.8838 548.756 57.8744 548.585 57.8464 548.416C57.6318 547.081 56.3784 546.09 55.0171 546.452C53.1291 546.956 51.9304 550.27 51.8424 552.014C51.8358 552.117 51.9038 553.24 51.9584 553.946C51.8624 553.534 51.7744 553.136 51.6718 552.713C51.4744 551.878 51.2518 551.05 51.0158 550.158C50.8864 549.732 50.7571 549.301 50.6251 548.866C50.5038 548.432 50.3198 547.988 50.1678 547.544C49.7944 546.524 49.3664 545.506 48.9118 544.49C49.6438 544.316 52.2318 543.656 53.2704 542.86C54.3038 542.065 55.4011 540.766 55.3918 539.386C55.3811 538.036 54.2931 536.868 52.8931 537.018C50.9504 537.229 49.2638 540.325 48.9104 542.036C48.8878 542.142 48.7731 543.397 48.7238 544.088C48.4451 543.48 48.1718 542.87 47.8704 542.265C47.0024 540.516 46.0691 538.772 45.1451 537.029C44.8611 536.494 44.5851 535.96 44.3078 535.424C44.5691 535.365 47.6611 534.646 48.8251 533.756C49.8584 532.961 50.9558 531.662 50.9464 530.282C50.9358 528.932 49.8478 527.761 48.4478 527.914C46.5038 528.125 44.8184 531.221 44.4651 532.93C44.4384 533.06 44.2758 534.866 44.2571 535.326C43.6451 534.148 43.0451 532.969 42.5024 531.781C41.7504 530.145 41.1024 528.497 40.5944 526.854C40.7158 526.826 43.9464 526.092 45.1384 525.178C46.1731 524.384 47.2691 523.086 47.2598 521.705C47.2504 520.356 46.1611 519.186 44.7624 519.337C42.8184 519.548 41.1318 522.645 40.7798 524.354C40.7518 524.488 40.5771 526.432 40.5704 526.786C40.5411 526.689 40.4984 526.59 40.4691 526.493C39.9491 524.732 39.6651 522.961 39.4811 521.29C39.3718 520.318 39.3211 519.385 39.2931 518.476C39.9091 518.401 42.7198 518.026 43.8838 517.321C44.9984 516.646 46.2318 515.477 46.3744 514.104C46.5131 512.76 45.5584 511.478 44.1504 511.476C42.1958 511.472 40.1798 514.364 39.6411 516.024C39.6118 516.114 39.4158 517.065 39.2824 517.76C39.2758 517.349 39.2624 516.924 39.2638 516.532C39.2664 515.053 39.3598 513.7 39.4531 512.501C39.5104 511.82 39.5771 511.205 39.6451 510.633C40.2104 510.244 42.4704 508.646 43.1664 507.506C43.8451 506.393 44.3998 504.786 43.8931 503.504C43.3971 502.246 41.9598 501.548 40.7091 502.196C38.9731 503.092 38.5158 506.589 38.8024 508.31C38.8278 508.458 39.4838 510.741 39.5131 510.721C39.5131 510.721 39.5411 510.701 39.5478 510.698C39.4704 511.249 39.3958 511.841 39.3264 512.489C39.2078 513.688 39.0838 515.042 39.0491 516.528C39.0104 518.01 39.0104 519.622 39.1638 521.32C39.3144 523.022 39.5611 524.806 40.0518 526.609C40.0571 526.63 40.0664 526.65 40.0704 526.67C39.7638 526.188 38.8584 524.866 38.7771 524.772C37.6358 523.452 34.6518 521.573 32.8531 522.336C31.5571 522.886 31.1771 524.438 31.8278 525.624C32.4931 526.832 34.0838 527.43 35.3744 527.618Z" fill="#1A2E35"/>
<path d="M68.8953 518.435C68.9246 518.453 69.5193 516.153 69.5406 516.005C69.7806 514.276 69.23 510.795 67.47 509.944C66.2006 509.331 64.7846 510.068 64.322 511.337C63.85 512.633 64.4486 514.225 65.1566 515.32C65.9886 516.605 68.894 518.433 68.8953 518.435Z" fill="#1A2E35"/>
<path d="M530.72 380.275C528.373 381.3 522.635 381.171 522.631 381.171C522.571 381.168 523.863 377.413 523.972 377.185C525.232 374.551 529.213 370.2 532.455 370.637C534.789 370.955 536.087 373.291 535.56 375.488C535.023 377.733 532.719 379.401 530.72 380.275Z" fill="#1A2E35"/>
<path d="M528.74 396.9C526.305 397.254 521.182 395.768 520.776 395.649C519.968 398.516 518.905 401.393 517.669 404.245C516.965 405.876 516.205 407.497 515.422 409.113C515.888 408.428 516.312 407.82 516.378 407.741C518.29 405.533 523.28 402.389 526.289 403.668C528.458 404.589 529.093 407.184 528.004 409.165C526.893 411.188 524.23 412.189 522.073 412.502C519.882 412.822 515.489 411.644 514.332 411.317C514.025 411.932 513.725 412.552 513.416 413.166C511.933 416.121 510.44 419.061 509.064 421.99C508.578 423.022 508.138 424.057 507.694 425.09C508.109 424.482 508.465 423.976 508.528 423.902C510.437 421.696 515.428 418.55 518.437 419.829C520.605 420.75 521.241 423.346 520.153 425.326C519.04 427.349 516.378 428.35 514.22 428.664C512.13 428.969 508.066 427.917 506.688 427.536C506.265 428.606 505.84 429.68 505.478 430.737C505.248 431.465 504.974 432.149 504.785 432.893C504.58 433.625 504.378 434.35 504.177 435.069C503.842 436.466 503.488 437.905 503.196 439.276C502.985 440.229 502.801 441.14 502.613 442.057C503.085 441.025 504.049 439.021 504.15 438.864C505.704 436.39 510.158 432.529 513.328 433.336C515.61 433.918 516.632 436.386 515.856 438.509C515.062 440.677 512.584 442.069 510.497 442.706C508.202 443.409 503.117 442.768 502.484 442.684C502.178 444.202 501.896 445.682 501.653 447.085C501.108 450.177 500.697 452.948 500.384 455.294H498.24C498.613 452.868 499.102 449.976 499.749 446.728C500.05 445.185 500.406 443.541 500.786 441.857C500.404 441.705 498.236 440.828 496.316 439.754C494.642 441.566 490.353 443.688 489.798 443.957C490.381 445.393 490.962 446.782 491.533 448.086C492.718 450.816 493.845 453.236 494.838 455.294H492.522C491.666 453.397 490.726 451.234 489.748 448.84C489.149 447.385 488.538 445.817 487.926 444.205C487.312 444.332 482.278 445.354 479.933 444.825C477.806 444.345 475.229 443.141 474.276 441.038C473.344 438.98 474.178 436.44 476.413 435.69C479.512 434.649 484.244 438.169 485.977 440.518C486.08 440.657 487.021 442.285 487.598 443.321C487.352 442.66 487.104 442.022 486.86 441.338C486.364 439.989 485.91 438.63 485.417 437.168C485.204 436.454 484.988 435.732 484.769 435.004C484.538 434.285 484.384 433.497 484.186 432.74C483.765 430.969 483.425 429.154 483.121 427.32C481.938 427.75 477.721 429.217 475.536 429.064C473.36 428.91 470.632 428.112 469.372 426.177C468.138 424.284 468.578 421.648 470.672 420.566C473.578 419.068 478.788 421.832 480.858 423.89C480.988 424.02 482.306 425.664 483.012 426.582C482.838 425.478 482.66 424.376 482.521 423.253C482.118 420.01 481.813 416.716 481.492 413.43C481.394 412.425 481.285 411.424 481.18 410.421C480.761 410.578 475.784 412.43 473.336 412.26C471.16 412.106 468.432 411.308 467.172 409.372C465.938 407.48 466.378 404.842 468.473 403.762C471.378 402.264 476.589 405.028 478.657 407.086C478.814 407.242 480.709 409.612 481.16 410.237C480.928 408.029 480.674 405.829 480.336 403.672C479.876 400.694 479.258 397.798 478.452 395.037C478.257 395.11 473.072 397.068 470.565 396.892C468.389 396.738 465.66 395.938 464.4 394.005C463.166 392.11 463.606 389.476 465.701 388.394C468.606 386.896 473.817 389.658 475.886 391.718C476.048 391.88 478.086 394.43 478.422 394.92C478.374 394.757 478.341 394.581 478.292 394.418C477.393 391.481 476.156 388.748 474.87 386.246C474.126 384.79 473.334 383.441 472.534 382.146C471.605 382.609 467.338 384.681 465.065 384.772C462.886 384.86 460.086 384.365 458.622 382.581C457.188 380.833 457.336 378.164 459.298 376.861C462.022 375.052 467.504 377.226 469.786 379.046C469.912 379.146 471.061 380.292 471.888 381.138C471.518 380.558 471.148 379.954 470.781 379.406C469.414 377.346 468.034 375.544 466.8 373.958C466.09 373.062 465.432 372.265 464.806 371.528C463.658 371.506 459.032 371.366 457.008 370.417C455.036 369.489 452.777 367.761 452.3 365.501C451.832 363.29 453.193 360.989 455.536 360.738C458.786 360.388 462.65 364.842 463.837 367.51C463.94 367.741 465.132 371.532 465.072 371.53H465.001C465.617 372.228 466.269 372.984 466.965 373.824C468.236 375.386 469.658 377.164 471.076 379.202C472.498 381.236 473.988 383.484 475.34 385.994C476.701 388.509 478.002 391.224 478.984 394.194C478.993 394.228 479.001 394.264 479.012 394.298C478.994 393.34 479.038 390.66 479.064 390.456C479.44 387.56 481.866 382.185 485.082 381.59C487.398 381.162 489.361 382.977 489.545 385.229C489.733 387.53 488.066 389.833 486.438 391.286C484.604 392.925 479.513 394.512 479.108 394.637C480.016 397.474 480.714 400.46 481.26 403.52C481.57 405.268 481.83 407.04 482.069 408.82C482.081 407.99 482.098 407.25 482.112 407.148C482.488 404.252 484.914 398.877 488.13 398.282C490.446 397.854 492.409 399.669 492.593 401.922C492.781 404.222 491.113 406.525 489.488 407.978C487.836 409.452 483.522 410.892 482.377 411.258C482.46 411.941 482.552 412.624 482.633 413.308C483.026 416.59 483.402 419.866 483.872 423.068C484.036 424.197 484.238 425.302 484.438 426.409C484.45 425.673 484.466 425.053 484.478 424.958C484.854 422.062 487.28 416.689 490.494 416.094C492.813 415.666 494.774 417.481 494.96 419.734C495.149 422.034 493.48 424.337 491.853 425.789C490.278 427.197 486.308 428.561 484.948 429.002C485.186 430.13 485.424 431.26 485.705 432.341C485.914 433.076 486.065 433.797 486.317 434.522C486.549 435.245 486.781 435.962 487.009 436.672C487.501 438.022 487.998 439.418 488.512 440.722C488.861 441.634 489.212 442.494 489.56 443.364C489.384 442.241 489.084 440.038 489.08 439.852C489.036 437.913 489.724 434.76 491.096 432.541C491.086 432.257 491.102 431.97 491.149 431.686C491.506 429.454 493.602 427.797 495.88 428.404C499.04 429.245 501.045 434.792 501.193 437.706C501.202 437.878 501.09 439.757 500.998 440.94C501.158 440.253 501.305 439.584 501.477 438.877C501.809 437.481 502.181 436.094 502.574 434.602C502.79 433.89 503.009 433.169 503.229 432.441C503.432 431.714 503.738 430.974 503.992 430.232C504.617 428.524 505.333 426.821 506.094 425.124C504.87 424.83 500.542 423.726 498.804 422.393C497.073 421.066 495.238 418.893 495.256 416.586C495.27 414.325 497.092 412.369 499.434 412.624C502.685 412.977 505.506 418.154 506.097 421.014C506.133 421.194 506.325 423.293 506.409 424.448C506.874 423.43 507.333 422.414 507.836 421.4C509.289 418.474 510.85 415.557 512.396 412.641C512.87 411.748 513.33 410.853 513.797 409.957C513.36 409.858 508.186 408.657 506.24 407.164C504.51 405.836 502.674 403.664 502.692 401.356C502.708 399.096 504.529 397.14 506.87 397.394C510.121 397.748 512.942 402.926 513.533 405.785C513.577 406.001 513.849 409.022 513.881 409.794C514.905 407.822 515.908 405.849 516.817 403.864C518.074 401.125 519.157 398.37 520.008 395.621C519.805 395.576 514.4 394.346 512.406 392.817C510.676 391.489 508.84 389.317 508.857 387.009C508.873 384.749 510.694 382.793 513.037 383.048C516.288 383.401 519.108 388.58 519.698 391.438C519.745 391.664 520.037 394.914 520.046 395.506C520.098 395.344 520.168 395.18 520.216 395.017C521.088 392.07 521.562 389.108 521.87 386.313C522.053 384.69 522.136 383.128 522.184 381.605C521.154 381.48 516.452 380.854 514.505 379.676C512.64 378.545 510.577 376.589 510.34 374.293C510.108 372.044 511.704 369.9 514.058 369.896C517.328 369.889 520.702 374.726 521.601 377.504C521.652 377.656 521.98 379.246 522.201 380.408C522.212 379.721 522.236 379.012 522.233 378.353C522.228 375.88 522.073 373.616 521.918 371.612C521.821 370.473 521.71 369.445 521.597 368.485C520.65 367.834 516.869 365.165 515.705 363.257C514.569 361.394 513.641 358.706 514.489 356.56C515.32 354.458 517.722 353.29 519.816 354.372C522.72 355.872 523.485 361.72 523.004 364.6C522.962 364.849 521.865 368.666 521.816 368.634C521.816 368.634 521.769 368.602 521.758 368.594C521.886 369.517 522.012 370.508 522.128 371.593C522.326 373.596 522.534 375.864 522.592 378.346C522.657 380.825 522.657 383.524 522.401 386.364C522.148 389.21 521.737 392.194 520.916 395.212C520.906 395.246 520.892 395.28 520.881 395.314C521.397 394.506 522.912 392.294 523.046 392.138C524.957 389.929 529.946 386.786 532.956 388.064C535.124 388.985 535.76 391.581 534.67 393.562C533.558 395.585 530.897 396.585 528.74 396.9Z" fill="#1A2E35"/>
<path d="M472.667 381.536C472.616 381.568 471.623 377.723 471.587 377.472C471.185 374.58 472.107 368.755 475.052 367.334C477.172 366.308 479.544 367.542 480.316 369.666C481.105 371.835 480.105 374.496 478.919 376.327C477.528 378.476 472.669 381.534 472.667 381.536Z" fill="#1A2E35"/>
<path d="M565.971 415.258C564.569 415.87 561.137 415.792 561.134 415.792C561.099 415.791 561.873 413.547 561.938 413.41C562.69 411.836 565.07 409.235 567.007 409.498C568.403 409.686 569.179 411.082 568.865 412.396C568.543 413.738 567.166 414.734 565.971 415.258Z" fill="#1A2E35"/>
<path d="M564.787 425.195C563.332 425.407 560.269 424.519 560.027 424.447C559.543 426.163 558.908 427.882 558.169 429.587C557.749 430.562 557.293 431.531 556.825 432.498C557.104 432.088 557.357 431.723 557.399 431.676C558.54 430.356 561.524 428.478 563.321 429.242C564.619 429.792 564.999 431.343 564.348 432.528C563.684 433.738 562.092 434.335 560.803 434.523C559.492 434.715 556.868 434.01 556.175 433.814C555.991 434.182 555.812 434.554 555.627 434.92C554.74 436.686 553.848 438.444 553.025 440.195C552.735 440.812 552.472 441.431 552.205 442.048C552.455 441.684 552.667 441.382 552.704 441.338C553.847 440.018 556.829 438.139 558.628 438.903C559.925 439.454 560.305 441.006 559.653 442.19C558.988 443.399 557.397 443.998 556.107 444.184C554.859 444.367 552.428 443.738 551.604 443.51C551.352 444.151 551.097 444.791 550.881 445.424C550.744 445.859 550.581 446.268 550.467 446.714C550.344 447.151 550.224 447.584 550.104 448.014C549.904 448.848 549.692 449.71 549.517 450.53C549.391 451.099 549.281 451.643 549.169 452.191C549.451 451.574 550.028 450.376 550.088 450.282C551.016 448.804 553.68 446.495 555.575 446.978C556.939 447.326 557.549 448.802 557.085 450.07C556.611 451.367 555.129 452.199 553.881 452.58C552.509 453 549.471 452.616 549.092 452.566C548.909 453.474 548.74 454.359 548.593 455.196C548.268 457.046 548.023 458.703 547.836 460.106H546.555C546.777 458.654 547.071 456.926 547.456 454.984C547.637 454.06 547.849 453.079 548.077 452.071C547.848 451.98 546.552 451.456 545.404 450.815C544.403 451.898 541.839 453.167 541.508 453.328C541.856 454.186 542.204 455.016 542.544 455.795C543.255 457.427 543.927 458.874 544.521 460.106H543.136C542.625 458.97 542.063 457.678 541.479 456.246C541.12 455.376 540.755 454.44 540.388 453.475C540.021 453.552 537.012 454.163 535.609 453.846C534.339 453.558 532.799 452.839 532.229 451.582C531.672 450.351 532.171 448.834 533.505 448.386C535.359 447.763 538.187 449.867 539.223 451.272C539.284 451.354 539.848 452.328 540.193 452.947C540.044 452.552 539.897 452.17 539.751 451.762C539.455 450.955 539.184 450.143 538.888 449.27C538.76 448.842 538.632 448.41 538.501 447.975C538.364 447.546 538.271 447.075 538.152 446.62C537.901 445.562 537.697 444.478 537.516 443.382C536.811 443.638 534.288 444.515 532.981 444.424C531.681 444.332 530.049 443.855 529.297 442.698C528.559 441.566 528.821 439.99 530.073 439.344C531.812 438.448 534.925 440.1 536.163 441.332C536.24 441.408 537.029 442.391 537.451 442.94C537.348 442.279 537.241 441.62 537.157 440.95C536.917 439.011 536.733 437.043 536.541 435.079C536.484 434.476 536.419 433.879 536.356 433.278C536.104 433.374 533.131 434.48 531.667 434.378C530.367 434.286 528.735 433.808 527.981 432.652C527.244 431.52 527.507 429.944 528.759 429.299C530.496 428.402 533.611 430.055 534.848 431.286C534.941 431.379 536.073 432.795 536.344 433.168C536.204 431.848 536.053 430.535 535.852 429.244C535.576 427.464 535.205 425.732 534.724 424.082C534.608 424.126 531.508 425.296 530.009 425.191C528.708 425.1 527.077 424.622 526.324 423.466C525.588 422.334 525.851 420.758 527.101 420.111C528.84 419.216 531.953 420.867 533.192 422.099C533.288 422.195 534.505 423.72 534.707 424.012C534.677 423.914 534.659 423.81 534.629 423.712C534.092 421.955 533.352 420.323 532.584 418.827C532.14 417.956 531.665 417.151 531.188 416.376C530.632 416.654 528.081 417.891 526.723 417.946C525.42 417.999 523.745 417.702 522.871 416.635C522.013 415.591 522.101 413.996 523.275 413.218C524.903 412.135 528.18 413.435 529.544 414.523C529.619 414.582 530.308 415.267 530.801 415.774C530.58 415.427 530.359 415.064 530.14 414.738C529.321 413.506 528.497 412.43 527.759 411.482C527.335 410.944 526.941 410.47 526.568 410.027C525.881 410.015 523.115 409.932 521.905 409.364C520.725 408.81 519.376 407.776 519.091 406.426C518.812 405.104 519.625 403.728 521.025 403.578C522.969 403.368 525.277 406.032 525.988 407.626C526.049 407.764 526.761 410.03 526.725 410.03H526.684C527.052 410.446 527.441 410.899 527.857 411.4C528.617 412.335 529.468 413.396 530.315 414.615C531.165 415.832 532.055 417.175 532.865 418.676C533.677 420.179 534.456 421.803 535.041 423.579C535.048 423.599 535.053 423.62 535.06 423.64C535.049 423.067 535.075 421.466 535.092 421.343C535.315 419.612 536.765 416.399 538.689 416.044C540.073 415.787 541.247 416.872 541.357 418.22C541.469 419.595 540.472 420.971 539.5 421.839C538.403 422.819 535.36 423.768 535.116 423.843C535.659 425.539 536.079 427.324 536.403 429.154C536.589 430.199 536.745 431.258 536.887 432.322C536.895 431.827 536.904 431.384 536.913 431.322C537.137 429.591 538.588 426.378 540.511 426.022C541.895 425.767 543.068 426.851 543.179 428.198C543.291 429.574 542.293 430.95 541.321 431.819C540.335 432.7 537.756 433.56 537.071 433.779C537.121 434.188 537.176 434.596 537.224 435.004C537.459 436.966 537.684 438.926 537.964 440.839C538.063 441.514 538.184 442.175 538.304 442.836C538.311 442.396 538.32 442.026 538.327 441.97C538.552 440.238 540.003 437.026 541.925 436.67C543.311 436.415 544.483 437.5 544.592 438.846C544.705 440.222 543.708 441.599 542.736 442.466C541.795 443.307 539.421 444.123 538.608 444.388C538.751 445.06 538.892 445.736 539.061 446.383C539.187 446.822 539.276 447.252 539.425 447.687C539.565 448.119 539.704 448.548 539.841 448.972C540.135 449.779 540.432 450.614 540.739 451.394C540.947 451.939 541.156 452.452 541.367 452.972C541.26 452.302 541.081 450.984 541.079 450.874C541.051 449.714 541.463 447.83 542.283 446.503C542.277 446.332 542.288 446.162 542.315 445.992C542.529 444.658 543.783 443.667 545.144 444.03C547.033 444.532 548.231 447.848 548.319 449.591C548.325 449.694 548.259 450.816 548.203 451.523C548.299 451.112 548.387 450.712 548.489 450.291C548.688 449.455 548.911 448.627 549.147 447.735C549.275 447.31 549.405 446.879 549.536 446.443C549.657 446.008 549.841 445.566 549.993 445.122C550.368 444.1 550.795 443.083 551.249 442.068C550.517 441.892 547.929 441.234 546.891 440.436C545.857 439.643 544.76 438.343 544.769 436.964C544.78 435.612 545.868 434.444 547.268 434.596C549.211 434.807 550.899 437.902 551.252 439.612C551.273 439.719 551.388 440.974 551.437 441.666C551.716 441.056 551.989 440.448 552.291 439.842C553.159 438.094 554.092 436.35 555.017 434.607C555.3 434.072 555.576 433.536 555.855 433.002C555.592 432.943 552.5 432.224 551.336 431.332C550.303 430.539 549.205 429.239 549.215 427.859C549.225 426.508 550.315 425.339 551.713 425.492C553.657 425.703 555.344 428.798 555.697 430.507C555.723 430.636 555.885 432.443 555.905 432.904C556.517 431.726 557.116 430.547 557.659 429.359C558.412 427.723 559.059 426.074 559.568 424.432C559.445 424.403 556.215 423.668 555.023 422.755C553.988 421.962 552.892 420.663 552.901 419.283C552.911 417.932 554 416.763 555.4 416.915C557.343 417.126 559.031 420.222 559.381 421.931C559.411 422.066 559.585 424.008 559.592 424.363C559.621 424.266 559.663 424.167 559.692 424.07C560.212 422.31 560.496 420.539 560.681 418.867C560.791 417.896 560.84 416.962 560.868 416.054C560.252 415.978 557.441 415.604 556.277 414.899C555.163 414.223 553.929 413.054 553.788 411.68C553.648 410.336 554.603 409.055 556.011 409.052C557.967 409.048 559.981 411.942 560.521 413.602C560.549 413.691 560.747 414.642 560.879 415.336C560.885 414.926 560.9 414.502 560.897 414.11C560.895 412.63 560.803 411.278 560.708 410.079C560.651 409.398 560.585 408.783 560.517 408.21C559.951 407.82 557.691 406.223 556.995 405.084C556.316 403.97 555.761 402.364 556.268 401.08C556.764 399.824 558.203 399.126 559.452 399.772C561.189 400.668 561.647 404.166 561.359 405.888C561.333 406.036 560.677 408.318 560.648 408.298C560.648 408.298 560.62 408.279 560.613 408.275C560.691 408.827 560.765 409.418 560.835 410.066C560.955 411.266 561.077 412.619 561.112 414.104C561.151 415.587 561.151 417.199 560.997 418.896C560.847 420.6 560.6 422.383 560.109 424.187C560.104 424.207 560.095 424.227 560.091 424.248C560.397 423.766 561.303 422.443 561.384 422.348C562.527 421.028 565.509 419.15 567.308 419.914C568.604 420.464 568.984 422.016 568.333 423.2C567.668 424.41 566.077 425.007 564.787 425.195Z" fill="#1A2E35"/>
<path d="M531.266 416.012C531.236 416.032 530.642 413.732 530.622 413.582C530.38 411.853 530.931 408.372 532.691 407.521C533.96 406.909 535.378 407.645 535.84 408.916C536.311 410.21 535.714 411.802 535.004 412.897C534.174 414.182 531.268 416.01 531.266 416.012Z" fill="#1A2E35"/>
<path d="M604.326 486.704C601.979 487.73 596.24 487.6 596.235 487.6C596.176 487.599 597.468 483.843 597.578 483.615C598.836 480.98 602.819 476.631 606.06 477.068C608.394 477.384 609.692 479.72 609.166 481.918C608.627 484.164 606.324 485.831 604.326 486.704Z" fill="#1A2E35"/>
<path d="M602.345 503.329C599.91 503.685 594.788 502.199 594.381 502.08C593.572 504.947 592.51 507.823 591.274 510.675C590.57 512.305 589.81 513.927 589.026 515.543C589.493 514.859 589.917 514.249 589.984 514.172C591.896 511.964 596.885 508.819 599.894 510.097C602.064 511.019 602.698 513.615 601.609 515.595C600.497 517.619 597.836 518.619 595.677 518.932C593.486 519.252 589.094 518.073 587.936 517.747C587.63 518.363 587.33 518.981 587.021 519.597C585.538 522.551 584.045 525.491 582.669 528.42C582.184 529.453 581.744 530.487 581.3 531.521C581.714 530.912 582.07 530.405 582.133 530.332C584.042 528.125 589.033 524.98 592.041 526.259C594.21 527.18 594.846 529.776 593.757 531.756C592.645 533.78 589.984 534.78 587.825 535.093C585.736 535.399 581.67 534.348 580.293 533.965C579.87 535.036 579.445 536.109 579.084 537.167C578.853 537.895 578.58 538.579 578.389 539.323C578.185 540.056 577.984 540.781 577.782 541.499C577.448 542.896 577.093 544.336 576.801 545.707C576.59 546.659 576.406 547.571 576.218 548.487C576.69 547.455 577.654 545.452 577.756 545.293C579.309 542.821 583.764 538.959 586.933 539.765C589.216 540.348 590.237 542.817 589.46 544.94C588.668 547.108 586.189 548.5 584.102 549.137C581.808 549.84 576.722 549.197 576.089 549.113C575.784 550.633 575.501 552.113 575.258 553.515C574.712 556.607 574.301 559.379 573.988 561.724H571.845C572.218 559.297 572.706 556.405 573.354 553.159C573.656 551.615 574.012 549.971 574.392 548.287C574.009 548.135 571.841 547.257 569.92 546.185C568.246 547.996 563.958 550.119 563.402 550.388C563.985 551.823 564.568 553.213 565.138 554.516C566.324 557.245 567.45 559.665 568.444 561.724H566.126C565.272 559.827 564.332 557.665 563.353 555.269C562.754 553.815 562.144 552.248 561.532 550.635C560.916 550.763 555.882 551.785 553.538 551.255C551.412 550.775 548.834 549.572 547.881 547.468C546.949 545.411 547.784 542.869 550.018 542.12C553.117 541.079 557.849 544.599 559.582 546.949C559.685 547.087 560.626 548.715 561.204 549.751C560.957 549.091 560.709 548.452 560.465 547.768C559.969 546.42 559.516 545.06 559.022 543.597C558.809 542.884 558.593 542.163 558.373 541.433C558.144 540.716 557.989 539.928 557.792 539.169C557.37 537.399 557.03 535.584 556.726 533.749C555.544 534.18 551.325 535.647 549.141 535.493C546.965 535.341 544.236 534.541 542.977 532.607C541.744 530.713 542.184 528.077 544.276 526.997C547.184 525.499 552.393 528.261 554.462 530.321C554.593 530.449 555.91 532.095 556.617 533.012C556.444 531.908 556.265 530.805 556.126 529.683C555.724 526.441 555.418 523.145 555.097 519.861C555 518.856 554.89 517.855 554.785 516.851C554.366 517.008 549.389 518.86 546.941 518.689C544.765 518.536 542.037 517.737 540.777 515.801C539.544 513.909 539.984 511.272 542.078 510.192C544.984 508.693 550.194 511.457 552.262 513.517C552.42 513.672 554.314 516.041 554.765 516.668C554.533 514.459 554.28 512.26 553.941 510.101C553.481 507.125 552.862 504.228 552.057 501.467C551.862 501.54 546.677 503.497 544.169 503.321C541.993 503.169 539.264 502.369 538.005 500.435C536.772 498.541 537.212 495.905 539.306 494.825C542.212 493.327 547.422 496.089 549.492 498.148C549.653 498.311 551.69 500.86 552.028 501.351C551.978 501.187 551.946 501.011 551.896 500.848C550.998 497.911 549.761 495.177 548.476 492.676C547.732 491.221 546.938 489.871 546.14 488.576C545.21 489.04 540.944 491.111 538.67 491.201C536.492 491.289 533.692 490.795 532.226 489.011C530.793 487.263 530.941 484.595 532.904 483.292C535.628 481.483 541.109 483.656 543.392 485.476C543.517 485.576 544.666 486.721 545.493 487.568C545.124 486.988 544.753 486.384 544.386 485.836C543.02 483.776 541.64 481.973 540.405 480.388C539.696 479.492 539.037 478.695 538.412 477.957C537.262 477.937 532.637 477.797 530.613 476.847C528.641 475.919 526.381 474.191 525.905 471.932C525.437 469.72 526.798 467.42 529.141 467.168C532.392 466.817 536.256 471.273 537.442 473.94C537.545 474.172 538.737 477.961 538.677 477.961C538.677 477.961 538.621 477.96 538.606 477.96C539.222 478.657 539.873 479.413 540.569 480.255C541.841 481.817 543.264 483.593 544.681 485.633C546.104 487.665 547.593 489.915 548.945 492.424C550.306 494.94 551.608 497.653 552.588 500.625C552.598 500.657 552.606 500.693 552.617 500.728C552.6 499.771 552.644 497.089 552.669 496.885C553.045 493.989 555.472 488.615 558.688 488.02C561.004 487.592 562.966 489.408 563.15 491.66C563.338 493.961 561.67 496.263 560.044 497.716C558.209 499.355 553.118 500.941 552.712 501.067C553.62 503.904 554.32 506.889 554.864 509.949C555.176 511.699 555.436 513.469 555.674 515.249C555.686 514.421 555.704 513.681 555.717 513.577C556.093 510.681 558.52 505.307 561.736 504.712C564.052 504.284 566.013 506.099 566.198 508.352C566.386 510.652 564.718 512.956 563.093 514.408C561.441 515.881 557.128 517.323 555.981 517.689C556.065 518.372 556.157 519.053 556.238 519.739C556.63 523.02 557.008 526.296 557.477 529.497C557.641 530.627 557.844 531.732 558.042 532.839C558.054 532.103 558.072 531.483 558.084 531.389C558.458 528.493 560.885 523.119 564.1 522.524C566.418 522.096 568.38 523.911 568.565 526.164C568.753 528.464 567.085 530.767 565.457 532.22C563.882 533.627 559.913 534.992 558.552 535.432C558.79 536.56 559.029 537.689 559.31 538.771C559.52 539.505 559.67 540.227 559.921 540.952C560.154 541.676 560.385 542.392 560.614 543.101C561.106 544.452 561.604 545.848 562.117 547.153C562.466 548.064 562.817 548.924 563.165 549.793C562.989 548.672 562.689 546.468 562.685 546.283C562.641 544.343 563.328 541.189 564.701 538.972C564.692 538.687 564.708 538.401 564.753 538.117C565.112 535.885 567.208 534.228 569.485 534.835C572.645 535.676 574.649 541.221 574.798 544.137C574.808 544.309 574.694 546.187 574.604 547.369C574.762 546.683 574.91 546.013 575.082 545.308C575.414 543.911 575.785 542.525 576.18 541.033C576.396 540.32 576.613 539.6 576.834 538.871C577.037 538.145 577.344 537.404 577.597 536.661C578.222 534.953 578.938 533.251 579.698 531.553C578.476 531.26 574.148 530.157 572.409 528.823C570.678 527.496 568.844 525.323 568.861 523.016C568.876 520.755 570.697 518.8 573.04 519.053C576.29 519.407 579.112 524.585 579.702 527.445C579.738 527.624 579.93 529.723 580.014 530.879C580.48 529.861 580.937 528.844 581.441 527.831C582.894 524.904 584.456 521.987 586.001 519.071C586.476 518.179 586.936 517.283 587.401 516.388C586.965 516.288 581.792 515.087 579.845 513.593C578.114 512.267 576.28 510.093 576.297 507.787C576.313 505.525 578.134 503.569 580.476 503.824C583.726 504.177 586.548 509.356 587.138 512.216C587.182 512.431 587.454 515.452 587.486 516.224C588.51 514.253 589.513 512.28 590.422 510.293C591.68 507.555 592.762 504.8 593.613 502.052C593.409 502.005 588.005 500.777 586.012 499.247C584.281 497.919 582.445 495.747 582.462 493.439C582.478 491.18 584.3 489.224 586.642 489.477C589.892 489.831 592.713 495.009 593.304 497.868C593.35 498.093 593.642 501.345 593.652 501.937C593.704 501.773 593.773 501.611 593.821 501.447C594.693 498.501 595.166 495.539 595.476 492.744C595.657 491.12 595.741 489.557 595.788 488.035C594.758 487.911 590.057 487.284 588.11 486.105C586.245 484.975 584.182 483.019 583.945 480.723C583.713 478.473 585.309 476.329 587.664 476.325C590.933 476.319 594.308 481.157 595.206 483.935C595.257 484.085 595.585 485.676 595.806 486.839C595.817 486.151 595.841 485.441 595.838 484.784C595.833 482.311 595.677 480.047 595.524 478.043C595.426 476.904 595.316 475.875 595.201 474.915C594.256 474.264 590.474 471.595 589.31 469.688C588.174 467.824 587.246 465.137 588.094 462.991C588.925 460.888 591.328 459.72 593.421 460.801C596.325 462.303 597.09 468.151 596.609 471.031C596.568 471.28 595.47 475.097 595.421 475.065C595.421 475.065 595.373 475.032 595.364 475.024C595.49 475.947 595.617 476.937 595.733 478.023C595.932 480.027 596.14 482.293 596.197 484.776C596.262 487.256 596.262 489.953 596.006 492.795C595.753 495.64 595.342 498.624 594.521 501.641C594.512 501.676 594.497 501.711 594.486 501.745C595.001 500.936 596.516 498.725 596.652 498.568C598.562 496.359 603.552 493.216 606.561 494.493C608.729 495.415 609.365 498.012 608.276 499.992C607.164 502.015 604.502 503.015 602.345 503.329Z" fill="#1A2E35"/>
<path d="M546.271 487.967C546.221 487.998 545.228 484.153 545.192 483.902C544.791 481.01 545.712 475.186 548.656 473.763C550.777 472.738 553.148 473.971 553.921 476.095C554.711 478.265 553.711 480.926 552.524 482.757C551.133 484.906 546.275 487.965 546.271 487.967Z" fill="#1A2E35"/>
<path d="M639.577 521.687C638.173 522.299 634.742 522.222 634.739 522.222C634.705 522.221 635.478 519.977 635.543 519.841C636.295 518.266 638.675 515.665 640.613 515.927C642.009 516.115 642.785 517.511 642.47 518.826C642.149 520.167 640.771 521.165 639.577 521.687Z" fill="#1A2E35"/>
<path d="M638.392 531.626C636.937 531.838 633.875 530.95 633.632 530.878C633.148 532.593 632.513 534.313 631.775 536.017C631.353 536.991 630.899 537.961 630.431 538.927C630.709 538.518 630.963 538.154 631.004 538.106C632.145 536.787 635.129 534.907 636.927 535.671C638.224 536.222 638.603 537.774 637.953 538.958C637.288 540.167 635.697 540.765 634.407 540.954C633.097 541.145 630.472 540.439 629.779 540.245C629.596 540.613 629.417 540.983 629.232 541.351C628.345 543.117 627.453 544.875 626.631 546.626C626.34 547.242 626.077 547.861 625.811 548.479C626.06 548.115 626.272 547.813 626.309 547.767C627.452 546.449 630.433 544.569 632.233 545.333C633.531 545.883 633.909 547.435 633.259 548.619C632.593 549.829 631.003 550.427 629.712 550.614C628.464 550.797 626.033 550.169 625.209 549.939C624.957 550.581 624.701 551.222 624.487 551.854C624.349 552.289 624.185 552.699 624.072 553.143C623.949 553.581 623.828 554.014 623.708 554.443C623.508 555.278 623.297 556.139 623.121 556.959C622.996 557.529 622.887 558.073 622.773 558.622C623.056 558.003 623.633 556.807 623.693 556.711C624.621 555.234 627.285 552.926 629.18 553.407C630.544 553.755 631.153 555.231 630.691 556.501C630.216 557.797 628.735 558.629 627.487 559.01C626.115 559.43 623.076 559.046 622.696 558.995C622.515 559.903 622.345 560.789 622.199 561.627C621.873 563.475 621.628 565.133 621.441 566.535H620.159C620.383 565.085 620.675 563.355 621.061 561.414C621.243 560.49 621.455 559.509 621.683 558.502C621.453 558.411 620.157 557.886 619.008 557.245C618.008 558.327 615.444 559.597 615.112 559.758C615.461 560.615 615.809 561.446 616.149 562.225C616.859 563.857 617.532 565.305 618.127 566.535H616.741C616.229 565.401 615.668 564.107 615.083 562.677C614.724 561.807 614.36 560.87 613.993 559.905C613.627 559.982 610.617 560.593 609.215 560.275C607.944 559.989 606.404 559.269 605.833 558.013C605.276 556.782 605.775 555.265 607.111 554.815C608.964 554.193 611.792 556.297 612.828 557.702C612.889 557.785 613.452 558.758 613.797 559.377C613.649 558.983 613.503 558.599 613.356 558.191C613.06 557.385 612.789 556.573 612.493 555.699C612.365 555.271 612.237 554.841 612.107 554.405C611.969 553.977 611.876 553.505 611.757 553.05C611.507 551.993 611.303 550.909 611.121 549.811C610.416 550.069 607.893 550.946 606.587 550.854C605.285 550.763 603.655 550.285 602.901 549.129C602.164 547.995 602.427 546.421 603.679 545.774C605.417 544.878 608.531 546.531 609.768 547.762C609.845 547.838 610.635 548.821 611.056 549.371C610.953 548.71 610.847 548.051 610.763 547.379C610.523 545.442 610.339 543.473 610.147 541.509C610.088 540.907 610.024 540.309 609.961 539.709C609.709 539.803 606.736 540.911 605.272 540.809C603.972 540.717 602.34 540.239 601.587 539.082C600.849 537.95 601.112 536.374 602.364 535.729C604.101 534.833 607.216 536.485 608.453 537.715C608.545 537.809 609.679 539.225 609.949 539.599C609.809 538.278 609.659 536.965 609.457 535.674C609.181 533.894 608.811 532.162 608.329 530.511C608.213 530.555 605.113 531.726 603.615 531.621C602.313 531.53 600.683 531.051 599.929 529.895C599.193 528.763 599.456 527.187 600.707 526.542C602.444 525.646 605.559 527.298 606.797 528.529C606.893 528.626 608.111 530.151 608.311 530.442C608.283 530.345 608.264 530.239 608.235 530.142C607.697 528.386 606.957 526.753 606.189 525.258C605.745 524.386 605.271 523.581 604.792 522.806C604.237 523.083 601.687 524.321 600.327 524.377C599.025 524.429 597.351 524.133 596.476 523.066C595.619 522.021 595.705 520.426 596.879 519.647C598.508 518.565 601.785 519.866 603.149 520.953C603.224 521.013 603.912 521.698 604.407 522.203C604.185 521.857 603.964 521.495 603.745 521.167C602.927 519.937 602.101 518.859 601.364 517.911C600.94 517.375 600.545 516.899 600.172 516.458C599.485 516.446 596.72 516.362 595.511 515.794C594.331 515.239 592.98 514.207 592.696 512.857C592.417 511.534 593.231 510.158 594.631 510.007C596.573 509.798 598.883 512.462 599.593 514.057C599.655 514.195 600.367 516.461 600.331 516.459H600.289C600.657 516.877 601.047 517.329 601.463 517.831C602.223 518.765 603.073 519.827 603.92 521.046C604.771 522.262 605.66 523.606 606.471 525.106C607.283 526.61 608.061 528.233 608.647 530.009C608.653 530.029 608.657 530.05 608.665 530.07C608.655 529.498 608.68 527.895 608.697 527.773C608.92 526.043 610.371 522.829 612.295 522.474C613.679 522.218 614.852 523.303 614.963 524.65C615.075 526.025 614.077 527.401 613.104 528.27C612.008 529.25 608.965 530.198 608.721 530.273C609.264 531.969 609.684 533.754 610.008 535.583C610.195 536.629 610.351 537.689 610.492 538.753C610.5 538.257 610.509 537.814 610.519 537.753C610.743 536.021 612.193 532.809 614.116 532.453C615.5 532.197 616.673 533.282 616.784 534.629C616.896 536.003 615.899 537.379 614.927 538.249C613.94 539.13 611.361 539.99 610.676 540.209C610.727 540.618 610.781 541.026 610.829 541.434C611.064 543.397 611.289 545.355 611.569 547.269C611.668 547.943 611.789 548.605 611.909 549.266C611.916 548.826 611.925 548.457 611.932 548.399C612.156 546.669 613.608 543.455 615.531 543.099C616.916 542.845 618.087 543.93 618.197 545.277C618.311 546.651 617.313 548.029 616.341 548.897C615.4 549.738 613.027 550.553 612.213 550.818C612.356 551.491 612.497 552.166 612.665 552.814C612.792 553.253 612.881 553.683 613.031 554.117C613.171 554.549 613.309 554.978 613.445 555.402C613.74 556.209 614.037 557.043 614.344 557.823C614.552 558.369 614.761 558.882 614.972 559.402C614.864 558.731 614.687 557.415 614.684 557.303C614.656 556.145 615.068 554.259 615.888 552.933C615.883 552.763 615.892 552.593 615.92 552.422C616.135 551.089 617.388 550.098 618.749 550.459C620.639 550.962 621.836 554.278 621.924 556.021C621.929 556.123 621.864 557.246 621.808 557.954C621.904 557.542 621.991 557.143 622.095 556.721C622.293 555.885 622.516 555.057 622.751 554.165C622.879 553.739 623.011 553.309 623.141 552.874C623.263 552.438 623.447 551.995 623.597 551.551C623.972 550.531 624.4 549.513 624.855 548.498C624.123 548.322 621.535 547.663 620.496 546.866C619.463 546.073 618.364 544.774 618.375 543.394C618.384 542.042 619.473 540.874 620.873 541.026C622.816 541.237 624.504 544.333 624.857 546.043C624.877 546.15 624.993 547.403 625.043 548.095C625.32 547.487 625.595 546.878 625.896 546.273C626.764 544.523 627.697 542.779 628.623 541.037C628.905 540.502 629.181 539.967 629.46 539.431C629.197 539.373 626.105 538.654 624.941 537.762C623.908 536.969 622.809 535.67 622.82 534.29C622.829 532.938 623.92 531.769 625.319 531.922C627.261 532.133 628.949 535.229 629.303 536.938C629.328 537.067 629.491 538.874 629.511 539.334C630.123 538.155 630.721 536.977 631.264 535.789C632.017 534.153 632.664 532.505 633.173 530.862C633.051 530.834 629.82 530.099 628.628 529.185C627.593 528.391 626.496 527.094 626.507 525.713C626.516 524.362 627.604 523.193 629.005 523.345C630.948 523.555 632.636 526.653 632.987 528.362C633.016 528.495 633.191 530.438 633.196 530.793C633.227 530.695 633.268 530.598 633.297 530.499C633.817 528.739 634.101 526.969 634.287 525.297C634.395 524.326 634.445 523.393 634.473 522.483C633.857 522.407 631.047 522.034 629.883 521.329C628.768 520.654 627.535 519.485 627.393 518.11C627.253 516.766 628.208 515.486 629.616 515.483C631.571 515.479 633.587 518.371 634.125 520.031C634.155 520.122 634.352 521.073 634.483 521.766C634.489 521.357 634.505 520.931 634.503 520.539C634.5 519.061 634.407 517.707 634.313 516.509C634.256 515.827 634.191 515.213 634.123 514.639C633.556 514.25 631.296 512.654 630.6 511.514C629.921 510.401 629.365 508.794 629.873 507.51C630.369 506.254 631.807 505.555 633.057 506.202C634.795 507.099 635.252 510.597 634.964 512.318C634.939 512.466 634.283 514.749 634.253 514.729C634.253 514.729 634.225 514.709 634.219 514.706C634.296 515.257 634.371 515.849 634.44 516.497C634.559 517.695 634.683 519.05 634.717 520.534C634.755 522.017 634.756 523.63 634.603 525.327C634.452 527.03 634.205 528.813 633.715 530.617C633.709 530.638 633.7 530.657 633.696 530.678C634.003 530.195 634.908 528.874 634.989 528.779C636.132 527.459 639.113 525.581 640.913 526.343C642.209 526.894 642.588 528.446 641.937 529.63C641.273 530.839 639.683 531.437 638.392 531.626Z" fill="#1A2E35"/>
<path d="M604.871 522.443C604.842 522.461 604.247 520.161 604.227 520.013C603.986 518.284 604.536 514.801 606.296 513.951C607.566 513.339 608.983 514.076 609.444 515.345C609.916 516.641 609.318 518.233 608.61 519.327C607.778 520.612 604.874 522.44 604.871 522.443Z" fill="#1A2E35"/>
<path d="M588.124 75.9446C586.152 65.9966 575.928 62.1899 568.333 58.8579C558.828 54.6886 553.499 50.9272 548.632 44.2366C546.34 41.0859 544.151 37.2872 541.676 32.4899C533.796 17.2099 520.423 5.99392 505.569 2.20592C493.56 -0.855416 479.507 1.63925 471.748 12.8406C465.261 22.2073 462.421 37.6232 452.243 39.2672C447.319 40.0632 442.623 36.9539 438.301 34.0726C432.185 29.9953 425.825 26.1006 418.904 24.6619C411.981 23.2232 404.321 24.5646 399.019 29.9912C391.191 38.0006 388.719 54.0192 378.525 56.3046C369.784 58.2632 361.45 47.9259 352.772 50.2379C345.593 52.1512 342.143 61.4432 337.365 68.0286C334.999 71.2886 332.129 73.9432 328.961 75.9446H588.124Z" stroke="#1A2E35" stroke-width="1.33333" stroke-miterlimit="10" stroke-linecap="round" stroke-linejoin="round"/>
<path d="M579.448 120.384C578.668 116.452 574.627 114.947 571.625 113.629C567.867 111.981 565.76 110.495 563.836 107.849C562.929 106.604 562.065 105.103 561.087 103.207C557.972 97.1654 552.685 92.732 546.813 91.2347C542.067 90.024 536.512 91.0107 533.444 95.4387C530.879 99.1414 529.756 105.236 525.733 105.885C523.788 106.2 521.931 104.971 520.223 103.831C517.805 102.22 515.291 100.68 512.555 100.112C509.817 99.5427 506.791 100.073 504.695 102.217C501.599 105.384 500.623 111.717 496.592 112.62C493.137 113.395 489.844 109.308 486.413 110.221C483.575 110.979 482.211 114.652 480.321 117.255C479.387 118.544 478.253 119.592 477 120.384H579.448Z" stroke="#1A2E35" stroke-width="1.33333" stroke-miterlimit="10" stroke-linecap="round" stroke-linejoin="round"/>
<path d="M233.138 113.95C232.359 110.018 228.317 108.512 225.315 107.195C221.557 105.547 219.45 104.06 217.527 101.415C216.621 100.17 215.755 98.6684 214.777 96.7724C211.662 90.731 206.375 86.2977 200.503 84.8004C195.757 83.5897 190.202 84.5764 187.134 89.0044C184.57 92.707 183.447 98.8017 179.423 99.451C177.478 99.7657 175.621 98.5364 173.913 97.3964C171.495 95.7857 168.981 94.2457 166.245 93.6777C163.509 93.1084 160.481 93.639 158.385 95.783C155.29 98.9497 154.313 105.283 150.283 106.186C146.827 106.96 143.534 102.874 140.103 103.787C137.265 104.544 135.901 108.218 134.013 110.82C133.077 112.11 131.943 113.158 130.691 113.95H233.138Z" stroke="#1A2E35" stroke-width="1.33333" stroke-miterlimit="10" stroke-linecap="round" stroke-linejoin="round"/>
<path d="M204.856 298.286C203.536 291.629 196.694 289.081 191.611 286.85C185.248 284.06 181.682 281.542 178.424 277.064C176.89 274.956 175.426 272.413 173.77 269.202C168.495 258.976 159.543 251.468 149.602 248.933C141.566 246.884 132.159 248.553 126.966 256.05C122.623 262.32 120.722 272.638 113.91 273.738C110.615 274.27 107.472 272.19 104.579 270.261C100.486 267.533 96.2296 264.925 91.5962 263.962C86.9629 263 81.8362 263.897 78.2869 267.529C73.0482 272.89 71.3936 283.612 64.5709 285.141C58.7202 286.453 53.1429 279.534 47.3336 281.081C42.5282 282.362 40.2189 288.581 37.0216 292.988C35.4389 295.17 33.5176 296.946 31.3976 298.286H204.856Z" stroke="#1A2E35" stroke-width="1.33333" stroke-miterlimit="10" stroke-linecap="round" stroke-linejoin="round"/>
<path d="M216.971 339.282C216.449 336.65 213.744 335.644 211.735 334.761C209.22 333.658 207.809 332.664 206.523 330.893C205.915 330.06 205.336 329.054 204.681 327.786C202.597 323.744 199.059 320.776 195.128 319.773C191.951 318.964 188.233 319.624 186.18 322.588C184.464 325.065 183.712 329.144 181.02 329.58C179.717 329.789 178.475 328.968 177.331 328.204C175.713 327.126 174.029 326.094 172.199 325.714C170.367 325.334 168.34 325.689 166.937 327.125C164.867 329.244 164.213 333.481 161.516 334.086C159.203 334.605 156.999 331.869 154.701 332.481C152.803 332.988 151.889 335.446 150.625 337.189C149.999 338.05 149.24 338.754 148.401 339.282H216.971Z" stroke="#1A2E35" stroke-width="1.33333" stroke-miterlimit="10" stroke-linecap="round" stroke-linejoin="round"/>
<path d="M466.171 412.646C466.171 412.646 410.712 349.102 403.481 338.13C396.252 327.159 364.449 338.13 350.256 339.313C336.063 340.497 323.052 360.603 317.139 365.335C311.224 370.065 306.493 394.905 306.493 394.905C306.493 394.905 298.213 403.183 294.665 405.55C291.116 407.915 289.933 435.119 291.116 439.85C292.299 444.582 363.267 476.517 371.547 478.883C379.825 481.249 436.6 475.335 446.063 475.335C455.525 475.335 485.095 457.593 482.729 441.034C480.364 424.474 466.171 412.646 466.171 412.646Z" fill="white"/>
<path d="M466.171 412.646C466.171 412.646 410.712 349.102 403.481 338.13C396.252 327.159 364.449 338.13 350.256 339.313C336.063 340.497 323.052 360.603 317.139 365.335C311.224 370.065 306.493 394.905 306.493 394.905C306.493 394.905 298.213 403.183 294.665 405.55C291.116 407.915 289.933 435.119 291.116 439.85C292.299 444.582 363.267 476.517 371.547 478.883C379.825 481.249 436.6 475.335 446.063 475.335C455.525 475.335 485.095 457.593 482.729 441.034C480.364 424.474 466.171 412.646 466.171 412.646Z" stroke="#1A2E35" stroke-width="1.33333" stroke-miterlimit="10" stroke-linejoin="round"/>
<path d="M480.566 451.249C480.725 446.457 480.053 438.475 478.926 429.178C473.925 419.115 466.17 412.646 466.17 412.646C466.17 412.646 410.712 349.102 403.482 338.13C401.924 335.766 399.218 334.425 395.8 333.779C392.892 335.663 389.793 338.249 389.734 340.773C389.624 345.543 387.384 378.007 387.384 382.486C387.384 386.963 389.624 410.474 389.624 410.474C389.624 410.474 396.34 429.505 400.817 430.625C405.296 431.745 452.316 459.731 460.152 459.731C463.949 459.731 468.226 461.49 471.905 461.815C475.498 458.593 478.589 454.993 480.566 451.249Z" fill="#1A2E35"/>
<path d="M480.566 451.249C480.725 446.457 480.053 438.475 478.926 429.178C473.925 419.115 466.17 412.646 466.17 412.646C466.17 412.646 410.712 349.102 403.482 338.13C401.924 335.766 399.218 334.425 395.8 333.779C392.892 335.663 389.793 338.249 389.734 340.773C389.624 345.543 387.384 378.007 387.384 382.486C387.384 386.963 389.624 410.474 389.624 410.474C389.624 410.474 396.34 429.505 400.817 430.625C405.296 431.745 452.316 459.731 460.152 459.731C463.949 459.731 468.226 461.49 471.905 461.815C475.498 458.593 478.589 454.993 480.566 451.249Z" stroke="#1A2E35" stroke-width="1.33333" stroke-miterlimit="10" stroke-linejoin="round"/>
<path d="M646.555 606.995L630.777 575.439L610.777 543.439L594.777 524.772C594.777 524.772 557.444 503.439 552.111 503.439C546.777 503.439 505.444 492.772 505.444 492.772L458.777 531.439L308.859 504.905C308.859 504.905 274.777 518.105 270.777 520.772C266.777 523.439 208.111 539.439 201.444 540.772C194.778 542.105 108.111 606.105 108.111 606.105L180.284 606.995H646.555Z" fill="#1A2E35"/>
<path d="M646.555 606.995L630.777 575.439L610.777 543.439L594.777 524.772C594.777 524.772 557.444 503.439 552.111 503.439C546.777 503.439 505.444 492.772 505.444 492.772L458.777 531.439L308.859 504.905C308.859 504.905 274.777 518.105 270.777 520.772C266.777 523.439 208.111 539.439 201.444 540.772C194.778 542.105 108.111 606.105 108.111 606.105L180.284 606.995H646.555Z" stroke="#1A2E35" stroke-width="1.33333" stroke-miterlimit="10" stroke-linejoin="round"/>
<path d="M574.604 547.37L566.64 558.538L542.634 562.959L564.744 580.65L576.118 586.967L550.778 584.772L502.832 547.798L536.948 541.48" fill="#1A2E35"/>
<path d="M574.604 547.37L566.64 558.538L542.634 562.959L564.744 580.65L576.118 586.967L550.778 584.772L502.832 547.798L536.948 541.48" stroke="#1A2E35" stroke-width="1.33333" stroke-miterlimit="10" stroke-linejoin="round"/>
<path d="M218.637 438.233C218.637 438.233 202.407 419.744 196.493 419.744C190.579 419.744 172.836 424.474 168.105 426.84C163.375 429.205 151.547 458.774 147.999 461.141C144.449 463.506 112.515 491.893 106.6 497.808C100.687 503.721 84.1268 513.184 84.1268 520.281C84.1268 527.377 94.7722 534.474 94.7722 534.474H207.137C207.137 534.474 241.439 501.356 243.804 489.528C246.169 477.701 218.637 438.233 218.637 438.233Z" fill="white"/>
<path d="M218.637 438.233C218.637 438.233 202.407 419.744 196.493 419.744C190.579 419.744 172.836 424.474 168.105 426.84C163.375 429.205 151.547 458.774 147.999 461.141C144.449 463.506 112.515 491.893 106.6 497.808C100.687 503.721 84.1268 513.184 84.1268 520.281C84.1268 527.377 94.7722 534.474 94.7722 534.474H207.137C207.137 534.474 241.439 501.356 243.804 489.528C246.169 477.701 218.637 438.233 218.637 438.233Z" stroke="#1A2E35" stroke-width="1.33333" stroke-miterlimit="10" stroke-linejoin="round"/>
<path d="M373.779 452.535C373.779 452.535 289.997 422.61 282.868 419.402C275.74 416.194 227.245 428.022 227.245 428.022C227.245 428.022 187.029 446.949 181.116 455.227C175.203 463.507 176.385 469.421 179.933 474.151C183.481 478.883 323.052 522.646 337.245 523.83C351.439 525.011 389.288 516.731 398.751 497.807C408.213 478.883 373.779 452.535 373.779 452.535Z" fill="white"/>
<path d="M373.779 452.535C373.779 452.535 289.997 422.61 282.868 419.402C275.74 416.194 227.245 428.022 227.245 428.022C227.245 428.022 187.029 446.949 181.116 455.227C175.203 463.507 176.385 469.421 179.933 474.151C183.481 478.883 323.052 522.646 337.245 523.83C351.439 525.011 389.288 516.731 398.751 497.807C408.213 478.883 373.779 452.535 373.779 452.535Z" stroke="#1A2E35" stroke-width="1.33333" stroke-miterlimit="10" stroke-linejoin="round"/>
<path d="M299.563 476.254L293.677 480.374C293.677 480.374 267.781 469.78 269.547 474.488C271.313 479.196 308.979 509.212 309.568 514.508C310.156 519.806 310.595 524.355 318.32 527.378C326.047 530.399 334.875 533.931 340.76 530.399C346.647 526.868 353.12 526.28 353.12 519.218C353.12 512.155 350.177 496.852 350.177 496.852C350.177 496.852 303.683 474.488 299.563 476.254Z" fill="#1A2E35"/>
<path d="M299.563 476.254L293.677 480.374C293.677 480.374 267.781 469.78 269.547 474.488C271.313 479.196 308.979 509.212 309.568 514.508C310.156 519.806 310.595 524.355 318.32 527.378C326.047 530.399 334.875 533.931 340.76 530.399C346.647 526.868 353.12 526.28 353.12 519.218C353.12 512.155 350.177 496.852 350.177 496.852C350.177 496.852 303.683 474.488 299.563 476.254Z" stroke="#1A2E35" stroke-width="1.33333" stroke-miterlimit="10" stroke-linejoin="round"/>
<path d="M301.301 487.78L337.942 514.947L341.733 518.105L354.369 509.892L301.301 487.78Z" fill="#1A2E35"/>
<path d="M301.301 487.78L337.942 514.947L341.733 518.105L354.369 509.892L301.301 487.78Z" stroke="#1A2E35" stroke-width="1.33333" stroke-miterlimit="10" stroke-linejoin="round"/>
<path d="M496.923 484.797C492.881 495.913 489.826 508.453 479.181 515.549C468.535 522.646 438.966 536.84 429.505 536.84C420.041 536.84 352.621 517.916 344.342 512.001C336.062 506.088 307.675 495.441 299.395 485.98C291.117 476.517 300.579 455.226 300.579 455.226C300.579 455.226 327.783 435.12 335.929 435.385C344.074 435.652 405.847 429.206 415.31 431.572C424.773 433.936 494.558 461.141 494.558 461.141C494.558 461.141 501.654 471.786 496.923 484.797" fill="white"/>
<path d="M496.923 484.797C492.881 495.913 489.826 508.453 479.181 515.549C468.535 522.646 438.966 536.84 429.505 536.84C420.041 536.84 352.621 517.916 344.342 512.001C336.062 506.088 307.675 495.441 299.395 485.98C291.117 476.517 300.579 455.226 300.579 455.226C300.579 455.226 327.783 435.12 335.929 435.385C344.074 435.652 405.847 429.206 415.31 431.572C424.773 433.936 494.558 461.141 494.558 461.141C494.558 461.141 501.654 471.786 496.923 484.797V484.797Z" stroke="#1A2E35" stroke-width="1.33333" stroke-miterlimit="10" stroke-linejoin="round"/>
<path d="M308.858 504.905C308.858 504.905 278.106 475.334 271.009 469.421C263.913 463.506 228.428 465.873 221.332 468.238C214.234 470.602 194.128 484.797 189.396 490.71C184.665 496.625 171.654 526.194 171.654 526.194L184.665 545.119C184.665 545.119 233.16 549.85 250.901 549.85C268.644 549.85 300.58 548.667 300.58 548.667C300.58 548.667 313.589 538.022 318.321 527.377C323.051 516.731 308.858 504.905 308.858 504.905Z" fill="white"/>
<path d="M308.858 504.905C308.858 504.905 278.106 475.334 271.009 469.421C263.913 463.506 228.428 465.873 221.332 468.238C214.234 470.602 194.128 484.797 189.396 490.71C184.665 496.625 171.654 526.194 171.654 526.194L184.665 545.119C184.665 545.119 233.16 549.85 250.901 549.85C268.644 549.85 300.58 548.667 300.58 548.667C300.58 548.667 313.589 538.022 318.321 527.377C323.051 516.731 308.858 504.905 308.858 504.905Z" stroke="#1A2E35" stroke-width="1.33333" stroke-miterlimit="10" stroke-linejoin="round"/>
<path d="M270.681 494.375C282.727 511.135 294.774 516.373 291.631 521.087C288.489 525.8 279.061 523.181 273.299 522.659C267.538 522.133 262.299 532.611 259.157 537.324C257.501 539.809 254.251 545.055 251.847 549.848C269.753 549.808 300.579 548.668 300.579 548.668C300.579 548.668 313.59 538.021 318.32 527.377C323.051 516.732 308.858 504.904 308.858 504.904C308.858 504.904 278.106 475.335 271.009 469.42C271.009 469.42 258.634 477.613 270.681 494.375" fill="#1A2E35"/>
<path d="M270.681 494.375C282.727 511.135 294.774 516.373 291.631 521.087C288.489 525.8 279.061 523.181 273.299 522.659C267.538 522.133 262.299 532.611 259.157 537.324C257.501 539.809 254.251 545.055 251.847 549.848C269.753 549.808 300.579 548.668 300.579 548.668C300.579 548.668 313.59 538.021 318.32 527.377C323.051 516.732 308.858 504.904 308.858 504.904C308.858 504.904 278.106 475.335 271.009 469.42C271.009 469.42 258.634 477.613 270.681 494.375V494.375Z" stroke="#1A2E35" stroke-width="1.33333" stroke-miterlimit="10" stroke-linejoin="round"/>
<path d="M154.777 534.105L184.111 508.772L208.111 504.772C208.111 504.772 257.444 499.439 262.777 506.105C268.111 512.772 282.777 532.772 282.777 532.772L272.111 558.105C272.111 558.105 270.777 572.772 261.444 578.105C252.111 583.439 209.444 599.439 209.444 599.439H176.111C176.111 599.439 153.444 584.772 153.444 576.772C153.444 568.772 154.777 534.105 154.777 534.105Z" fill="white"/>
<path d="M154.777 534.105L184.111 508.772L208.111 504.772C208.111 504.772 257.444 499.439 262.777 506.105C268.111 512.772 282.777 532.772 282.777 532.772L272.111 558.105C272.111 558.105 270.777 572.772 261.444 578.105C252.111 583.439 209.444 599.439 209.444 599.439H176.111C176.111 599.439 153.444 584.772 153.444 576.772C153.444 568.772 154.777 534.105 154.777 534.105Z" stroke="#1A2E35" stroke-width="1.33333" stroke-miterlimit="10" stroke-linejoin="round"/>
<path d="M282.777 532.772C282.777 532.772 268.111 512.772 262.777 506.105C262.372 505.599 261.688 505.171 260.816 504.795L260.689 505.56L260.167 508.172C260.167 508.172 261.211 532.716 263.3 537.939C265.388 543.161 270.089 551.517 266.433 555.173C262.777 558.828 255.467 566.663 250.244 571.361C245.021 576.063 231.444 580.241 226.221 580.763C220.999 581.285 216.299 578.151 206.897 577.629C197.497 577.107 194.364 577.107 190.187 578.673C186.008 580.241 178.696 584.94 178.696 584.94C178.696 584.94 171.385 580.763 169.819 575.019C168.252 569.273 164.075 564.051 162.507 564.051C160.941 564.051 159.373 577.107 158.852 583.373C158.797 584.035 158.668 584.696 158.499 585.357C165.177 592.361 176.111 599.439 176.111 599.439H209.444C209.444 599.439 252.111 583.439 261.444 578.105C270.777 572.772 272.111 558.105 272.111 558.105L282.777 532.772Z" fill="#1A2E35"/>
<path d="M282.777 532.772C282.777 532.772 268.111 512.772 262.777 506.105C262.372 505.599 261.688 505.171 260.816 504.795L260.689 505.56L260.167 508.172C260.167 508.172 261.211 532.716 263.3 537.939C265.388 543.161 270.089 551.517 266.433 555.173C262.777 558.828 255.467 566.663 250.244 571.361C245.021 576.063 231.444 580.241 226.221 580.763C220.999 581.285 216.299 578.151 206.897 577.629C197.497 577.107 194.364 577.107 190.187 578.673C186.008 580.241 178.696 584.94 178.696 584.94C178.696 584.94 171.385 580.763 169.819 575.019C168.252 569.273 164.075 564.051 162.507 564.051C160.941 564.051 159.373 577.107 158.852 583.373C158.797 584.035 158.668 584.696 158.499 585.357C165.177 592.361 176.111 599.439 176.111 599.439H209.444C209.444 599.439 252.111 583.439 261.444 578.105C270.777 572.772 272.111 558.105 272.111 558.105L282.777 532.772Z" stroke="#1A2E35" stroke-width="1.33333" stroke-miterlimit="10" stroke-linejoin="round"/>
<path d="M160.479 606.32L161.444 600.772V586.105C161.444 582.105 172.111 555.439 172.111 547.439C172.111 539.439 154.777 519.439 150.777 516.772C146.777 514.105 130.777 504.772 126.777 504.772C122.777 504.772 104.111 507.439 93.444 512.772C82.7773 518.105 64.1107 535.439 54.7773 543.439C45.444 551.439 1 607.883 1 607.883" fill="white"/>
<path d="M160.479 606.32L161.444 600.772V586.105C161.444 582.105 172.111 555.439 172.111 547.439C172.111 539.439 154.777 519.439 150.777 516.772C146.777 514.105 130.777 504.772 126.777 504.772C122.777 504.772 104.111 507.439 93.444 512.772C82.7773 518.105 64.1107 535.439 54.7773 543.439C45.444 551.439 1 607.883 1 607.883" stroke="#1A2E35" stroke-width="1.33333" stroke-miterlimit="10" stroke-linejoin="round"/>
<path d="M498.777 543.439C495.985 540.647 490.155 535.751 484.319 531.004C481.339 528.272 477.507 525.283 473.687 522.484C470.368 519.861 468.111 518.105 468.111 518.105L467.496 518.084C464.571 516.06 461.988 514.339 460.256 513.184C453.159 508.453 428.32 491.893 418.859 493.077C409.396 494.259 365.633 495.441 362.084 501.356C358.535 507.269 286.385 548.668 286.385 548.668L287.405 548.673L278.777 552.772L261.444 578.105C261.444 578.105 278.777 590.105 282.777 590.105C286.777 590.105 309.025 588.3 318.359 586.967C326.747 585.768 383.848 598.463 395.323 601.044C396.673 601.348 398.035 601.552 399.416 601.657L470.657 607.137C476.389 607.579 482.12 606.273 487.095 603.393L505.444 592.772C505.444 592.772 514.777 587.439 520.111 583.439C525.444 579.439 525.444 570.105 525.444 566.105C525.444 562.105 505.444 550.105 498.777 543.439Z" fill="white"/>
<path d="M498.777 543.439C495.985 540.647 490.155 535.751 484.319 531.004C481.339 528.272 477.507 525.283 473.687 522.484C470.368 519.861 468.111 518.105 468.111 518.105L467.496 518.084C464.571 516.06 461.988 514.339 460.256 513.184C453.159 508.453 428.32 491.893 418.859 493.077C409.396 494.259 365.633 495.441 362.084 501.356C358.535 507.269 286.385 548.668 286.385 548.668L287.405 548.673L278.777 552.772L261.444 578.105C261.444 578.105 278.777 590.105 282.777 590.105C286.777 590.105 309.025 588.3 318.359 586.967C326.747 585.768 383.848 598.463 395.323 601.044C396.673 601.348 398.035 601.552 399.416 601.657L470.657 607.137C476.389 607.579 482.12 606.273 487.095 603.393L505.444 592.772C505.444 592.772 514.777 587.439 520.111 583.439C525.444 579.439 525.444 570.105 525.444 566.105C525.444 562.105 505.444 550.105 498.777 543.439Z" stroke="#1A2E35" stroke-width="1.33333" stroke-miterlimit="10" stroke-linejoin="round"/>
<path d="M498.777 543.439C497.772 542.433 496.361 541.147 494.709 539.701L489.565 543.375C489.565 543.375 495.251 555.379 499.041 557.275C502.832 559.169 508.519 566.749 508.519 566.749C508.519 566.749 511.045 575.595 506.624 580.649C502.2 585.703 476.931 593.916 468.717 595.18C460.504 596.443 448.501 596.443 448.501 596.443C448.501 596.443 459.872 593.916 470.613 592.021C481.353 590.127 490.197 587.599 492.724 585.072C495.251 582.544 497.779 578.123 495.883 578.753C493.988 579.385 488.933 581.281 480.721 583.176C472.508 585.072 461.137 586.967 453.555 586.967C445.973 586.967 431.444 588.231 427.021 588.231C422.599 588.231 367.636 580.017 364.476 579.385C361.317 578.753 358.791 577.491 358.791 577.491C358.791 577.491 355 581.281 364.476 583.176C373.953 585.072 373.321 587.599 392.907 590.127C412.491 592.652 432.076 596.443 428.916 597.076C425.757 597.707 416.913 598.339 403.645 595.811C390.379 593.285 382.167 593.916 374.584 590.757C367.004 587.599 363.213 586.335 352.472 583.176C341.733 580.017 336.68 578.753 324.676 578.123C312.672 577.491 308.249 577.491 303.196 577.491C298.141 577.491 293.088 584.44 286.139 585.703C283.424 586.196 279.649 586.787 276.057 587.323C278.975 588.933 281.528 590.105 282.777 590.105C286.777 590.105 309.025 588.3 318.359 586.967C326.747 585.768 383.848 598.463 395.323 601.044C396.673 601.348 398.035 601.552 399.416 601.657L470.657 607.137C476.389 607.579 482.12 606.273 487.095 603.393L505.444 592.772C505.444 592.772 514.777 587.439 520.111 583.439C525.444 579.439 525.444 570.105 525.444 566.105C525.444 562.105 505.444 550.105 498.777 543.439Z" fill="#1A2E35"/>
<path d="M498.777 543.439C497.772 542.433 496.361 541.147 494.709 539.701L489.565 543.375C489.565 543.375 495.251 555.379 499.041 557.275C502.832 559.169 508.519 566.749 508.519 566.749C508.519 566.749 511.045 575.595 506.624 580.649C502.2 585.703 476.931 593.916 468.717 595.18C460.504 596.443 448.501 596.443 448.501 596.443C448.501 596.443 459.872 593.916 470.613 592.021C481.353 590.127 490.197 587.599 492.724 585.072C495.251 582.544 497.779 578.123 495.883 578.753C493.988 579.385 488.933 581.281 480.721 583.176C472.508 585.072 461.137 586.967 453.555 586.967C445.973 586.967 431.444 588.231 427.021 588.231C422.599 588.231 367.636 580.017 364.476 579.385C361.317 578.753 358.791 577.491 358.791 577.491C358.791 577.491 355 581.281 364.476 583.176C373.953 585.072 373.321 587.599 392.907 590.127C412.491 592.652 432.076 596.443 428.916 597.076C425.757 597.707 416.913 598.339 403.645 595.811C390.379 593.285 382.167 593.916 374.584 590.757C367.004 587.599 363.213 586.335 352.472 583.176C341.733 580.017 336.68 578.753 324.676 578.123C312.672 577.491 308.249 577.491 303.196 577.491C298.141 577.491 293.088 584.44 286.139 585.703C283.424 586.196 279.649 586.787 276.057 587.323C278.975 588.933 281.528 590.105 282.777 590.105C286.777 590.105 309.025 588.3 318.359 586.967C326.747 585.768 383.848 598.463 395.323 601.044C396.673 601.348 398.035 601.552 399.416 601.657L470.657 607.137C476.389 607.579 482.12 606.273 487.095 603.393L505.444 592.772C505.444 592.772 514.777 587.439 520.111 583.439C525.444 579.439 525.444 570.105 525.444 566.105C525.444 562.105 505.444 550.105 498.777 543.439Z" stroke="#1A2E35" stroke-width="1.33333" stroke-miterlimit="10" stroke-linejoin="round"/>
<path d="M449.461 380.517C449.461 380.517 436.128 392.517 436.128 397.85C436.128 403.183 444.128 425.85 444.128 429.85C444.128 433.85 464.128 487.183 468.128 500.517C472.128 513.85 477.461 527.183 480.128 531.183C482.794 535.183 489.461 545.85 489.461 545.85L500.854 554.167C508.858 560.01 518.376 563.423 528.268 563.998L546.24 565.043C557.69 565.709 568.626 560.213 574.928 550.627L584.461 536.123C588.132 530.539 590.116 523.955 589.8 517.279C589.51 511.183 587.408 506.525 578.793 495.183C573.149 487.751 504.128 416.517 496.128 408.517C488.128 400.517 457.461 375.183 449.461 380.517Z" fill="white"/>
<path d="M449.461 380.517C449.461 380.517 436.128 392.517 436.128 397.85C436.128 403.183 444.128 425.85 444.128 429.85C444.128 433.85 464.128 487.183 468.128 500.517C472.128 513.85 477.461 527.183 480.128 531.183C482.794 535.183 489.461 545.85 489.461 545.85L500.854 554.167C508.858 560.01 518.376 563.423 528.268 563.998L546.24 565.043C557.69 565.709 568.626 560.213 574.928 550.627L584.461 536.123C588.132 530.539 590.116 523.955 589.8 517.279C589.51 511.183 587.408 506.525 578.793 495.183C573.149 487.751 504.128 416.517 496.128 408.517C488.128 400.517 457.461 375.183 449.461 380.517Z" stroke="#1A2E35" stroke-width="1.33333" stroke-miterlimit="10" stroke-linejoin="round"/>
<path d="M525.444 566.105C536.111 574.105 544.111 586.105 558.777 586.105C572.111 586.105 592.111 586.105 594.067 603.683" stroke="#1A2E35" stroke-width="1.33333" stroke-miterlimit="10" stroke-linejoin="round"/>
<path d="M476.513 571.669C473.732 572.873 471.234 573.914 469.981 574.332C466.19 575.594 453.554 577.49 434.602 577.49H388.485" stroke="#1A2E35" stroke-width="1.33333" stroke-miterlimit="10" stroke-linejoin="round"/>
<path d="M488.934 566.118C488.934 566.118 486.34 567.308 483.03 568.792" stroke="#1A2E35" stroke-width="1.33333" stroke-miterlimit="10" stroke-linejoin="round"/>
<path d="M458.824 563.217C467.891 559.461 475.035 555.379 475.035 555.379L468.718 549.692" stroke="#1A2E35" stroke-width="1.33333" stroke-miterlimit="10" stroke-linejoin="round"/>
<path d="M345.516 568.789C350.725 568.706 355.432 568.646 358.158 568.646C367.004 568.646 421.336 570.541 437.129 569.277C441.713 568.912 446.828 567.586 451.781 565.89" stroke="#1A2E35" stroke-width="1.33333" stroke-miterlimit="10" stroke-linejoin="round"/>
<path d="M319.622 569.277C319.622 569.277 324.55 569.173 330.99 569.048" stroke="#1A2E35" stroke-width="1.33333" stroke-miterlimit="10" stroke-linejoin="round"/>
<path d="M499.422 534.181C495.557 530.518 490.83 526.318 490.83 526.318" stroke="#1A2E35" stroke-width="1.33333" stroke-miterlimit="10" stroke-linejoin="round"/>
<path d="M562.544 493.026C562.544 493.026 566.01 500.415 569.168 505.47C572.327 510.523 575.334 522.813 572.408 528.823C569.486 534.834 563.482 545.271 554.636 548.43C545.794 551.589 535.052 554.747 529.999 552.221C524.944 549.693 505.991 541.481 504.096 538.953" stroke="#1A2E35" stroke-width="1.33333" stroke-miterlimit="10" stroke-linejoin="round"/>
<path d="M577.598 536.661C574.222 540.848 573.831 543.307 569.919 546.184C566.01 549.061 545.16 553.483 545.16 553.483L526.208 557.275L508.518 549.061L485.775 536.425C485.775 536.425 498.41 548.429 502.2 551.588C505.991 554.747 513.572 558.537 516.1 559.8C518.626 561.065 531.262 563.591 535.052 563.591C538.438 563.591 548.866 564.095 555.56 564.201C563.399 562.328 570.375 557.553 574.927 550.628L584.46 536.124C588.131 530.539 590.116 523.956 589.799 517.28C589.511 511.184 587.407 506.524 578.792 495.184L579.276 508.629C579.276 508.629 580.972 532.475 577.598 536.661Z" fill="#1A2E35"/>
<path d="M577.598 536.661C574.222 540.848 573.831 543.307 569.919 546.184C566.01 549.061 545.16 553.483 545.16 553.483L526.208 557.275L508.518 549.061L485.775 536.425C485.775 536.425 498.41 548.429 502.2 551.588C505.991 554.747 513.572 558.537 516.1 559.8C518.626 561.065 531.262 563.591 535.052 563.591C538.438 563.591 548.866 564.095 555.56 564.201C563.399 562.328 570.375 557.553 574.927 550.628L584.46 536.124C588.131 530.539 590.116 523.956 589.799 517.28C589.511 511.184 587.407 506.524 578.792 495.184L579.276 508.629C579.276 508.629 580.972 532.475 577.598 536.661Z" stroke="#1A2E35" stroke-width="1.33333" stroke-miterlimit="10" stroke-linejoin="round"/>
<path d="M307.168 475.269C307.168 475.269 305.601 478.404 310.301 482.581C315.001 486.759 328.58 493.025 328.58 493.025" stroke="#1A2E35" stroke-width="1.33333" stroke-miterlimit="10" stroke-linejoin="round"/>
<path d="M333.28 495.116L342.159 499.293" stroke="#1A2E35" stroke-width="1.33333" stroke-miterlimit="10" stroke-linejoin="round"/>
<path d="M315.524 492.504L345.292 506.604" stroke="#1A2E35" stroke-width="1.33333" stroke-miterlimit="10" stroke-linejoin="round"/>
<path d="M555.098 519.862C555.098 519.862 498.778 573.217 498.778 575.883C498.778 578.55 505.444 592.773 505.444 592.773C505.444 592.773 531.667 598.995 536.111 598.995C540.555 598.995 553.888 596.329 559.222 591.883C564.555 587.439 580.555 586.55 583.222 574.106C585.888 561.662 593.92 557.553 589.459 544.941C585 532.329 579.416 510.062 555.098 519.862Z" fill="white"/>
<path d="M555.098 519.862C555.098 519.862 498.778 573.217 498.778 575.883C498.778 578.55 505.444 592.773 505.444 592.773C505.444 592.773 531.667 598.995 536.111 598.995C540.555 598.995 553.888 596.329 559.222 591.883C564.555 587.439 580.555 586.55 583.222 574.106C585.888 561.662 593.92 557.553 589.459 544.941C585 532.329 579.416 510.062 555.098 519.862Z" stroke="#1A2E35" stroke-width="1.33333" stroke-miterlimit="10" stroke-linejoin="round"/>
<path d="M581.444 540.328C580.804 548.731 584.245 558.513 580.919 566.579C576.964 576.179 565.491 579.443 557.444 584.772" stroke="#1A2E35" stroke-width="1.33333" stroke-miterlimit="10" stroke-linejoin="round"/>
<path d="M573.988 561.724C567.382 569.827 560.2 577.28 550.331 581.212" stroke="#1A2E35" stroke-width="1.33333" stroke-miterlimit="10" stroke-linejoin="round"/>
<path d="M509.444 590.105C509.444 590.105 525.444 592.772 531.667 593.661C537.888 594.549 552.111 590.995 552.111 590.995" stroke="#1A2E35" stroke-width="1.33333" stroke-miterlimit="10" stroke-linejoin="round"/>
<path d="M160.479 606.32L161.444 600.772V586.106C161.444 582.106 172.111 555.439 172.111 547.439C172.111 543.183 167.207 535.534 162.013 528.903C162.419 532.219 163.667 542.682 163.667 545.662C163.667 549.216 154.777 566.995 149.444 567.883C144.111 568.772 121.889 565.216 121.889 565.216C121.889 565.216 97.8894 563.439 92.556 572.328C87.2227 581.216 77.444 596.328 77.444 596.328L62.848 606.995L160.479 606.32Z" fill="#1A2E35"/>
<path d="M160.479 606.32L161.444 600.772V586.106C161.444 582.106 172.111 555.439 172.111 547.439C172.111 543.183 167.207 535.534 162.013 528.903C162.419 532.219 163.667 542.682 163.667 545.662C163.667 549.216 154.777 566.995 149.444 567.883C144.111 568.772 121.889 565.216 121.889 565.216C121.889 565.216 97.8894 563.439 92.556 572.328C87.2227 581.216 77.444 596.328 77.444 596.328L62.848 606.995L160.479 606.32Z" stroke="#1A2E35" stroke-width="1.33333" stroke-miterlimit="10" stroke-linejoin="round"/>
<path d="M191.477 567.484C186.455 570.795 183.032 573.363 183.032 573.363" stroke="#1A2E35" stroke-width="1.33333" stroke-miterlimit="10" stroke-linejoin="round"/>
<path d="M254.245 552.764L232.469 563.357C232.469 563.357 217.168 563.947 213.636 563.947C211.077 563.947 205.424 562.709 200.042 563.597" stroke="#1A2E35" stroke-width="1.33333" stroke-miterlimit="10" stroke-linejoin="round"/>
<path d="M158.755 542.465C159.196 539.817 159.491 537.167 159.491 536.285" stroke="#1A2E35" stroke-width="1.33333" stroke-miterlimit="10" stroke-linejoin="round"/>
<path d="M128.298 561.004C128.298 561.004 143.011 563.358 147.131 561.004C151.251 558.649 155.959 550.41 157.136 548.644C157.395 548.256 157.654 547.529 157.899 546.61" stroke="#1A2E35" stroke-width="1.33333" stroke-miterlimit="10" stroke-linejoin="round"/>
<path d="M120.62 555.601C117.669 555.664 114.782 555.707 112.408 555.707C103.58 555.707 95.9278 556.296 92.9852 560.415C90.0425 564.535 87.0998 575.129 86.5118 578.66C85.9238 582.191 85.9238 586.311 85.9238 586.311" stroke="#1A2E35" stroke-width="1.33333" stroke-miterlimit="10" stroke-linejoin="round"/>
<path d="M137.126 555.118C137.126 555.118 133.85 555.24 129.447 555.372" stroke="#1A2E35" stroke-width="1.33333" stroke-miterlimit="10" stroke-linejoin="round"/>
</svg>
